  0
SECTION
  2
HEADER
  9
$ACADVER
  1
AC1018
  9
$ACADMAINTVER
 70
0
  9
$DWGCODEPAGE
  3
ANSI_1252
  9
$LASTSAVEDBY
  1
ezdxf
  9
$INSBASE
 10
0.0
 20
0.0
 30
0.0
  9
$EXTMIN
 10
1e+20
 20
1e+20
 30
1e+20
  9
$EXTMAX
 10
-1e+20
 20
-1e+20
 30
-1e+20
  9
$LIMMIN
 10
0.0
 20
0.0
  9
$LIMMAX
 10
420.0
 20
297.0
  9
$ORTHOMODE
 70
0
  9
$REGENMODE
 70
1
  9
$FILLMODE
 70
1
  9
$QTEXTMODE
 70
0
  9
$MIRRTEXT
 70
1
  9
$LTSCALE
 40
1.0
  9
$ATTMODE
 70
1
  9
$TEXTSIZE
 40
2.5
  9
$TRACEWID
 40
1.0
  9
$TEXTSTYLE
  7
Standard
  9
$CLAYER
  8
0
  9
$CELTYPE
  6
ByLayer
  9
$CECOLOR
 62
256
  9
$CELTSCALE
 40
1.0
  9
$DISPSILH
 70
0
  9
$DIMSCALE
 40
1.0
  9
$DIMASZ
 40
2.5
  9
$DIMEXO
 40
0.625
  9
$DIMDLI
 40
3.75
  9
$DIMRND
 40
0.0
  9
$DIMDLE
 40
0.0
  9
$DIMEXE
 40
1.25
  9
$DIMTP
 40
0.0
  9
$DIMTM
 40
0.0
  9
$DIMTXT
 40
2.5
  9
$DIMCEN
 40
2.5
  9
$DIMTSZ
 40
0.0
  9
$DIMTOL
 70
0
  9
$DIMLIM
 70
0
  9
$DIMTIH
 70
0
  9
$DIMTOH
 70
0
  9
$DIMSE1
 70
0
  9
$DIMSE2
 70
0
  9
$DIMTAD
 70
1
  9
$DIMZIN
 70
8
  9
$DIMBLK
  1

  9
$DIMASO
 70
1
  9
$DIMSHO
 70
1
  9
$DIMPOST
  1

  9
$DIMAPOST
  1

  9
$DIMALT
 70
0
  9
$DIMALTD
 70
3
  9
$DIMALTF
 40
0.03937007874
  9
$DIMLFAC
 40
1.0
  9
$DIMTOFL
 70
1
  9
$DIMTVP
 40
0.0
  9
$DIMTIX
 70
0
  9
$DIMSOXD
 70
0
  9
$DIMSAH
 70
0
  9
$DIMBLK1
  1

  9
$DIMBLK2
  1

  9
$DIMSTYLE
  2
ISO-25
  9
$DIMCLRD
 70
0
  9
$DIMCLRE
 70
0
  9
$DIMCLRT
 70
0
  9
$DIMTFAC
 40
1.0
  9
$DIMGAP
 40
0.625
  9
$DIMJUST
 70
0
  9
$DIMSD1
 70
0
  9
$DIMSD2
 70
0
  9
$DIMTOLJ
 70
0
  9
$DIMTZIN
 70
8
  9
$DIMALTZ
 70
0
  9
$DIMALTTZ
 70
0
  9
$DIMUPT
 70
0
  9
$DIMDEC
 70
2
  9
$DIMTDEC
 70
2
  9
$DIMALTU
 70
2
  9
$DIMALTTD
 70
3
  9
$DIMTXSTY
  7
Standard
  9
$DIMAUNIT
 70
0
  9
$DIMADEC
 70
0
  9
$DIMALTRND
 40
0.0
  9
$DIMAZIN
 70
0
  9
$DIMDSEP
 70
44
  9
$DIMATFIT
 70
3
  9
$DIMFRAC
 70
0
  9
$DIMLDRBLK
  1

  9
$DIMLUNIT
 70
2
  9
$DIMLWD
 70
-2
  9
$DIMLWE
 70
-2
  9
$DIMTMOVE
 70
0
  9
$LUNITS
 70
2
  9
$LUPREC
 70
4
  9
$SKETCHINC
 40
1.0
  9
$FILLETRAD
 40
10.0
  9
$AUNITS
 70
0
  9
$AUPREC
 70
2
  9
$MENU
  1
.
  9
$ELEVATION
 40
0.0
  9
$PELEVATION
 40
0.0
  9
$THICKNESS
 40
0.0
  9
$LIMCHECK
 70
0
  9
$CHAMFERA
 40
0.0
  9
$CHAMFERB
 40
0.0
  9
$CHAMFERC
 40
0.0
  9
$CHAMFERD
 40
0.0
  9
$SKPOLY
 70
0
  9
$TDCREATE
 40
2460428.7895023148
  9
$TDUCREATE
 40
2458532.153996898
  9
$TDUPDATE
 40
2460428.7895023148
  9
$TDUUPDATE
 40
2458532.1544311
  9
$TDINDWG
 40
0.0
  9
$TDUSRTIMER
 40
0.0
  9
$USRTIMER
 70
1
  9
$ANGBASE
 50
0.0
  9
$ANGDIR
 70
0
  9
$PDMODE
 70
0
  9
$PDSIZE
 40
0.0
  9
$PLINEWID
 40
0.0
  9
$SPLFRAME
 70
0
  9
$SPLINETYPE
 70
6
  9
$SPLINESEGS
 70
8
  9
$HANDSEED
  5
4A0
  9
$SURFTAB1
 70
6
  9
$SURFTAB2
 70
6
  9
$SURFTYPE
 70
6
  9
$SURFU
 70
6
  9
$SURFV
 70
6
  9
$UCSBASE
  2

  9
$UCSNAME
  2

  9
$UCSORG
 10
0.0
 20
0.0
 30
0.0
  9
$UCSXDIR
 10
1.0
 20
0.0
 30
0.0
  9
$UCSYDIR
 10
0.0
 20
1.0
 30
0.0
  9
$UCSORTHOREF
  2

  9
$UCSORTHOVIEW
 70
0
  9
$UCSORGTOP
 10
0.0
 20
0.0
 30
0.0
  9
$UCSORGBOTTOM
 10
0.0
 20
0.0
 30
0.0
  9
$UCSORGLEFT
 10
0.0
 20
0.0
 30
0.0
  9
$UCSORGRIGHT
 10
0.0
 20
0.0
 30
0.0
  9
$UCSORGFRONT
 10
0.0
 20
0.0
 30
0.0
  9
$UCSORGBACK
 10
0.0
 20
0.0
 30
0.0
  9
$PUCSBASE
  2

  9
$PUCSNAME
  2

  9
$PUCSORG
 10
0.0
 20
0.0
 30
0.0
  9
$PUCSXDIR
 10
1.0
 20
0.0
 30
0.0
  9
$PUCSYDIR
 10
0.0
 20
1.0
 30
0.0
  9
$PUCSORTHOREF
  2

  9
$PUCSORTHOVIEW
 70
0
  9
$PUCSORGTOP
 10
0.0
 20
0.0
 30
0.0
  9
$PUCSORGBOTTOM
 10
0.0
 20
0.0
 30
0.0
  9
$PUCSORGLEFT
 10
0.0
 20
0.0
 30
0.0
  9
$PUCSORGRIGHT
 10
0.0
 20
0.0
 30
0.0
  9
$PUCSORGFRONT
 10
0.0
 20
0.0
 30
0.0
  9
$PUCSORGBACK
 10
0.0
 20
0.0
 30
0.0
  9
$USERI1
 70
0
  9
$USERI2
 70
0
  9
$USERI3
 70
0
  9
$USERI4
 70
0
  9
$USERI5
 70
0
  9
$USERR1
 40
0.0
  9
$USERR2
 40
0.0
  9
$USERR3
 40
0.0
  9
$USERR4
 40
0.0
  9
$USERR5
 40
0.0
  9
$WORLDVIEW
 70
1
  9
$SHADEDGE
 70
3
  9
$SHADEDIF
 70
70
  9
$TILEMODE
 70
1
  9
$MAXACTVP
 70
64
  9
$PINSBASE
 10
0.0
 20
0.0
 30
0.0
  9
$PLIMCHECK
 70
0
  9
$PEXTMIN
 10
1e+20
 20
1e+20
 30
1e+20
  9
$PEXTMAX
 10
-1e+20
 20
-1e+20
 30
-1e+20
  9
$PLIMMIN
 10
0.0
 20
0.0
  9
$PLIMMAX
 10
420.0
 20
297.0
  9
$UNITMODE
 70
0
  9
$VISRETAIN
 70
1
  9
$PLINEGEN
 70
0
  9
$PSLTSCALE
 70
1
  9
$TREEDEPTH
 70
3020
  9
$CMLSTYLE
  2
Standard
  9
$CMLJUST
 70
0
  9
$CMLSCALE
 40
20.0
  9
$PROXYGRAPHICS
 70
1
  9
$MEASUREMENT
 70
1
  9
$CELWEIGHT
370
-1
  9
$ENDCAPS
280
0
  9
$JOINSTYLE
280
0
  9
$LWDISPLAY
290
0
  9
$INSUNITS
 70
6
  9
$HYPERLINKBASE
  1

  9
$STYLESHEET
  1

  9
$XEDIT
290
1
  9
$CEPSNTYPE
380
0
  9
$PSTYLEMODE
290
1
  9
$FINGERPRINTGUID
  2
{1FE60B94-91BC-449B-83B9-36A9E3042335}
  9
$VERSIONGUID
  2
{90047D3F-6FE0-4BE2-ADEB-B207E4D39C73}
  9
$EXTNAMES
290
1
  9
$PSVPSCALE
 40
0.0
  9
$OLESTARTUP
290
0
  9
$SORTENTS
280
127
  9
$INDEXCTL
280
0
  9
$HIDETEXT
280
1
  9
$XCLIPFRAME
290
0
  9
$HALOGAP
280
0
  9
$OBSCOLOR
 70
257
  9
$OBSLTYPE
280
0
  9
$INTERSECTIONDISPLAY
280
0
  9
$INTERSECTIONCOLOR
 70
257
  9
$DIMASSOC
280
2
  9
$PROJECTNAME
  1

  0
ENDSEC
  0
SECTION
  2
CLASSES
  0
CLASS
  1
ACDBDICTIONARYWDFLT
  2
AcDbDictionaryWithDefault
  3
ObjectDBX Classes
 90
0
 91
0
280
0
281
0
  0
CLASS
  1
SUN
  2
AcDbSun
  3
SCENEOE
 90
1153
 91
0
280
0
281
0
  0
CLASS
  1
VISUALSTYLE
  2
AcDbVisualStyle
  3
ObjectDBX Classes
 90
4095
 91
0
280
0
281
0
  0
CLASS
  1
MATERIAL
  2
AcDbMaterial
  3
ObjectDBX Classes
 90
1153
 91
0
280
0
281
0
  0
CLASS
  1
SCALE
  2
AcDbScale
  3
ObjectDBX Classes
 90
1153
 91
0
280
0
281
0
  0
CLASS
  1
TABLESTYLE
  2
AcDbTableStyle
  3
ObjectDBX Classes
 90
4095
 91
0
280
0
281
0
  0
CLASS
  1
MLEADERSTYLE
  2
AcDbMLeaderStyle
  3
ACDB_MLEADERSTYLE_CLASS
 90
4095
 91
0
280
0
281
0
  0
CLASS
  1
DICTIONARYVAR
  2
AcDbDictionaryVar
  3
ObjectDBX Classes
 90
0
 91
0
280
0
281
0
  0
CLASS
  1
CELLSTYLEMAP
  2
AcDbCellStyleMap
  3
ObjectDBX Classes
 90
1152
 91
0
280
0
281
0
  0
CLASS
  1
MENTALRAYRENDERSETTINGS
  2
AcDbMentalRayRenderSettings
  3
SCENEOE
 90
1024
 91
0
280
0
281
0
  0
CLASS
  1
ACDBDETAILVIEWSTYLE
  2
AcDbDetailViewStyle
  3
ObjectDBX Classes
 90
1025
 91
0
280
0
281
0
  0
CLASS
  1
ACDBSECTIONVIEWSTYLE
  2
AcDbSectionViewStyle
  3
ObjectDBX Classes
 90
1025
 91
0
280
0
281
0
  0
CLASS
  1
RASTERVARIABLES
  2
AcDbRasterVariables
  3
ISM
 90
0
 91
0
280
0
281
0
  0
CLASS
  1
ACDBPLACEHOLDER
  2
AcDbPlaceHolder
  3
ObjectDBX Classes
 90
0
 91
0
280
0
281
0
  0
CLASS
  1
LAYOUT
  2
AcDbLayout
  3
ObjectDBX Classes
 90
0
 91
0
280
0
281
0
  0
ENDSEC
  0
SECTION
  2
TABLES
  0
TABLE
  2
VPORT
  5
8
330
0
100
AcDbSymbolTable
 70
1
  0
VPORT
  5
23
330
8
100
AcDbSymbolTableRecord
100
AcDbViewportTableRecord
  2
*Active
 70
0
 10
0.0
 20
0.0
 11
1.0
 21
1.0
 12
0.0
 22
0.0
 13
0.0
 23
0.0
 14
0.5
 24
0.5
 15
0.5
 25
0.5
 16
0.0
 26
0.0
 36
1.0
 17
0.0
 27
0.0
 37
0.0
 40
1000.0
 41
1.34
 42
50.0
 43
0.0
 44
0.0
 50
0.0
 51
0.0
 71
0
 72
1000
 73
1
 74
3
 75
0
 76
0
 77
0
 78
0
281
0
 65
0
146
0.0
  0
ENDTAB
  0
TABLE
  2
LTYPE
  5
2
330
0
100
AcDbSymbolTable
 70
3
  0
LTYPE
  5
24
330
2
100
AcDbSymbolTableRecord
100
AcDbLinetypeTableRecord
  2
ByBlock
 70
0
  3

 72
65
 73
0
 40
0.0
  0
LTYPE
  5
25
330
2
100
AcDbSymbolTableRecord
100
AcDbLinetypeTableRecord
  2
ByLayer
 70
0
  3

 72
65
 73
0
 40
0.0
  0
LTYPE
  5
26
330
2
100
AcDbSymbolTableRecord
100
AcDbLinetypeTableRecord
  2
Continuous
 70
0
  3

 72
65
 73
0
 40
0.0
  0
ENDTAB
  0
TABLE
  2
LAYER
  5
1
330
0
100
AcDbSymbolTable
 70
2
  0
LAYER
  5
27
330
1
100
AcDbSymbolTableRecord
100
AcDbLayerTableRecord
  2
0
 70
0
 62
7
  6
Continuous
370
-3
390
13
  0
LAYER
  5
28
330
1
100
AcDbSymbolTableRecord
100
AcDbLayerTableRecord
  2
Defpoints
 70
0
 62
7
  6
Continuous
290
0
370
-3
390
13
  0
ENDTAB
  0
TABLE
  2
STYLE
  5
5
330
0
100
AcDbSymbolTable
 70
1
  0
STYLE
  5
29
330
5
100
AcDbSymbolTableRecord
100
AcDbTextStyleTableRecord
  2
Standard
 70
0
 40
0.0
 41
1.0
 50
0.0
 71
0
 42
2.5
  3
txt
  4

  0
ENDTAB
  0
TABLE
  2
VIEW
  5
7
330
0
100
AcDbSymbolTable
 70
0
  0
ENDTAB
  0
TABLE
  2
UCS
  5
6
330
0
100
AcDbSymbolTable
 70
0
  0
ENDTAB
  0
TABLE
  2
APPID
  5
3
330
0
100
AcDbSymbolTable
 70
3
  0
APPID
  5
2A
330
3
100
AcDbSymbolTableRecord
100
AcDbRegAppTableRecord
  2
ACAD
 70
0
  0
APPID
  5
49D
330
3
100
AcDbSymbolTableRecord
100
AcDbRegAppTableRecord
  2
HATCHBACKGROUNDCOLOR
 70
0
  0
APPID
  5
49E
330
3
100
AcDbSymbolTableRecord
100
AcDbRegAppTableRecord
  2
EZDXF
 70
0
  0
ENDTAB
  0
TABLE
  2
DIMSTYLE
  5
4
330
0
100
AcDbSymbolTable
 70
1
100
AcDbDimStyleTable
  0
DIMSTYLE
105
2B
330
4
100
AcDbSymbolTableRecord
100
AcDbDimStyleTableRecord
  2
Standard
 70
0
  3

  4

 40
1.0
 41
2.5
 42
0.625
 43
3.75
 44
1.25
 45
0.0
 46
0.0
 47
0.0
 48
0.0
140
2.5
141
2.5
142
0.0
143
0.03937007874
144
1.0
145
0.0
146
1.0
147
0.625
148
0.0
 71
0
 72
0
 73
0
 74
0
 75
0
 76
0
 77
1
 78
8
 79
3
170
0
171
3
172
1
173
0
174
0
175
0
176
0
177
0
178
0
179
2
271
2
272
2
273
2
274
3
275
0
276
0
277
2
278
44
279
0
280
0
281
0
282
0
283
0
284
8
285
0
286
0
288
0
289
3
371
-2
372
-2
  0
ENDTAB
  0
TABLE
  2
BLOCK_RECORD
  5
9
330
0
100
AcDbSymbolTable
 70
9
  0
BLOCK_RECORD
  5
17
330
9
100
AcDbSymbolTableRecord
100
AcDbBlockTableRecord
  2
*Model_Space
340
1A
  0
BLOCK_RECORD
  5
1B
330
9
100
AcDbSymbolTableRecord
100
AcDbBlockTableRecord
  2
*Paper_Space
340
1E
  0
BLOCK_RECORD
  5
43
330
9
100
AcDbSymbolTableRecord
100
AcDbBlockTableRecord
  2
0AD2.面料_后片下合并件.M
340
0
  0
BLOCK_RECORD
  5
B0
330
9
100
AcDbSymbolTableRecord
100
AcDbBlockTableRecord
  2
0AD2.面料_前片右合并件_镜像改名.M
340
0
  0
BLOCK_RECORD
  5
112
330
9
100
AcDbSymbolTableRecord
100
AcDbBlockTableRecord
  2
0AD2.面料_门筒右合并件.M
340
0
  0
BLOCK_RECORD
  5
1F4
330
9
100
AcDbSymbolTableRecord
100
AcDbBlockTableRecord
  2
0AD2.面料_门筒左合并件.M
340
0
  0
BLOCK_RECORD
  5
2A6
330
9
100
AcDbSymbolTableRecord
100
AcDbBlockTableRecord
  2
0AD2.布衬_门筒左合并件.M
340
0
  0
BLOCK_RECORD
  5
358
330
9
100
AcDbSymbolTableRecord
100
AcDbBlockTableRecord
  2
0AD2.布衬_门筒右合并件.M
340
0
  0
BLOCK_RECORD
  5
43A
330
9
100
AcDbSymbolTableRecord
100
AcDbBlockTableRecord
  2
0AD2.面料_前片右合并件_镜像改名.M_m0
340
0
  0
ENDTAB
  0
ENDSEC
  0
SECTION
  2
BLOCKS
  0
BLOCK
  5
18
330
17
100
AcDbEntity
  8
0
100
AcDbBlockBegin
  2
*Model_Space
 70
0
 10
0.0
 20
0.0
 30
0.0
  3
*Model_Space
  1

  0
ENDBLK
  5
19
330
17
100
AcDbEntity
  8
0
100
AcDbBlockEnd
  0
BLOCK
  5
1C
330
1B
100
AcDbEntity
  8
0
100
AcDbBlockBegin
  2
*Paper_Space
 70
0
 10
0.0
 20
0.0
 30
0.0
  3
*Paper_Space
  1

  0
ENDBLK
  5
1D
330
1B
100
AcDbEntity
  8
0
100
AcDbBlockEnd
  0
BLOCK
  5
44
330
43
100
AcDbEntity
  8
0
100
AcDbBlockBegin
  2
0AD2.面料_后片下合并件.M
 70
0
 10
0.0
 20
0.0
 30
0.0
  3
0AD2.面料_后片下合并件.M
  1

  0
POLYLINE
  5
46
330
43
100
AcDbEntity
  8
1
100
AcDb2dPolyline
 66
1
 10
0.0
 20
0.0
 30
0.0
 70
1
  0
VERTEX
  5
47
330
46
100
AcDbEntity
  8
1
100
AcDbVertex
100
AcDb2dVertex
 10
18886.499023
 20
-15035.900879
 30
0.0
 70
0
  0
VERTEX
  5
48
330
46
100
AcDbEntity
  8
1
100
AcDbVertex
100
AcDb2dVertex
 10
18572.369385
 20
-15035.900879
 30
0.0
 70
0
  0
VERTEX
  5
49
330
46
100
AcDbEntity
  8
1
100
AcDbVertex
100
AcDb2dVertex
 10
18571.663288
 20
-14997.272142
 30
0.0
 70
0
  0
VERTEX
  5
4A
330
46
100
AcDbEntity
  8
1
100
AcDbVertex
100
AcDb2dVertex
 10
18570.723343
 20
-14945.866392
 30
0.0
 70
0
  0
VERTEX
  5
4B
330
46
100
AcDbEntity
  8
1
100
AcDbVertex
100
AcDb2dVertex
 10
18569.777764
 20
-14894.193448
 30
0.0
 70
0
  0
VERTEX
  5
4C
330
46
100
AcDbEntity
  8
1
100
AcDbVertex
100
AcDb2dVertex
 10
18568.839398
 20
-14842.878955
 30
0.0
 70
0
  0
VERTEX
  5
4D
330
46
100
AcDbEntity
  8
1
100
AcDbVertex
100
AcDb2dVertex
 10
18567.908867
 20
-14792.000452
 30
0.0
 70
0
  0
VERTEX
  5
4E
330
46
100
AcDbEntity
  8
1
100
AcDbVertex
100
AcDb2dVertex
 10
18566.911621
 20
-14737.445068
 30
0.0
 70
0
  0
VERTEX
  5
4F
330
46
100
AcDbEntity
  8
1
100
AcDbVertex
100
AcDb2dVertex
 10
18589.158726
 20
-14737.445068
 30
0.0
 70
0
  0
VERTEX
  5
50
330
46
100
AcDbEntity
  8
1
100
AcDbVertex
100
AcDb2dVertex
 10
18640.415656
 20
-14737.445068
 30
0.0
 70
0
  0
VERTEX
  5
51
330
46
100
AcDbEntity
  8
1
100
AcDbVertex
100
AcDb2dVertex
 10
18691.135226
 20
-14737.445068
 30
0.0
 70
0
  0
VERTEX
  5
52
330
46
100
AcDbEntity
  8
1
100
AcDbVertex
100
AcDb2dVertex
 10
18706.712646
 20
-14737.445068
 30
0.0
 70
0
  0
VERTEX
  5
53
330
46
100
AcDbEntity
  8
1
100
AcDbVertex
100
AcDb2dVertex
 10
18742.091053
 20
-14737.445068
 30
0.0
 70
0
  0
VERTEX
  5
54
330
46
100
AcDbEntity
  8
1
100
AcDbVertex
100
AcDb2dVertex
 10
18793.039393
 20
-14737.445068
 30
0.0
 70
0
  0
VERTEX
  5
55
330
46
100
AcDbEntity
  8
1
100
AcDbVertex
100
AcDb2dVertex
 10
18846.499023
 20
-14737.445068
 30
0.0
 70
0
  0
VERTEX
  5
56
330
46
100
AcDbEntity
  8
1
100
AcDbVertex
100
AcDb2dVertex
 10
18886.499023
 20
-14737.445068
 30
0.0
 70
0
  0
VERTEX
  5
57
330
46
100
AcDbEntity
  8
1
100
AcDbVertex
100
AcDb2dVertex
 10
18926.499023
 20
-14737.445068
 30
0.0
 70
0
  0
VERTEX
  5
58
330
46
100
AcDbEntity
  8
1
100
AcDbVertex
100
AcDb2dVertex
 10
18979.958654
 20
-14737.445068
 30
0.0
 70
0
  0
VERTEX
  5
59
330
46
100
AcDbEntity
  8
1
100
AcDbVertex
100
AcDb2dVertex
 10
19030.906994
 20
-14737.445068
 30
0.0
 70
0
  0
VERTEX
  5
5A
330
46
100
AcDbEntity
  8
1
100
AcDbVertex
100
AcDb2dVertex
 10
19066.2854
 20
-14737.445068
 30
0.0
 70
0
  0
VERTEX
  5
5B
330
46
100
AcDbEntity
  8
1
100
AcDbVertex
100
AcDb2dVertex
 10
19081.862821
 20
-14737.445068
 30
0.0
 70
0
  0
VERTEX
  5
5C
330
46
100
AcDbEntity
  8
1
100
AcDbVertex
100
AcDb2dVertex
 10
19132.582391
 20
-14737.445068
 30
0.0
 70
0
  0
VERTEX
  5
5D
330
46
100
AcDbEntity
  8
1
100
AcDbVertex
100
AcDb2dVertex
 10
19183.839321
 20
-14737.445068
 30
0.0
 70
0
  0
VERTEX
  5
5E
330
46
100
AcDbEntity
  8
1
100
AcDbVertex
100
AcDb2dVertex
 10
19206.086426
 20
-14737.445068
 30
0.0
 70
0
  0
VERTEX
  5
5F
330
46
100
AcDbEntity
  8
1
100
AcDbVertex
100
AcDb2dVertex
 10
19205.08918
 20
-14792.000452
 30
0.0
 70
0
  0
VERTEX
  5
60
330
46
100
AcDbEntity
  8
1
100
AcDbVertex
100
AcDb2dVertex
 10
19204.158649
 20
-14842.878955
 30
0.0
 70
0
  0
VERTEX
  5
61
330
46
100
AcDbEntity
  8
1
100
AcDbVertex
100
AcDb2dVertex
 10
19203.220282
 20
-14894.193448
 30
0.0
 70
0
  0
VERTEX
  5
62
330
46
100
AcDbEntity
  8
1
100
AcDbVertex
100
AcDb2dVertex
 10
19202.274704
 20
-14945.866392
 30
0.0
 70
0
  0
VERTEX
  5
63
330
46
100
AcDbEntity
  8
1
100
AcDbVertex
100
AcDb2dVertex
 10
19201.334759
 20
-14997.272142
 30
0.0
 70
0
  0
VERTEX
  5
64
330
46
100
AcDbEntity
  8
1
100
AcDbVertex
100
AcDb2dVertex
 10
19200.628662
 20
-15035.900879
 30
0.0
 70
0
  0
SEQEND
  5
65
330
46
100
AcDbEntity
  8
1
  0
POINT
  5
66
330
43
100
AcDbEntity
  8
2
100
AcDbPoint
 10
18886.499023
 20
-15035.900879
 30
0.0
  0
TEXT
  5
67
330
43
100
AcDbEntity
  8
2
100
AcDbText
 10
18886.499023
 20
-15035.900879
 30
0.0
 40
0.0
  1
# 1
100
AcDbText
  0
POINT
  5
68
330
43
100
AcDbEntity
  8
2
100
AcDbPoint
 10
18572.369385
 20
-15035.900879
 30
0.0
  0
TEXT
  5
69
330
43
100
AcDbEntity
  8
2
100
AcDbText
 10
18572.369385
 20
-15035.900879
 30
0.0
 40
0.0
  1
# 2
100
AcDbText
  0
POINT
  5
6A
330
43
100
AcDbEntity
  8
2
100
AcDbPoint
 10
18566.911621
 20
-14737.445068
 30
0.0
  0
TEXT
  5
6B
330
43
100
AcDbEntity
  8
2
100
AcDbText
 10
18566.911621
 20
-14737.445068
 30
0.0
 40
0.0
  1
# 3
100
AcDbText
  0
POINT
  5
6C
330
43
100
AcDbEntity
  8
2
100
AcDbPoint
 10
18846.499023
 20
-14737.445068
 30
0.0
  0
TEXT
  5
6D
330
43
100
AcDbEntity
  8
2
100
AcDbText
 10
18846.499023
 20
-14737.445068
 30
0.0
 40
0.0
  1
# 4
100
AcDbText
  0
POINT
  5
6E
330
43
100
AcDbEntity
  8
2
100
AcDbPoint
 10
18886.499023
 20
-14737.445068
 30
0.0
  0
TEXT
  5
6F
330
43
100
AcDbEntity
  8
2
100
AcDbText
 10
18886.499023
 20
-14737.445068
 30
0.0
 40
0.0
  1
# 5
100
AcDbText
  0
POINT
  5
70
330
43
100
AcDbEntity
  8
2
100
AcDbPoint
 10
18926.499023
 20
-14737.445068
 30
0.0
  0
TEXT
  5
71
330
43
100
AcDbEntity
  8
2
100
AcDbText
 10
18926.499023
 20
-14737.445068
 30
0.0
 40
0.0
  1
# 6
100
AcDbText
  0
POINT
  5
72
330
43
100
AcDbEntity
  8
2
100
AcDbPoint
 10
19206.086426
 20
-14737.445068
 30
0.0
  0
TEXT
  5
73
330
43
100
AcDbEntity
  8
2
100
AcDbText
 10
19206.086426
 20
-14737.445068
 30
0.0
 40
0.0
  1
# 7
100
AcDbText
  0
POINT
  5
74
330
43
100
AcDbEntity
  8
2
100
AcDbPoint
 10
19200.628662
 20
-15035.900879
 30
0.0
  0
TEXT
  5
75
330
43
100
AcDbEntity
  8
2
100
AcDbText
 10
19200.628662
 20
-15035.900879
 30
0.0
 40
0.0
  1
# 8
100
AcDbText
  0
POINT
  5
76
330
43
100
AcDbEntity
  8
3
100
AcDbPoint
 10
18571.663288
 20
-14997.272142
 30
0.0
  0
POINT
  5
77
330
43
100
AcDbEntity
  8
3
100
AcDbPoint
 10
18570.723343
 20
-14945.866392
 30
0.0
  0
POINT
  5
78
330
43
100
AcDbEntity
  8
3
100
AcDbPoint
 10
18569.777764
 20
-14894.193448
 30
0.0
  0
POINT
  5
79
330
43
100
AcDbEntity
  8
3
100
AcDbPoint
 10
18568.839398
 20
-14842.878955
 30
0.0
  0
POINT
  5
7A
330
43
100
AcDbEntity
  8
3
100
AcDbPoint
 10
18567.908867
 20
-14792.000452
 30
0.0
  0
POINT
  5
7B
330
43
100
AcDbEntity
  8
3
100
AcDbPoint
 10
18589.158726
 20
-14737.445068
 30
0.0
  0
POINT
  5
7C
330
43
100
AcDbEntity
  8
3
100
AcDbPoint
 10
18640.415656
 20
-14737.445068
 30
0.0
  0
POINT
  5
7D
330
43
100
AcDbEntity
  8
3
100
AcDbPoint
 10
18691.135226
 20
-14737.445068
 30
0.0
  0
POINT
  5
7E
330
43
100
AcDbEntity
  8
3
100
AcDbPoint
 10
18706.712646
 20
-14737.445068
 30
0.0
  0
POINT
  5
7F
330
43
100
AcDbEntity
  8
3
100
AcDbPoint
 10
18742.091053
 20
-14737.445068
 30
0.0
  0
POINT
  5
80
330
43
100
AcDbEntity
  8
3
100
AcDbPoint
 10
18793.039393
 20
-14737.445068
 30
0.0
  0
POINT
  5
81
330
43
100
AcDbEntity
  8
3
100
AcDbPoint
 10
18979.958654
 20
-14737.445068
 30
0.0
  0
POINT
  5
82
330
43
100
AcDbEntity
  8
3
100
AcDbPoint
 10
19030.906994
 20
-14737.445068
 30
0.0
  0
POINT
  5
83
330
43
100
AcDbEntity
  8
3
100
AcDbPoint
 10
19066.2854
 20
-14737.445068
 30
0.0
  0
POINT
  5
84
330
43
100
AcDbEntity
  8
3
100
AcDbPoint
 10
19081.862821
 20
-14737.445068
 30
0.0
  0
POINT
  5
85
330
43
100
AcDbEntity
  8
3
100
AcDbPoint
 10
19132.582391
 20
-14737.445068
 30
0.0
  0
POINT
  5
86
330
43
100
AcDbEntity
  8
3
100
AcDbPoint
 10
19183.839321
 20
-14737.445068
 30
0.0
  0
POINT
  5
87
330
43
100
AcDbEntity
  8
3
100
AcDbPoint
 10
19205.08918
 20
-14792.000452
 30
0.0
  0
POINT
  5
88
330
43
100
AcDbEntity
  8
3
100
AcDbPoint
 10
19204.158649
 20
-14842.878955
 30
0.0
  0
POINT
  5
89
330
43
100
AcDbEntity
  8
3
100
AcDbPoint
 10
19203.220282
 20
-14894.193448
 30
0.0
  0
POINT
  5
8A
330
43
100
AcDbEntity
  8
3
100
AcDbPoint
 10
19202.274704
 20
-14945.866392
 30
0.0
  0
POINT
  5
8B
330
43
100
AcDbEntity
  8
3
100
AcDbPoint
 10
19201.334759
 20
-14997.272142
 30
0.0
  0
POINT
  5
8C
330
43
100
AcDbEntity
  8
4
100
AcDbPoint
 10
18706.712646
 20
-14737.445068
 30
3.0
 50
90.0
  0
TEXT
  5
8D
330
43
100
AcDbEntity
  8
4
100
AcDbText
 10
18706.712646
 20
-14737.445068
 30
0.0
 40
0.0
  1
# 9
100
AcDbText
  0
POINT
  5
8E
330
43
100
AcDbEntity
  8
4
100
AcDbPoint
 10
19066.2854
 20
-14737.445068
 30
3.0
 50
90.0
  0
TEXT
  5
8F
330
43
100
AcDbEntity
  8
4
100
AcDbText
 10
19066.2854
 20
-14737.445068
 30
0.0
 40
0.0
  1
# 10
100
AcDbText
  0
POLYLINE
  5
90
330
43
100
AcDbEntity
  8
8
100
AcDb2dPolyline
 66
1
 10
0.0
 20
0.0
 30
0.0
 70
0
  0
VERTEX
  5
91
330
90
100
AcDbEntity
  8
8
100
AcDbVertex
100
AcDb2dVertex
 10
18886.499023
 20
-14737.445068
 30
0.0
 70
0
  0
VERTEX
  5
92
330
90
100
AcDbEntity
  8
8
100
AcDbVertex
100
AcDb2dVertex
 10
18886.499023
 20
-15035.900879
 30
0.0
 70
0
  0
SEQEND
  5
93
330
90
100
AcDbEntity
  8
8
  0
POINT
  5
94
330
43
100
AcDbEntity
  8
2
100
AcDbPoint
 10
18886.499023
 20
-14737.445068
 30
0.0
  0
TEXT
  5
95
330
43
100
AcDbEntity
  8
2
100
AcDbText
 10
18886.499023
 20
-14737.445068
 30
0.0
 40
0.0
  1
# 11
100
AcDbText
  0
POINT
  5
96
330
43
100
AcDbEntity
  8
2
100
AcDbPoint
 10
18886.499023
 20
-15035.900879
 30
0.0
  0
TEXT
  5
97
330
43
100
AcDbEntity
  8
2
100
AcDbText
 10
18886.499023
 20
-15035.900879
 30
0.0
 40
0.0
  1
# 12
100
AcDbText
  0
POLYLINE
  5
98
330
43
100
AcDbEntity
  8
8
100
AcDb2dPolyline
 66
1
 10
0.0
 20
0.0
 30
0.0
 70
0
  0
VERTEX
  5
99
330
98
100
AcDbEntity
  8
8
100
AcDbVertex
100
AcDb2dVertex
 10
19200.993652
 20
-15015.900879
 30
0.0
 70
0
  0
VERTEX
  5
9A
330
98
100
AcDbEntity
  8
8
100
AcDbVertex
100
AcDb2dVertex
 10
18886.499023
 20
-15015.900879
 30
0.0
 70
0
  0
SEQEND
  5
9B
330
98
100
AcDbEntity
  8
8
  0
POINT
  5
9C
330
43
100
AcDbEntity
  8
2
100
AcDbPoint
 10
19200.993652
 20
-15015.900879
 30
0.0
  0
TEXT
  5
9D
330
43
100
AcDbEntity
  8
2
100
AcDbText
 10
19200.993652
 20
-15015.900879
 30
0.0
 40
0.0
  1
# 13
100
AcDbText
  0
POINT
  5
9E
330
43
100
AcDbEntity
  8
2
100
AcDbPoint
 10
18886.499023
 20
-15015.900879
 30
0.0
  0
TEXT
  5
9F
330
43
100
AcDbEntity
  8
2
100
AcDbText
 10
18886.499023
 20
-15015.900879
 30
0.0
 40
0.0
  1
# 14
100
AcDbText
  0
POLYLINE
  5
A0
330
43
100
AcDbEntity
  8
8
100
AcDb2dPolyline
 66
1
 10
0.0
 20
0.0
 30
0.0
 70
0
  0
VERTEX
  5
A1
330
A0
100
AcDbEntity
  8
8
100
AcDbVertex
100
AcDb2dVertex
 10
18572.004395
 20
-15015.900879
 30
0.0
 70
0
  0
VERTEX
  5
A2
330
A0
100
AcDbEntity
  8
8
100
AcDbVertex
100
AcDb2dVertex
 10
18886.499023
 20
-15015.900879
 30
0.0
 70
0
  0
SEQEND
  5
A3
330
A0
100
AcDbEntity
  8
8
  0
POINT
  5
A4
330
43
100
AcDbEntity
  8
2
100
AcDbPoint
 10
18572.004395
 20
-15015.900879
 30
0.0
  0
TEXT
  5
A5
330
43
100
AcDbEntity
  8
2
100
AcDbText
 10
18572.004395
 20
-15015.900879
 30
0.0
 40
0.0
  1
# 15
100
AcDbText
  0
POINT
  5
A6
330
43
100
AcDbEntity
  8
2
100
AcDbPoint
 10
18886.499023
 20
-15015.900879
 30
0.0
  0
TEXT
  5
A7
330
43
100
AcDbEntity
  8
2
100
AcDbText
 10
18886.499023
 20
-15015.900879
 30
0.0
 40
0.0
  1
# 16
100
AcDbText
  0
LINE
  5
A8
330
43
100
AcDbEntity
  8
7
100
AcDbLine
 10
19038.502197
 20
-14777.585449
 30
0.0
 11
19038.502197
 21
-14999.16626
 31
0.0
  0
TEXT
  5
A9
330
43
100
AcDbEntity
  8
1
100
AcDbText
 10
19024.996338
 20
-15000.22583
 30
0.0
 40
10.0
  1
还口2cm
100
AcDbText
  0
TEXT
  5
AA
330
43
100
AcDbEntity
  8
1
100
AcDbText
 10
18886.499023
 20
-14897.672729
 30
0.0
 40
10.0
  1
Piece Name: 0AD2.面料_后片下合并件_0AD234.M
100
AcDbText
  0
TEXT
  5
AB
330
43
100
AcDbEntity
  8
1
100
AcDbText
 10
18886.499023
 20
-14882.672729
 30
0.0
 40
10.0
  1
Size: M
100
AcDbText
  0
TEXT
  5
AC
330
43
100
AcDbEntity
  8
1
100
AcDbText
 10
18886.499023
 20
-14867.672729
 30
0.0
 40
10.0
  1
Annotation: 
100
AcDbText
  0
TEXT
  5
AD
330
43
100
AcDbEntity
  8
1
100
AcDbText
 10
18886.499023
 20
-14852.672729
 30
0.0
 40
10.0
  1
Quantity: 1
100
AcDbText
  0
TEXT
  5
AE
330
43
100
AcDbEntity
  8
1
100
AcDbText
 10
18886.499023
 20
-14837.672729
 30
0.0
 40
10.0
  1
Material: 面料
100
AcDbText
  0
TEXT
  5
AF
330
43
100
AcDbEntity
  8
1
100
AcDbText
 10
18886.499023
 20
-14837.672729
 30
0.0
 40
10.0
  1
Category: 0
100
AcDbText
  0
ENDBLK
  5
45
330
43
100
AcDbEntity
  8
0
100
AcDbBlockEnd
  0
BLOCK
  5
B1
330
B0
100
AcDbEntity
  8
0
100
AcDbBlockBegin
  2
0AD2.面料_前片右合并件_镜像改名.M
 70
0
 10
0.0
 20
0.0
 30
0.0
  3
0AD2.面料_前片右合并件_镜像改名.M
  1

  0
POLYLINE
  5
B3
330
B0
100
AcDbEntity
  8
1
100
AcDb2dPolyline
 66
1
 10
0.0
 20
0.0
 30
0.0
 70
1
  0
VERTEX
  5
B4
330
B3
100
AcDbEntity
  8
1
100
AcDbVertex
100
AcDb2dVertex
 10
19244.671631
 20
-15036.450195
 30
0.0
 70
0
  0
VERTEX
  5
B5
330
B3
100
AcDbEntity
  8
1
100
AcDbVertex
100
AcDb2dVertex
 10
19246.88512
 20
-14997.790545
 30
0.0
 70
0
  0
VERTEX
  5
B6
330
B3
100
AcDbEntity
  8
1
100
AcDbVertex
100
AcDb2dVertex
 10
19249.784109
 20
-14947.195755
 30
0.0
 70
0
  0
VERTEX
  5
B7
330
B3
100
AcDbEntity
  8
1
100
AcDbVertex
100
AcDb2dVertex
 10
19252.755473
 20
-14895.486204
 30
0.0
 70
0
  0
VERTEX
  5
B8
330
B3
100
AcDbEntity
  8
1
100
AcDbVertex
100
AcDb2dVertex
 10
19255.709686
 20
-14844.267876
 30
0.0
 70
0
  0
VERTEX
  5
B9
330
B3
100
AcDbEntity
  8
1
100
AcDbVertex
100
AcDb2dVertex
 10
19258.691054
 20
-14792.785403
 30
0.0
 70
0
  0
VERTEX
  5
BA
330
B3
100
AcDbEntity
  8
1
100
AcDbVertex
100
AcDb2dVertex
 10
19261.856689
 20
-14738.303223
 30
0.0
 70
0
  0
VERTEX
  5
BB
330
B3
100
AcDbEntity
  8
1
100
AcDbVertex
100
AcDb2dVertex
 10
19323.83667
 20
-14738.303223
 30
0.0
 70
0
  0
VERTEX
  5
BC
330
B3
100
AcDbEntity
  8
1
100
AcDbVertex
100
AcDb2dVertex
 10
19323.83667
 20
-14738.303223
 30
0.0
 70
0
  0
VERTEX
  5
BD
330
B3
100
AcDbEntity
  8
1
100
AcDbVertex
100
AcDb2dVertex
 10
19374.376986
 20
-14738.303223
 30
0.0
 70
0
  0
VERTEX
  5
BE
330
B3
100
AcDbEntity
  8
1
100
AcDbVertex
100
AcDb2dVertex
 10
19385.81665
 20
-14738.303223
 30
0.0
 70
0
  0
VERTEX
  5
BF
330
B3
100
AcDbEntity
  8
1
100
AcDbVertex
100
AcDb2dVertex
 10
19447.796631
 20
-14738.303223
 30
0.0
 70
0
  0
VERTEX
  5
C0
330
B3
100
AcDbEntity
  8
1
100
AcDbVertex
100
AcDb2dVertex
 10
19447.796631
 20
-14738.303223
 30
0.0
 70
0
  0
VERTEX
  5
C1
330
B3
100
AcDbEntity
  8
1
100
AcDbVertex
100
AcDb2dVertex
 10
19498.336947
 20
-14738.303223
 30
0.0
 70
0
  0
VERTEX
  5
C2
330
B3
100
AcDbEntity
  8
1
100
AcDbVertex
100
AcDb2dVertex
 10
19509.776611
 20
-14738.303223
 30
0.0
 70
0
  0
VERTEX
  5
C3
330
B3
100
AcDbEntity
  8
1
100
AcDbVertex
100
AcDb2dVertex
 10
19509.776611
 20
-14791.520009
 30
0.0
 70
0
  0
VERTEX
  5
C4
330
B3
100
AcDbEntity
  8
1
100
AcDbVertex
100
AcDb2dVertex
 10
19509.776611
 20
-14843.450733
 30
0.0
 70
0
  0
VERTEX
  5
C5
330
B3
100
AcDbEntity
  8
1
100
AcDbVertex
100
AcDb2dVertex
 10
19509.776611
 20
-14893.543222
 30
0.0
 70
0
  0
VERTEX
  5
C6
330
B3
100
AcDbEntity
  8
1
100
AcDbVertex
100
AcDb2dVertex
 10
19509.776611
 20
-14944.244859
 30
0.0
 70
0
  0
VERTEX
  5
C7
330
B3
100
AcDbEntity
  8
1
100
AcDbVertex
100
AcDb2dVertex
 10
19509.776611
 20
-14994.326702
 30
0.0
 70
0
  0
VERTEX
  5
C8
330
B3
100
AcDbEntity
  8
1
100
AcDbVertex
100
AcDb2dVertex
 10
19509.776611
 20
-15043.572897
 30
0.0
 70
0
  0
VERTEX
  5
C9
330
B3
100
AcDbEntity
  8
1
100
AcDbVertex
100
AcDb2dVertex
 10
19509.776611
 20
-15053.753662
 30
0.0
 70
0
  0
VERTEX
  5
CA
330
B3
100
AcDbEntity
  8
1
100
AcDbVertex
100
AcDb2dVertex
 10
19506.981141
 20
-15053.754206
 30
0.0
 70
0
  0
VERTEX
  5
CB
330
B3
100
AcDbEntity
  8
1
100
AcDbVertex
100
AcDb2dVertex
 10
19472.577964
 20
-15053.385479
 30
0.0
 70
0
  0
VERTEX
  5
CC
330
B3
100
AcDbEntity
  8
1
100
AcDbVertex
100
AcDb2dVertex
 10
19430.156239
 20
-15051.948852
 30
0.0
 70
0
  0
VERTEX
  5
CD
330
B3
100
AcDbEntity
  8
1
100
AcDbVertex
100
AcDb2dVertex
 10
19385.782126
 20
-15049.551105
 30
0.0
 70
0
  0
VERTEX
  5
CE
330
B3
100
AcDbEntity
  8
1
100
AcDbVertex
100
AcDb2dVertex
 10
19339.480008
 20
-15046.150906
 30
0.0
 70
0
  0
VERTEX
  5
CF
330
B3
100
AcDbEntity
  8
1
100
AcDbVertex
100
AcDb2dVertex
 10
19293.374092
 20
-15041.932967
 30
0.0
 70
0
  0
SEQEND
  5
D0
330
B3
100
AcDbEntity
  8
1
  0
POINT
  5
D1
330
B0
100
AcDbEntity
  8
2
100
AcDbPoint
 10
19244.671631
 20
-15036.450195
 30
0.0
  0
TEXT
  5
D2
330
B0
100
AcDbEntity
  8
2
100
AcDbText
 10
19244.671631
 20
-15036.450195
 30
0.0
 40
0.0
  1
# 17
100
AcDbText
  0
POINT
  5
D3
330
B0
100
AcDbEntity
  8
2
100
AcDbPoint
 10
19261.856689
 20
-14738.303223
 30
0.0
  0
TEXT
  5
D4
330
B0
100
AcDbEntity
  8
2
100
AcDbText
 10
19261.856689
 20
-14738.303223
 30
0.0
 40
0.0
  1
# 18
100
AcDbText
  0
POINT
  5
D5
330
B0
100
AcDbEntity
  8
2
100
AcDbPoint
 10
19385.81665
 20
-14738.303223
 30
0.0
  0
TEXT
  5
D6
330
B0
100
AcDbEntity
  8
2
100
AcDbText
 10
19385.81665
 20
-14738.303223
 30
0.0
 40
0.0
  1
# 19
100
AcDbText
  0
POINT
  5
D7
330
B0
100
AcDbEntity
  8
2
100
AcDbPoint
 10
19509.776611
 20
-14738.303223
 30
0.0
  0
TEXT
  5
D8
330
B0
100
AcDbEntity
  8
2
100
AcDbText
 10
19509.776611
 20
-14738.303223
 30
0.0
 40
0.0
  1
# 20
100
AcDbText
  0
POINT
  5
D9
330
B0
100
AcDbEntity
  8
2
100
AcDbPoint
 10
19509.776611
 20
-15053.753662
 30
0.0
  0
TEXT
  5
DA
330
B0
100
AcDbEntity
  8
2
100
AcDbText
 10
19509.776611
 20
-15053.753662
 30
0.0
 40
0.0
  1
# 21
100
AcDbText
  0
POINT
  5
DB
330
B0
100
AcDbEntity
  8
3
100
AcDbPoint
 10
19246.88512
 20
-14997.790545
 30
0.0
  0
POINT
  5
DC
330
B0
100
AcDbEntity
  8
3
100
AcDbPoint
 10
19249.784109
 20
-14947.195755
 30
0.0
  0
POINT
  5
DD
330
B0
100
AcDbEntity
  8
3
100
AcDbPoint
 10
19252.755473
 20
-14895.486204
 30
0.0
  0
POINT
  5
DE
330
B0
100
AcDbEntity
  8
3
100
AcDbPoint
 10
19255.709686
 20
-14844.267876
 30
0.0
  0
POINT
  5
DF
330
B0
100
AcDbEntity
  8
3
100
AcDbPoint
 10
19258.691054
 20
-14792.785403
 30
0.0
  0
POINT
  5
E0
330
B0
100
AcDbEntity
  8
3
100
AcDbPoint
 10
19323.83667
 20
-14738.303223
 30
0.0
  0
POINT
  5
E1
330
B0
100
AcDbEntity
  8
3
100
AcDbPoint
 10
19323.83667
 20
-14738.303223
 30
0.0
  0
POINT
  5
E2
330
B0
100
AcDbEntity
  8
3
100
AcDbPoint
 10
19374.376986
 20
-14738.303223
 30
0.0
  0
POINT
  5
E3
330
B0
100
AcDbEntity
  8
3
100
AcDbPoint
 10
19447.796631
 20
-14738.303223
 30
0.0
  0
POINT
  5
E4
330
B0
100
AcDbEntity
  8
3
100
AcDbPoint
 10
19447.796631
 20
-14738.303223
 30
0.0
  0
POINT
  5
E5
330
B0
100
AcDbEntity
  8
3
100
AcDbPoint
 10
19498.336947
 20
-14738.303223
 30
0.0
  0
POINT
  5
E6
330
B0
100
AcDbEntity
  8
3
100
AcDbPoint
 10
19509.776611
 20
-14791.520009
 30
0.0
  0
POINT
  5
E7
330
B0
100
AcDbEntity
  8
3
100
AcDbPoint
 10
19509.776611
 20
-14843.450733
 30
0.0
  0
POINT
  5
E8
330
B0
100
AcDbEntity
  8
3
100
AcDbPoint
 10
19509.776611
 20
-14893.543222
 30
0.0
  0
POINT
  5
E9
330
B0
100
AcDbEntity
  8
3
100
AcDbPoint
 10
19509.776611
 20
-14944.244859
 30
0.0
  0
POINT
  5
EA
330
B0
100
AcDbEntity
  8
3
100
AcDbPoint
 10
19509.776611
 20
-14994.326702
 30
0.0
  0
POINT
  5
EB
330
B0
100
AcDbEntity
  8
3
100
AcDbPoint
 10
19509.776611
 20
-15043.572897
 30
0.0
  0
POINT
  5
EC
330
B0
100
AcDbEntity
  8
3
100
AcDbPoint
 10
19506.981141
 20
-15053.754206
 30
0.0
  0
POINT
  5
ED
330
B0
100
AcDbEntity
  8
3
100
AcDbPoint
 10
19472.577964
 20
-15053.385479
 30
0.0
  0
POINT
  5
EE
330
B0
100
AcDbEntity
  8
3
100
AcDbPoint
 10
19430.156239
 20
-15051.948852
 30
0.0
  0
POINT
  5
EF
330
B0
100
AcDbEntity
  8
3
100
AcDbPoint
 10
19385.782126
 20
-15049.551105
 30
0.0
  0
POINT
  5
F0
330
B0
100
AcDbEntity
  8
3
100
AcDbPoint
 10
19339.480008
 20
-15046.150906
 30
0.0
  0
POINT
  5
F1
330
B0
100
AcDbEntity
  8
3
100
AcDbPoint
 10
19293.374092
 20
-15041.932967
 30
0.0
  0
POINT
  5
F2
330
B0
100
AcDbEntity
  8
4
100
AcDbPoint
 10
19323.83667
 20
-14738.303223
 30
3.0
 50
90.0
  0
TEXT
  5
F3
330
B0
100
AcDbEntity
  8
4
100
AcDbText
 10
19323.83667
 20
-14738.303223
 30
0.0
 40
0.0
  1
# 22
100
AcDbText
  0
POINT
  5
F4
330
B0
100
AcDbEntity
  8
4
100
AcDbPoint
 10
19447.796631
 20
-14738.303223
 30
3.0
 50
90.0
  0
TEXT
  5
F5
330
B0
100
AcDbEntity
  8
4
100
AcDbText
 10
19447.796631
 20
-14738.303223
 30
0.0
 40
0.0
  1
# 23
100
AcDbText
  0
POLYLINE
  5
F6
330
B0
100
AcDbEntity
  8
8
100
AcDb2dPolyline
 66
1
 10
0.0
 20
0.0
 30
0.0
 70
0
  0
VERTEX
  5
F7
330
F6
100
AcDbEntity
  8
8
100
AcDbVertex
100
AcDb2dVertex
 10
19245.81665
 20
-15016.455078
 30
0.0
 70
0
  0
VERTEX
  5
F8
330
F6
100
AcDbEntity
  8
8
100
AcDbVertex
100
AcDb2dVertex
 10
19295.797053
 20
-15022.075332
 30
0.0
 70
0
  0
VERTEX
  5
F9
330
F6
100
AcDbEntity
  8
8
100
AcDbVertex
100
AcDb2dVertex
 10
19341.806336
 20
-15026.274165
 30
0.0
 70
0
  0
VERTEX
  5
FA
330
F6
100
AcDbEntity
  8
8
100
AcDbVertex
100
AcDb2dVertex
 10
19388.123015
 20
-15029.659234
 30
0.0
 70
0
  0
VERTEX
  5
FB
330
F6
100
AcDbEntity
  8
8
100
AcDbVertex
100
AcDb2dVertex
 10
19430.372503
 20
-15031.938829
 30
0.0
 70
0
  0
VERTEX
  5
FC
330
F6
100
AcDbEntity
  8
8
100
AcDbVertex
100
AcDb2dVertex
 10
19470.75793
 20
-15033.336508
 30
0.0
 70
0
  0
VERTEX
  5
FD
330
F6
100
AcDbEntity
  8
8
100
AcDbVertex
100
AcDb2dVertex
 10
19504.992631
 20
-15033.751765
 30
0.0
 70
0
  0
VERTEX
  5
FE
330
F6
100
AcDbEntity
  8
8
100
AcDbVertex
100
AcDb2dVertex
 10
19509.776611
 20
-15033.753662
 30
0.0
 70
0
  0
SEQEND
  5
FF
330
F6
100
AcDbEntity
  8
8
  0
POINT
  5
100
330
B0
100
AcDbEntity
  8
2
100
AcDbPoint
 10
19245.81665
 20
-15016.455078
 30
0.0
  0
TEXT
  5
101
330
B0
100
AcDbEntity
  8
2
100
AcDbText
 10
19245.81665
 20
-15016.455078
 30
0.0
 40
0.0
  1
# 24
100
AcDbText
  0
POINT
  5
102
330
B0
100
AcDbEntity
  8
2
100
AcDbPoint
 10
19509.776611
 20
-15033.753662
 30
0.0
  0
TEXT
  5
103
330
B0
100
AcDbEntity
  8
2
100
AcDbText
 10
19509.776611
 20
-15033.753662
 30
0.0
 40
0.0
  1
# 25
100
AcDbText
  0
POINT
  5
104
330
B0
100
AcDbEntity
  8
3
100
AcDbPoint
 10
19295.797053
 20
-15022.075332
 30
0.0
  0
POINT
  5
105
330
B0
100
AcDbEntity
  8
3
100
AcDbPoint
 10
19341.806336
 20
-15026.274165
 30
0.0
  0
POINT
  5
106
330
B0
100
AcDbEntity
  8
3
100
AcDbPoint
 10
19388.123015
 20
-15029.659234
 30
0.0
  0
POINT
  5
107
330
B0
100
AcDbEntity
  8
3
100
AcDbPoint
 10
19430.372503
 20
-15031.938829
 30
0.0
  0
POINT
  5
108
330
B0
100
AcDbEntity
  8
3
100
AcDbPoint
 10
19470.75793
 20
-15033.336508
 30
0.0
  0
POINT
  5
109
330
B0
100
AcDbEntity
  8
3
100
AcDbPoint
 10
19504.992631
 20
-15033.751765
 30
0.0
  0
LINE
  5
10A
330
B0
100
AcDbEntity
  8
7
100
AcDbLine
 10
19391.140137
 20
-14788.07251
 30
0.0
 11
19391.140137
 21
-15018.798828
 31
0.0
  0
TEXT
  5
10B
330
B0
100
AcDbEntity
  8
1
100
AcDbText
 10
19352.486572
 20
-15008.62915
 30
0.0
 40
10.0
  1
还口2cm
 50
354.559668
100
AcDbText
  0
TEXT
  5
10C
330
B0
100
AcDbEntity
  8
1
100
AcDbText
 10
19375.160522
 20
-14907.049561
 30
0.0
 40
10.0
  1
Piece Name: 0AD2.面料_前片右合并件_0AD232.M
100
AcDbText
  0
TEXT
  5
10D
330
B0
100
AcDbEntity
  8
1
100
AcDbText
 10
19375.160522
 20
-14892.049561
 30
0.0
 40
10.0
  1
Size: M
100
AcDbText
  0
TEXT
  5
10E
330
B0
100
AcDbEntity
  8
1
100
AcDbText
 10
19375.160522
 20
-14877.049561
 30
0.0
 40
10.0
  1
Annotation: 
100
AcDbText
  0
TEXT
  5
10F
330
B0
100
AcDbEntity
  8
1
100
AcDbText
 10
19375.160522
 20
-14862.049561
 30
0.0
 40
10.0
  1
Quantity: 1
100
AcDbText
  0
TEXT
  5
110
330
B0
100
AcDbEntity
  8
1
100
AcDbText
 10
19375.160522
 20
-14847.049561
 30
0.0
 40
10.0
  1
Material: 面料
100
AcDbText
  0
TEXT
  5
111
330
B0
100
AcDbEntity
  8
1
100
AcDbText
 10
19375.160522
 20
-14847.049561
 30
0.0
 40
10.0
  1
Category: 1
100
AcDbText
  0
ENDBLK
  5
B2
330
B0
100
AcDbEntity
  8
0
100
AcDbBlockEnd
  0
BLOCK
  5
113
330
112
100
AcDbEntity
  8
0
100
AcDbBlockBegin
  2
0AD2.面料_门筒右合并件.M
 70
0
 10
0.0
 20
0.0
 30
0.0
  3
0AD2.面料_门筒右合并件.M
  1

  0
POLYLINE
  5
115
330
112
100
AcDbEntity
  8
1
100
AcDb2dPolyline
 66
1
 10
0.0
 20
0.0
 30
0.0
 70
1
  0
VERTEX
  5
116
330
115
100
AcDbEntity
  8
1
100
AcDbVertex
100
AcDb2dVertex
 10
19677.807617
 20
-15057.094727
 30
0.0
 70
0
  0
VERTEX
  5
117
330
115
100
AcDbEntity
  8
1
100
AcDbVertex
100
AcDb2dVertex
 10
19650.808105
 20
-15057.094727
 30
0.0
 70
0
  0
VERTEX
  5
118
330
115
100
AcDbEntity
  8
1
100
AcDbVertex
100
AcDb2dVertex
 10
19650.808105
 20
-15028.59976
 30
0.0
 70
0
  0
VERTEX
  5
119
330
115
100
AcDbEntity
  8
1
100
AcDbVertex
100
AcDb2dVertex
 10
19650.808105
 20
-14972.189852
 30
0.0
 70
0
  0
VERTEX
  5
11A
330
115
100
AcDbEntity
  8
1
100
AcDbVertex
100
AcDb2dVertex
 10
19650.808105
 20
-14915.77965
 30
0.0
 70
0
  0
VERTEX
  5
11B
330
115
100
AcDbEntity
  8
1
100
AcDbVertex
100
AcDb2dVertex
 10
19650.808105
 20
-14859.369298
 30
0.0
 70
0
  0
VERTEX
  5
11C
330
115
100
AcDbEntity
  8
1
100
AcDbVertex
100
AcDb2dVertex
 10
19650.808105
 20
-14805.509231
 30
0.0
 70
0
  0
VERTEX
  5
11D
330
115
100
AcDbEntity
  8
1
100
AcDbVertex
100
AcDb2dVertex
 10
19650.808105
 20
-14741.644287
 30
0.0
 70
0
  0
VERTEX
  5
11E
330
115
100
AcDbEntity
  8
1
100
AcDbVertex
100
AcDb2dVertex
 10
19677.807617
 20
-14741.644287
 30
0.0
 70
0
  0
VERTEX
  5
11F
330
115
100
AcDbEntity
  8
1
100
AcDbVertex
100
AcDb2dVertex
 10
19704.807129
 20
-14741.644287
 30
0.0
 70
0
  0
VERTEX
  5
120
330
115
100
AcDbEntity
  8
1
100
AcDbVertex
100
AcDb2dVertex
 10
19731.806641
 20
-14741.644287
 30
0.0
 70
0
  0
VERTEX
  5
121
330
115
100
AcDbEntity
  8
1
100
AcDbVertex
100
AcDb2dVertex
 10
19758.806152
 20
-14741.644287
 30
0.0
 70
0
  0
VERTEX
  5
122
330
115
100
AcDbEntity
  8
1
100
AcDbVertex
100
AcDb2dVertex
 10
19758.806152
 20
-14805.509231
 30
0.0
 70
0
  0
VERTEX
  5
123
330
115
100
AcDbEntity
  8
1
100
AcDbVertex
100
AcDb2dVertex
 10
19758.806152
 20
-14859.369298
 30
0.0
 70
0
  0
VERTEX
  5
124
330
115
100
AcDbEntity
  8
1
100
AcDbVertex
100
AcDb2dVertex
 10
19758.806152
 20
-14915.77965
 30
0.0
 70
0
  0
VERTEX
  5
125
330
115
100
AcDbEntity
  8
1
100
AcDbVertex
100
AcDb2dVertex
 10
19758.806152
 20
-14972.189852
 30
0.0
 70
0
  0
VERTEX
  5
126
330
115
100
AcDbEntity
  8
1
100
AcDbVertex
100
AcDb2dVertex
 10
19758.806152
 20
-15028.59976
 30
0.0
 70
0
  0
VERTEX
  5
127
330
115
100
AcDbEntity
  8
1
100
AcDbVertex
100
AcDb2dVertex
 10
19758.806152
 20
-15057.094727
 30
0.0
 70
0
  0
VERTEX
  5
128
330
115
100
AcDbEntity
  8
1
100
AcDbVertex
100
AcDb2dVertex
 10
19731.806641
 20
-15057.094727
 30
0.0
 70
0
  0
VERTEX
  5
129
330
115
100
AcDbEntity
  8
1
100
AcDbVertex
100
AcDb2dVertex
 10
19704.807129
 20
-15057.094727
 30
0.0
 70
0
  0
SEQEND
  5
12A
330
115
100
AcDbEntity
  8
1
  0
POINT
  5
12B
330
112
100
AcDbEntity
  8
2
100
AcDbPoint
 10
19677.807617
 20
-15057.094727
 30
0.0
  0
TEXT
  5
12C
330
112
100
AcDbEntity
  8
2
100
AcDbText
 10
19677.807617
 20
-15057.094727
 30
0.0
 40
0.0
  1
# 26
100
AcDbText
  0
POINT
  5
12D
330
112
100
AcDbEntity
  8
2
100
AcDbPoint
 10
19650.808105
 20
-15057.094727
 30
0.0
  0
TEXT
  5
12E
330
112
100
AcDbEntity
  8
2
100
AcDbText
 10
19650.808105
 20
-15057.094727
 30
0.0
 40
0.0
  1
# 27
100
AcDbText
  0
POINT
  5
12F
330
112
100
AcDbEntity
  8
2
100
AcDbPoint
 10
19650.808105
 20
-14741.644287
 30
0.0
  0
TEXT
  5
130
330
112
100
AcDbEntity
  8
2
100
AcDbText
 10
19650.808105
 20
-14741.644287
 30
0.0
 40
0.0
  1
# 28
100
AcDbText
  0
POINT
  5
131
330
112
100
AcDbEntity
  8
2
100
AcDbPoint
 10
19677.807617
 20
-14741.644287
 30
0.0
  0
TEXT
  5
132
330
112
100
AcDbEntity
  8
2
100
AcDbText
 10
19677.807617
 20
-14741.644287
 30
0.0
 40
0.0
  1
# 29
100
AcDbText
  0
POINT
  5
133
330
112
100
AcDbEntity
  8
2
100
AcDbPoint
 10
19704.807129
 20
-14741.644287
 30
0.0
  0
TEXT
  5
134
330
112
100
AcDbEntity
  8
2
100
AcDbText
 10
19704.807129
 20
-14741.644287
 30
0.0
 40
0.0
  1
# 30
100
AcDbText
  0
POINT
  5
135
330
112
100
AcDbEntity
  8
2
100
AcDbPoint
 10
19731.806641
 20
-14741.644287
 30
0.0
  0
TEXT
  5
136
330
112
100
AcDbEntity
  8
2
100
AcDbText
 10
19731.806641
 20
-14741.644287
 30
0.0
 40
0.0
  1
# 31
100
AcDbText
  0
POINT
  5
137
330
112
100
AcDbEntity
  8
2
100
AcDbPoint
 10
19758.806152
 20
-14741.644287
 30
0.0
  0
TEXT
  5
138
330
112
100
AcDbEntity
  8
2
100
AcDbText
 10
19758.806152
 20
-14741.644287
 30
0.0
 40
0.0
  1
# 32
100
AcDbText
  0
POINT
  5
139
330
112
100
AcDbEntity
  8
2
100
AcDbPoint
 10
19758.806152
 20
-15057.094727
 30
0.0
  0
TEXT
  5
13A
330
112
100
AcDbEntity
  8
2
100
AcDbText
 10
19758.806152
 20
-15057.094727
 30
0.0
 40
0.0
  1
# 33
100
AcDbText
  0
POINT
  5
13B
330
112
100
AcDbEntity
  8
2
100
AcDbPoint
 10
19731.806641
 20
-15057.094727
 30
0.0
  0
TEXT
  5
13C
330
112
100
AcDbEntity
  8
2
100
AcDbText
 10
19731.806641
 20
-15057.094727
 30
0.0
 40
0.0
  1
# 34
100
AcDbText
  0
POINT
  5
13D
330
112
100
AcDbEntity
  8
2
100
AcDbPoint
 10
19704.807129
 20
-15057.094727
 30
0.0
  0
TEXT
  5
13E
330
112
100
AcDbEntity
  8
2
100
AcDbText
 10
19704.807129
 20
-15057.094727
 30
0.0
 40
0.0
  1
# 35
100
AcDbText
  0
POINT
  5
13F
330
112
100
AcDbEntity
  8
3
100
AcDbPoint
 10
19650.808105
 20
-15028.59976
 30
0.0
  0
POINT
  5
140
330
112
100
AcDbEntity
  8
3
100
AcDbPoint
 10
19650.808105
 20
-14972.189852
 30
0.0
  0
POINT
  5
141
330
112
100
AcDbEntity
  8
3
100
AcDbPoint
 10
19650.808105
 20
-14915.77965
 30
0.0
  0
POINT
  5
142
330
112
100
AcDbEntity
  8
3
100
AcDbPoint
 10
19650.808105
 20
-14859.369298
 30
0.0
  0
POINT
  5
143
330
112
100
AcDbEntity
  8
3
100
AcDbPoint
 10
19650.808105
 20
-14805.509231
 30
0.0
  0
POINT
  5
144
330
112
100
AcDbEntity
  8
3
100
AcDbPoint
 10
19758.806152
 20
-14805.509231
 30
0.0
  0
POINT
  5
145
330
112
100
AcDbEntity
  8
3
100
AcDbPoint
 10
19758.806152
 20
-14859.369298
 30
0.0
  0
POINT
  5
146
330
112
100
AcDbEntity
  8
3
100
AcDbPoint
 10
19758.806152
 20
-14915.77965
 30
0.0
  0
POINT
  5
147
330
112
100
AcDbEntity
  8
3
100
AcDbPoint
 10
19758.806152
 20
-14972.189852
 30
0.0
  0
POINT
  5
148
330
112
100
AcDbEntity
  8
3
100
AcDbPoint
 10
19758.806152
 20
-15028.59976
 30
0.0
  0
POLYLINE
  5
149
330
112
100
AcDbEntity
  8
8
100
AcDb2dPolyline
 66
1
 10
0.0
 20
0.0
 30
0.0
 70
0
  0
VERTEX
  5
14A
330
149
100
AcDbEntity
  8
8
100
AcDbVertex
100
AcDb2dVertex
 10
19704.807129
 20
-14741.644287
 30
0.0
 70
0
  0
VERTEX
  5
14B
330
149
100
AcDbEntity
  8
8
100
AcDbVertex
100
AcDb2dVertex
 10
19704.807129
 20
-14796.141823
 30
0.0
 70
0
  0
VERTEX
  5
14C
330
149
100
AcDbEntity
  8
8
100
AcDbVertex
100
AcDb2dVertex
 10
19704.807129
 20
-14848.134078
 30
0.0
 70
0
  0
VERTEX
  5
14D
330
149
100
AcDbEntity
  8
8
100
AcDbVertex
100
AcDb2dVertex
 10
19704.807129
 20
-14899.766054
 30
0.0
 70
0
  0
VERTEX
  5
14E
330
149
100
AcDbEntity
  8
8
100
AcDbVertex
100
AcDb2dVertex
 10
19704.807129
 20
-14950.988573
 30
0.0
 70
0
  0
VERTEX
  5
14F
330
149
100
AcDbEntity
  8
8
100
AcDbVertex
100
AcDb2dVertex
 10
19704.807129
 20
-15002.156532
 30
0.0
 70
0
  0
VERTEX
  5
150
330
149
100
AcDbEntity
  8
8
100
AcDbVertex
100
AcDb2dVertex
 10
19704.807129
 20
-15052.722382
 30
0.0
 70
0
  0
VERTEX
  5
151
330
149
100
AcDbEntity
  8
8
100
AcDbVertex
100
AcDb2dVertex
 10
19704.807129
 20
-15057.094727
 30
0.0
 70
0
  0
SEQEND
  5
152
330
149
100
AcDbEntity
  8
8
  0
POINT
  5
153
330
112
100
AcDbEntity
  8
2
100
AcDbPoint
 10
19704.807129
 20
-14741.644287
 30
0.0
  0
TEXT
  5
154
330
112
100
AcDbEntity
  8
2
100
AcDbText
 10
19704.807129
 20
-14741.644287
 30
0.0
 40
0.0
  1
# 36
100
AcDbText
  0
POINT
  5
155
330
112
100
AcDbEntity
  8
2
100
AcDbPoint
 10
19704.807129
 20
-15057.094727
 30
0.0
  0
TEXT
  5
156
330
112
100
AcDbEntity
  8
2
100
AcDbText
 10
19704.807129
 20
-15057.094727
 30
0.0
 40
0.0
  1
# 37
100
AcDbText
  0
POINT
  5
157
330
112
100
AcDbEntity
  8
3
100
AcDbPoint
 10
19704.807129
 20
-14796.141823
 30
0.0
  0
POINT
  5
158
330
112
100
AcDbEntity
  8
3
100
AcDbPoint
 10
19704.807129
 20
-14848.134078
 30
0.0
  0
POINT
  5
159
330
112
100
AcDbEntity
  8
3
100
AcDbPoint
 10
19704.807129
 20
-14899.766054
 30
0.0
  0
POINT
  5
15A
330
112
100
AcDbEntity
  8
3
100
AcDbPoint
 10
19704.807129
 20
-14950.988573
 30
0.0
  0
POINT
  5
15B
330
112
100
AcDbEntity
  8
3
100
AcDbPoint
 10
19704.807129
 20
-15002.156532
 30
0.0
  0
POINT
  5
15C
330
112
100
AcDbEntity
  8
3
100
AcDbPoint
 10
19704.807129
 20
-15052.722382
 30
0.0
  0
POLYLINE
  5
15D
330
112
100
AcDbEntity
  8
8
100
AcDb2dPolyline
 66
1
 10
0.0
 20
0.0
 30
0.0
 70
0
  0
VERTEX
  5
15E
330
15D
100
AcDbEntity
  8
8
100
AcDbVertex
100
AcDb2dVertex
 10
19677.807617
 20
-14741.644287
 30
0.0
 70
0
  0
VERTEX
  5
15F
330
15D
100
AcDbEntity
  8
8
100
AcDbVertex
100
AcDb2dVertex
 10
19677.807617
 20
-14796.106114
 30
0.0
 70
0
  0
VERTEX
  5
160
330
15D
100
AcDbEntity
  8
8
100
AcDbVertex
100
AcDb2dVertex
 10
19677.807617
 20
-14847.938429
 30
0.0
 70
0
  0
VERTEX
  5
161
330
15D
100
AcDbEntity
  8
8
100
AcDbVertex
100
AcDb2dVertex
 10
19677.807617
 20
-14899.765106
 30
0.0
 70
0
  0
VERTEX
  5
162
330
15D
100
AcDbEntity
  8
8
100
AcDbVertex
100
AcDb2dVertex
 10
19677.807617
 20
-14950.986319
 30
0.0
 70
0
  0
VERTEX
  5
163
330
15D
100
AcDbEntity
  8
8
100
AcDbVertex
100
AcDb2dVertex
 10
19677.807617
 20
-15002.15404
 30
0.0
 70
0
  0
VERTEX
  5
164
330
15D
100
AcDbEntity
  8
8
100
AcDbVertex
100
AcDb2dVertex
 10
19677.807617
 20
-15052.721675
 30
0.0
 70
0
  0
VERTEX
  5
165
330
15D
100
AcDbEntity
  8
8
100
AcDbVertex
100
AcDb2dVertex
 10
19677.807617
 20
-15057.094727
 30
0.0
 70
0
  0
SEQEND
  5
166
330
15D
100
AcDbEntity
  8
8
  0
POINT
  5
167
330
112
100
AcDbEntity
  8
2
100
AcDbPoint
 10
19677.807617
 20
-14741.644287
 30
0.0
  0
TEXT
  5
168
330
112
100
AcDbEntity
  8
2
100
AcDbText
 10
19677.807617
 20
-14741.644287
 30
0.0
 40
0.0
  1
# 38
100
AcDbText
  0
POINT
  5
169
330
112
100
AcDbEntity
  8
2
100
AcDbPoint
 10
19677.807617
 20
-15057.094727
 30
0.0
  0
TEXT
  5
16A
330
112
100
AcDbEntity
  8
2
100
AcDbText
 10
19677.807617
 20
-15057.094727
 30
0.0
 40
0.0
  1
# 39
100
AcDbText
  0
POINT
  5
16B
330
112
100
AcDbEntity
  8
3
100
AcDbPoint
 10
19677.807617
 20
-14796.106114
 30
0.0
  0
POINT
  5
16C
330
112
100
AcDbEntity
  8
3
100
AcDbPoint
 10
19677.807617
 20
-14847.938429
 30
0.0
  0
POINT
  5
16D
330
112
100
AcDbEntity
  8
3
100
AcDbPoint
 10
19677.807617
 20
-14899.765106
 30
0.0
  0
POINT
  5
16E
330
112
100
AcDbEntity
  8
3
100
AcDbPoint
 10
19677.807617
 20
-14950.986319
 30
0.0
  0
POINT
  5
16F
330
112
100
AcDbEntity
  8
3
100
AcDbPoint
 10
19677.807617
 20
-15002.15404
 30
0.0
  0
POINT
  5
170
330
112
100
AcDbEntity
  8
3
100
AcDbPoint
 10
19677.807617
 20
-15052.721675
 30
0.0
  0
POLYLINE
  5
171
330
112
100
AcDbEntity
  8
8
100
AcDb2dPolyline
 66
1
 10
0.0
 20
0.0
 30
0.0
 70
0
  0
VERTEX
  5
172
330
171
100
AcDbEntity
  8
8
100
AcDbVertex
100
AcDb2dVertex
 10
19652.30835
 20
-14741.644287
 30
0.0
 70
0
  0
VERTEX
  5
173
330
171
100
AcDbEntity
  8
8
100
AcDbVertex
100
AcDb2dVertex
 10
19652.30835
 20
-14794.822031
 30
0.0
 70
0
  0
VERTEX
  5
174
330
171
100
AcDbEntity
  8
8
100
AcDbVertex
100
AcDb2dVertex
 10
19652.30835
 20
-14844.895912
 30
0.0
 70
0
  0
VERTEX
  5
175
330
171
100
AcDbEntity
  8
8
100
AcDbVertex
100
AcDb2dVertex
 10
19652.30835
 20
-14895.068291
 30
0.0
 70
0
  0
VERTEX
  5
176
330
171
100
AcDbEntity
  8
8
100
AcDbVertex
100
AcDb2dVertex
 10
19652.30835
 20
-14945.85742
 30
0.0
 70
0
  0
VERTEX
  5
177
330
171
100
AcDbEntity
  8
8
100
AcDbVertex
100
AcDb2dVertex
 10
19652.30835
 20
-14995.92481
 30
0.0
 70
0
  0
VERTEX
  5
178
330
171
100
AcDbEntity
  8
8
100
AcDbVertex
100
AcDb2dVertex
 10
19652.30835
 20
-15045.508348
 30
0.0
 70
0
  0
VERTEX
  5
179
330
171
100
AcDbEntity
  8
8
100
AcDbVertex
100
AcDb2dVertex
 10
19652.30835
 20
-15057.094727
 30
0.0
 70
0
  0
SEQEND
  5
17A
330
171
100
AcDbEntity
  8
8
  0
POINT
  5
17B
330
112
100
AcDbEntity
  8
2
100
AcDbPoint
 10
19652.30835
 20
-14741.644287
 30
0.0
  0
TEXT
  5
17C
330
112
100
AcDbEntity
  8
2
100
AcDbText
 10
19652.30835
 20
-14741.644287
 30
0.0
 40
0.0
  1
# 40
100
AcDbText
  0
POINT
  5
17D
330
112
100
AcDbEntity
  8
2
100
AcDbPoint
 10
19652.30835
 20
-15057.094727
 30
0.0
  0
TEXT
  5
17E
330
112
100
AcDbEntity
  8
2
100
AcDbText
 10
19652.30835
 20
-15057.094727
 30
0.0
 40
0.0
  1
# 41
100
AcDbText
  0
POINT
  5
17F
330
112
100
AcDbEntity
  8
3
100
AcDbPoint
 10
19652.30835
 20
-14794.822031
 30
0.0
  0
POINT
  5
180
330
112
100
AcDbEntity
  8
3
100
AcDbPoint
 10
19652.30835
 20
-14844.895912
 30
0.0
  0
POINT
  5
181
330
112
100
AcDbEntity
  8
3
100
AcDbPoint
 10
19652.30835
 20
-14895.068291
 30
0.0
  0
POINT
  5
182
330
112
100
AcDbEntity
  8
3
100
AcDbPoint
 10
19652.30835
 20
-14945.85742
 30
0.0
  0
POINT
  5
183
330
112
100
AcDbEntity
  8
3
100
AcDbPoint
 10
19652.30835
 20
-14995.92481
 30
0.0
  0
POINT
  5
184
330
112
100
AcDbEntity
  8
3
100
AcDbPoint
 10
19652.30835
 20
-15045.508348
 30
0.0
  0
POLYLINE
  5
185
330
112
100
AcDbEntity
  8
8
100
AcDb2dPolyline
 66
1
 10
0.0
 20
0.0
 30
0.0
 70
0
  0
VERTEX
  5
186
330
185
100
AcDbEntity
  8
8
100
AcDbVertex
100
AcDb2dVertex
 10
19731.806641
 20
-14741.644287
 30
0.0
 70
0
  0
VERTEX
  5
187
330
185
100
AcDbEntity
  8
8
100
AcDbVertex
100
AcDb2dVertex
 10
19731.806641
 20
-14796.106114
 30
0.0
 70
0
  0
VERTEX
  5
188
330
185
100
AcDbEntity
  8
8
100
AcDbVertex
100
AcDb2dVertex
 10
19731.806641
 20
-14847.938429
 30
0.0
 70
0
  0
VERTEX
  5
189
330
185
100
AcDbEntity
  8
8
100
AcDbVertex
100
AcDb2dVertex
 10
19731.806641
 20
-14899.765106
 30
0.0
 70
0
  0
VERTEX
  5
18A
330
185
100
AcDbEntity
  8
8
100
AcDbVertex
100
AcDb2dVertex
 10
19731.806641
 20
-14950.986319
 30
0.0
 70
0
  0
VERTEX
  5
18B
330
185
100
AcDbEntity
  8
8
100
AcDbVertex
100
AcDb2dVertex
 10
19731.806641
 20
-15002.15404
 30
0.0
 70
0
  0
VERTEX
  5
18C
330
185
100
AcDbEntity
  8
8
100
AcDbVertex
100
AcDb2dVertex
 10
19731.806641
 20
-15052.721675
 30
0.0
 70
0
  0
VERTEX
  5
18D
330
185
100
AcDbEntity
  8
8
100
AcDbVertex
100
AcDb2dVertex
 10
19731.806641
 20
-15057.094727
 30
0.0
 70
0
  0
SEQEND
  5
18E
330
185
100
AcDbEntity
  8
8
  0
POINT
  5
18F
330
112
100
AcDbEntity
  8
2
100
AcDbPoint
 10
19731.806641
 20
-14741.644287
 30
0.0
  0
TEXT
  5
190
330
112
100
AcDbEntity
  8
2
100
AcDbText
 10
19731.806641
 20
-14741.644287
 30
0.0
 40
0.0
  1
# 42
100
AcDbText
  0
POINT
  5
191
330
112
100
AcDbEntity
  8
2
100
AcDbPoint
 10
19731.806641
 20
-15057.094727
 30
0.0
  0
TEXT
  5
192
330
112
100
AcDbEntity
  8
2
100
AcDbText
 10
19731.806641
 20
-15057.094727
 30
0.0
 40
0.0
  1
# 43
100
AcDbText
  0
POINT
  5
193
330
112
100
AcDbEntity
  8
3
100
AcDbPoint
 10
19731.806641
 20
-14796.106114
 30
0.0
  0
POINT
  5
194
330
112
100
AcDbEntity
  8
3
100
AcDbPoint
 10
19731.806641
 20
-14847.938429
 30
0.0
  0
POINT
  5
195
330
112
100
AcDbEntity
  8
3
100
AcDbPoint
 10
19731.806641
 20
-14899.765106
 30
0.0
  0
POINT
  5
196
330
112
100
AcDbEntity
  8
3
100
AcDbPoint
 10
19731.806641
 20
-14950.986319
 30
0.0
  0
POINT
  5
197
330
112
100
AcDbEntity
  8
3
100
AcDbPoint
 10
19731.806641
 20
-15002.15404
 30
0.0
  0
POINT
  5
198
330
112
100
AcDbEntity
  8
3
100
AcDbPoint
 10
19731.806641
 20
-15052.721675
 30
0.0
  0
POLYLINE
  5
199
330
112
100
AcDbEntity
  8
8
100
AcDb2dPolyline
 66
1
 10
0.0
 20
0.0
 30
0.0
 70
0
  0
VERTEX
  5
19A
330
199
100
AcDbEntity
  8
8
100
AcDbVertex
100
AcDb2dVertex
 10
19757.305908
 20
-14741.644287
 30
0.0
 70
0
  0
VERTEX
  5
19B
330
199
100
AcDbEntity
  8
8
100
AcDbVertex
100
AcDb2dVertex
 10
19757.305908
 20
-14794.822031
 30
0.0
 70
0
  0
VERTEX
  5
19C
330
199
100
AcDbEntity
  8
8
100
AcDbVertex
100
AcDb2dVertex
 10
19757.305908
 20
-14844.895912
 30
0.0
 70
0
  0
VERTEX
  5
19D
330
199
100
AcDbEntity
  8
8
100
AcDbVertex
100
AcDb2dVertex
 10
19757.305908
 20
-14895.068291
 30
0.0
 70
0
  0
VERTEX
  5
19E
330
199
100
AcDbEntity
  8
8
100
AcDbVertex
100
AcDb2dVertex
 10
19757.305908
 20
-14945.85742
 30
0.0
 70
0
  0
VERTEX
  5
19F
330
199
100
AcDbEntity
  8
8
100
AcDbVertex
100
AcDb2dVertex
 10
19757.305908
 20
-14995.92481
 30
0.0
 70
0
  0
VERTEX
  5
1A0
330
199
100
AcDbEntity
  8
8
100
AcDbVertex
100
AcDb2dVertex
 10
19757.305908
 20
-15045.508348
 30
0.0
 70
0
  0
VERTEX
  5
1A1
330
199
100
AcDbEntity
  8
8
100
AcDbVertex
100
AcDb2dVertex
 10
19757.305908
 20
-15057.094727
 30
0.0
 70
0
  0
SEQEND
  5
1A2
330
199
100
AcDbEntity
  8
8
  0
POINT
  5
1A3
330
112
100
AcDbEntity
  8
2
100
AcDbPoint
 10
19757.305908
 20
-14741.644287
 30
0.0
  0
TEXT
  5
1A4
330
112
100
AcDbEntity
  8
2
100
AcDbText
 10
19757.305908
 20
-14741.644287
 30
0.0
 40
0.0
  1
# 44
100
AcDbText
  0
POINT
  5
1A5
330
112
100
AcDbEntity
  8
2
100
AcDbPoint
 10
19757.305908
 20
-15057.094727
 30
0.0
  0
TEXT
  5
1A6
330
112
100
AcDbEntity
  8
2
100
AcDbText
 10
19757.305908
 20
-15057.094727
 30
0.0
 40
0.0
  1
# 45
100
AcDbText
  0
POINT
  5
1A7
330
112
100
AcDbEntity
  8
3
100
AcDbPoint
 10
19757.305908
 20
-14794.822031
 30
0.0
  0
POINT
  5
1A8
330
112
100
AcDbEntity
  8
3
100
AcDbPoint
 10
19757.305908
 20
-14844.895912
 30
0.0
  0
POINT
  5
1A9
330
112
100
AcDbEntity
  8
3
100
AcDbPoint
 10
19757.305908
 20
-14895.068291
 30
0.0
  0
POINT
  5
1AA
330
112
100
AcDbEntity
  8
3
100
AcDbPoint
 10
19757.305908
 20
-14945.85742
 30
0.0
  0
POINT
  5
1AB
330
112
100
AcDbEntity
  8
3
100
AcDbPoint
 10
19757.305908
 20
-14995.92481
 30
0.0
  0
POINT
  5
1AC
330
112
100
AcDbEntity
  8
3
100
AcDbPoint
 10
19757.305908
 20
-15045.508348
 30
0.0
  0
POINT
  5
1AD
330
112
100
AcDbEntity
  8
13
100
AcDbPoint
 10
19718.304443
 20
-14751.428223
 30
0.0
  0
TEXT
  5
1AE
330
112
100
AcDbEntity
  8
13
100
AcDbText
 10
19718.304443
 20
-14751.428223
 30
0.0
 40
0.0
  1
# 46
100
AcDbText
  0
POINT
  5
1AF
330
112
100
AcDbEntity
  8
13
100
AcDbPoint
 10
19718.304443
 20
-14751.428223
 30
0.0
  0
TEXT
  5
1B0
330
112
100
AcDbEntity
  8
13
100
AcDbText
 10
19718.304443
 20
-14751.428223
 30
0.0
 40
0.0
  1
# 47
100
AcDbText
  0
POINT
  5
1B1
330
112
100
AcDbEntity
  8
13
100
AcDbPoint
 10
19718.304443
 20
-14751.428223
 30
0.0
  0
TEXT
  5
1B2
330
112
100
AcDbEntity
  8
13
100
AcDbText
 10
19718.304443
 20
-14751.428223
 30
0.0
 40
0.0
  1
# 48
100
AcDbText
  0
POINT
  5
1B3
330
112
100
AcDbEntity
  8
13
100
AcDbPoint
 10
19718.304443
 20
-14751.428223
 30
0.0
  0
TEXT
  5
1B4
330
112
100
AcDbEntity
  8
13
100
AcDbText
 10
19718.304443
 20
-14751.428223
 30
0.0
 40
0.0
  1
# 49
100
AcDbText
  0
POINT
  5
1B5
330
112
100
AcDbEntity
  8
13
100
AcDbPoint
 10
19718.304443
 20
-14831.422119
 30
0.0
  0
TEXT
  5
1B6
330
112
100
AcDbEntity
  8
13
100
AcDbText
 10
19718.304443
 20
-14831.422119
 30
0.0
 40
0.0
  1
# 50
100
AcDbText
  0
POINT
  5
1B7
330
112
100
AcDbEntity
  8
13
100
AcDbPoint
 10
19718.304443
 20
-14831.422119
 30
0.0
  0
TEXT
  5
1B8
330
112
100
AcDbEntity
  8
13
100
AcDbText
 10
19718.304443
 20
-14831.422119
 30
0.0
 40
0.0
  1
# 51
100
AcDbText
  0
POINT
  5
1B9
330
112
100
AcDbEntity
  8
13
100
AcDbPoint
 10
19718.304443
 20
-14831.422119
 30
0.0
  0
TEXT
  5
1BA
330
112
100
AcDbEntity
  8
13
100
AcDbText
 10
19718.304443
 20
-14831.422119
 30
0.0
 40
0.0
  1
# 52
100
AcDbText
  0
POINT
  5
1BB
330
112
100
AcDbEntity
  8
13
100
AcDbPoint
 10
19718.304443
 20
-14831.422119
 30
0.0
  0
TEXT
  5
1BC
330
112
100
AcDbEntity
  8
13
100
AcDbText
 10
19718.304443
 20
-14831.422119
 30
0.0
 40
0.0
  1
# 53
100
AcDbText
  0
POINT
  5
1BD
330
112
100
AcDbEntity
  8
13
100
AcDbPoint
 10
19718.304443
 20
-14911.419678
 30
0.0
  0
TEXT
  5
1BE
330
112
100
AcDbEntity
  8
13
100
AcDbText
 10
19718.304443
 20
-14911.419678
 30
0.0
 40
0.0
  1
# 54
100
AcDbText
  0
POINT
  5
1BF
330
112
100
AcDbEntity
  8
13
100
AcDbPoint
 10
19718.304443
 20
-14911.419678
 30
0.0
  0
TEXT
  5
1C0
330
112
100
AcDbEntity
  8
13
100
AcDbText
 10
19718.304443
 20
-14911.419678
 30
0.0
 40
0.0
  1
# 55
100
AcDbText
  0
POINT
  5
1C1
330
112
100
AcDbEntity
  8
13
100
AcDbPoint
 10
19718.304443
 20
-14911.419678
 30
0.0
  0
TEXT
  5
1C2
330
112
100
AcDbEntity
  8
13
100
AcDbText
 10
19718.304443
 20
-14911.419678
 30
0.0
 40
0.0
  1
# 56
100
AcDbText
  0
POINT
  5
1C3
330
112
100
AcDbEntity
  8
13
100
AcDbPoint
 10
19718.304443
 20
-14911.419678
 30
0.0
  0
TEXT
  5
1C4
330
112
100
AcDbEntity
  8
13
100
AcDbText
 10
19718.304443
 20
-14911.419678
 30
0.0
 40
0.0
  1
# 57
100
AcDbText
  0
POINT
  5
1C5
330
112
100
AcDbEntity
  8
13
100
AcDbPoint
 10
19745.305176
 20
-14751.428223
 30
0.0
  0
TEXT
  5
1C6
330
112
100
AcDbEntity
  8
13
100
AcDbText
 10
19745.305176
 20
-14751.428223
 30
0.0
 40
0.0
  1
# 58
100
AcDbText
  0
POINT
  5
1C7
330
112
100
AcDbEntity
  8
13
100
AcDbPoint
 10
19745.305176
 20
-14751.428223
 30
0.0
  0
TEXT
  5
1C8
330
112
100
AcDbEntity
  8
13
100
AcDbText
 10
19745.305176
 20
-14751.428223
 30
0.0
 40
0.0
  1
# 59
100
AcDbText
  0
POINT
  5
1C9
330
112
100
AcDbEntity
  8
13
100
AcDbPoint
 10
19745.305176
 20
-14751.428223
 30
0.0
  0
TEXT
  5
1CA
330
112
100
AcDbEntity
  8
13
100
AcDbText
 10
19745.305176
 20
-14751.428223
 30
0.0
 40
0.0
  1
# 60
100
AcDbText
  0
POINT
  5
1CB
330
112
100
AcDbEntity
  8
13
100
AcDbPoint
 10
19745.305176
 20
-14751.428223
 30
0.0
  0
TEXT
  5
1CC
330
112
100
AcDbEntity
  8
13
100
AcDbText
 10
19745.305176
 20
-14751.428223
 30
0.0
 40
0.0
  1
# 61
100
AcDbText
  0
POINT
  5
1CD
330
112
100
AcDbEntity
  8
13
100
AcDbPoint
 10
19745.305176
 20
-14831.422119
 30
0.0
  0
TEXT
  5
1CE
330
112
100
AcDbEntity
  8
13
100
AcDbText
 10
19745.305176
 20
-14831.422119
 30
0.0
 40
0.0
  1
# 62
100
AcDbText
  0
POINT
  5
1CF
330
112
100
AcDbEntity
  8
13
100
AcDbPoint
 10
19745.305176
 20
-14831.422119
 30
0.0
  0
TEXT
  5
1D0
330
112
100
AcDbEntity
  8
13
100
AcDbText
 10
19745.305176
 20
-14831.422119
 30
0.0
 40
0.0
  1
# 63
100
AcDbText
  0
POINT
  5
1D1
330
112
100
AcDbEntity
  8
13
100
AcDbPoint
 10
19745.305176
 20
-14831.422119
 30
0.0
  0
TEXT
  5
1D2
330
112
100
AcDbEntity
  8
13
100
AcDbText
 10
19745.305176
 20
-14831.422119
 30
0.0
 40
0.0
  1
# 64
100
AcDbText
  0
POINT
  5
1D3
330
112
100
AcDbEntity
  8
13
100
AcDbPoint
 10
19745.305176
 20
-14831.422119
 30
0.0
  0
TEXT
  5
1D4
330
112
100
AcDbEntity
  8
13
100
AcDbText
 10
19745.305176
 20
-14831.422119
 30
0.0
 40
0.0
  1
# 65
100
AcDbText
  0
POINT
  5
1D5
330
112
100
AcDbEntity
  8
13
100
AcDbPoint
 10
19745.305176
 20
-14911.419678
 30
0.0
  0
TEXT
  5
1D6
330
112
100
AcDbEntity
  8
13
100
AcDbText
 10
19745.305176
 20
-14911.419678
 30
0.0
 40
0.0
  1
# 66
100
AcDbText
  0
POINT
  5
1D7
330
112
100
AcDbEntity
  8
13
100
AcDbPoint
 10
19745.305176
 20
-14911.419678
 30
0.0
  0
TEXT
  5
1D8
330
112
100
AcDbEntity
  8
13
100
AcDbText
 10
19745.305176
 20
-14911.419678
 30
0.0
 40
0.0
  1
# 67
100
AcDbText
  0
POINT
  5
1D9
330
112
100
AcDbEntity
  8
13
100
AcDbPoint
 10
19745.305176
 20
-14911.419678
 30
0.0
  0
TEXT
  5
1DA
330
112
100
AcDbEntity
  8
13
100
AcDbText
 10
19745.305176
 20
-14911.419678
 30
0.0
 40
0.0
  1
# 68
100
AcDbText
  0
POINT
  5
1DB
330
112
100
AcDbEntity
  8
13
100
AcDbPoint
 10
19745.305176
 20
-14911.419678
 30
0.0
  0
TEXT
  5
1DC
330
112
100
AcDbEntity
  8
13
100
AcDbText
 10
19745.305176
 20
-14911.419678
 30
0.0
 40
0.0
  1
# 69
100
AcDbText
  0
POINT
  5
1DD
330
112
100
AcDbEntity
  8
13
100
AcDbPoint
 10
19718.304443
 20
-14991.419678
 30
0.0
  0
TEXT
  5
1DE
330
112
100
AcDbEntity
  8
13
100
AcDbText
 10
19718.304443
 20
-14991.419678
 30
0.0
 40
0.0
  1
# 70
100
AcDbText
  0
POINT
  5
1DF
330
112
100
AcDbEntity
  8
13
100
AcDbPoint
 10
19718.304443
 20
-14991.419678
 30
0.0
  0
TEXT
  5
1E0
330
112
100
AcDbEntity
  8
13
100
AcDbText
 10
19718.304443
 20
-14991.419678
 30
0.0
 40
0.0
  1
# 71
100
AcDbText
  0
POINT
  5
1E1
330
112
100
AcDbEntity
  8
13
100
AcDbPoint
 10
19718.304443
 20
-14991.419678
 30
0.0
  0
TEXT
  5
1E2
330
112
100
AcDbEntity
  8
13
100
AcDbText
 10
19718.304443
 20
-14991.419678
 30
0.0
 40
0.0
  1
# 72
100
AcDbText
  0
POINT
  5
1E3
330
112
100
AcDbEntity
  8
13
100
AcDbPoint
 10
19718.304443
 20
-14991.419678
 30
0.0
  0
TEXT
  5
1E4
330
112
100
AcDbEntity
  8
13
100
AcDbText
 10
19718.304443
 20
-14991.419678
 30
0.0
 40
0.0
  1
# 73
100
AcDbText
  0
POINT
  5
1E5
330
112
100
AcDbEntity
  8
13
100
AcDbPoint
 10
19745.305176
 20
-14991.419678
 30
0.0
  0
TEXT
  5
1E6
330
112
100
AcDbEntity
  8
13
100
AcDbText
 10
19745.305176
 20
-14991.419678
 30
0.0
 40
0.0
  1
# 74
100
AcDbText
  0
POINT
  5
1E7
330
112
100
AcDbEntity
  8
13
100
AcDbPoint
 10
19745.305176
 20
-14991.419678
 30
0.0
  0
TEXT
  5
1E8
330
112
100
AcDbEntity
  8
13
100
AcDbText
 10
19745.305176
 20
-14991.419678
 30
0.0
 40
0.0
  1
# 75
100
AcDbText
  0
POINT
  5
1E9
330
112
100
AcDbEntity
  8
13
100
AcDbPoint
 10
19745.305176
 20
-14991.419678
 30
0.0
  0
TEXT
  5
1EA
330
112
100
AcDbEntity
  8
13
100
AcDbText
 10
19745.305176
 20
-14991.419678
 30
0.0
 40
0.0
  1
# 76
100
AcDbText
  0
POINT
  5
1EB
330
112
100
AcDbEntity
  8
13
100
AcDbPoint
 10
19745.305176
 20
-14991.419678
 30
0.0
  0
TEXT
  5
1EC
330
112
100
AcDbEntity
  8
13
100
AcDbText
 10
19745.305176
 20
-14991.419678
 30
0.0
 40
0.0
  1
# 77
100
AcDbText
  0
LINE
  5
1ED
330
112
100
AcDbEntity
  8
7
100
AcDbLine
 10
19698.184814
 20
-14771.05957
 30
0.0
 11
19698.184814
 21
-15034.454346
 31
0.0
  0
TEXT
  5
1EE
330
112
100
AcDbEntity
  8
1
100
AcDbText
 10
19704.807129
 20
-14899.369507
 30
0.0
 40
10.0
  1
Piece Name: 0AD2.面料_门筒右合并件_0AD235.M
100
AcDbText
  0
TEXT
  5
1EF
330
112
100
AcDbEntity
  8
1
100
AcDbText
 10
19704.807129
 20
-14884.369507
 30
0.0
 40
10.0
  1
Size: M
100
AcDbText
  0
TEXT
  5
1F0
330
112
100
AcDbEntity
  8
1
100
AcDbText
 10
19704.807129
 20
-14869.369507
 30
0.0
 40
10.0
  1
Annotation: 
100
AcDbText
  0
TEXT
  5
1F1
330
112
100
AcDbEntity
  8
1
100
AcDbText
 10
19704.807129
 20
-14854.369507
 30
0.0
 40
10.0
  1
Quantity: 1
100
AcDbText
  0
TEXT
  5
1F2
330
112
100
AcDbEntity
  8
1
100
AcDbText
 10
19704.807129
 20
-14839.369507
 30
0.0
 40
10.0
  1
Material: 面料
100
AcDbText
  0
TEXT
  5
1F3
330
112
100
AcDbEntity
  8
1
100
AcDbText
 10
19704.807129
 20
-14839.369507
 30
0.0
 40
10.0
  1
Category: 2
100
AcDbText
  0
ENDBLK
  5
114
330
112
100
AcDbEntity
  8
0
100
AcDbBlockEnd
  0
BLOCK
  5
1F5
330
1F4
100
AcDbEntity
  8
0
100
AcDbBlockBegin
  2
0AD2.面料_门筒左合并件.M
 70
0
 10
0.0
 20
0.0
 30
0.0
  3
0AD2.面料_门筒左合并件.M
  1

  0
POLYLINE
  5
1F7
330
1F4
100
AcDbEntity
  8
1
100
AcDb2dPolyline
 66
1
 10
0.0
 20
0.0
 30
0.0
 70
1
  0
VERTEX
  5
1F8
330
1F7
100
AcDbEntity
  8
1
100
AcDbVertex
100
AcDb2dVertex
 10
20168.112793
 20
-15054.978027
 30
0.0
 70
0
  0
VERTEX
  5
1F9
330
1F7
100
AcDbEntity
  8
1
100
AcDbVertex
100
AcDb2dVertex
 10
20141.113281
 20
-15054.978027
 30
0.0
 70
0
  0
VERTEX
  5
1FA
330
1F7
100
AcDbEntity
  8
1
100
AcDbVertex
100
AcDb2dVertex
 10
20141.113281
 20
-15050.604976
 30
0.0
 70
0
  0
VERTEX
  5
1FB
330
1F7
100
AcDbEntity
  8
1
100
AcDbVertex
100
AcDb2dVertex
 10
20141.113281
 20
-15000.037341
 30
0.0
 70
0
  0
VERTEX
  5
1FC
330
1F7
100
AcDbEntity
  8
1
100
AcDbVertex
100
AcDb2dVertex
 10
20141.113281
 20
-14948.869619
 30
0.0
 70
0
  0
VERTEX
  5
1FD
330
1F7
100
AcDbEntity
  8
1
100
AcDbVertex
100
AcDb2dVertex
 10
20141.113281
 20
-14897.648407
 30
0.0
 70
0
  0
VERTEX
  5
1FE
330
1F7
100
AcDbEntity
  8
1
100
AcDbVertex
100
AcDb2dVertex
 10
20141.113281
 20
-14845.821729
 30
0.0
 70
0
  0
VERTEX
  5
1FF
330
1F7
100
AcDbEntity
  8
1
100
AcDbVertex
100
AcDb2dVertex
 10
20141.113281
 20
-14793.989415
 30
0.0
 70
0
  0
VERTEX
  5
200
330
1F7
100
AcDbEntity
  8
1
100
AcDbVertex
100
AcDb2dVertex
 10
20141.113281
 20
-14739.527588
 30
0.0
 70
0
  0
VERTEX
  5
201
330
1F7
100
AcDbEntity
  8
1
100
AcDbVertex
100
AcDb2dVertex
 10
20168.112793
 20
-14739.527588
 30
0.0
 70
0
  0
VERTEX
  5
202
330
1F7
100
AcDbEntity
  8
1
100
AcDbVertex
100
AcDb2dVertex
 10
20195.112305
 20
-14739.527588
 30
0.0
 70
0
  0
VERTEX
  5
203
330
1F7
100
AcDbEntity
  8
1
100
AcDbVertex
100
AcDb2dVertex
 10
20195.112305
 20
-14793.989415
 30
0.0
 70
0
  0
VERTEX
  5
204
330
1F7
100
AcDbEntity
  8
1
100
AcDbVertex
100
AcDb2dVertex
 10
20195.112305
 20
-14845.821729
 30
0.0
 70
0
  0
VERTEX
  5
205
330
1F7
100
AcDbEntity
  8
1
100
AcDbVertex
100
AcDb2dVertex
 10
20195.112305
 20
-14897.648407
 30
0.0
 70
0
  0
VERTEX
  5
206
330
1F7
100
AcDbEntity
  8
1
100
AcDbVertex
100
AcDb2dVertex
 10
20195.112305
 20
-14948.869619
 30
0.0
 70
0
  0
VERTEX
  5
207
330
1F7
100
AcDbEntity
  8
1
100
AcDbVertex
100
AcDb2dVertex
 10
20195.112305
 20
-15000.037341
 30
0.0
 70
0
  0
VERTEX
  5
208
330
1F7
100
AcDbEntity
  8
1
100
AcDbVertex
100
AcDb2dVertex
 10
20195.112305
 20
-15050.604976
 30
0.0
 70
0
  0
VERTEX
  5
209
330
1F7
100
AcDbEntity
  8
1
100
AcDbVertex
100
AcDb2dVertex
 10
20195.112305
 20
-15054.978027
 30
0.0
 70
0
  0
SEQEND
  5
20A
330
1F7
100
AcDbEntity
  8
1
  0
POINT
  5
20B
330
1F4
100
AcDbEntity
  8
2
100
AcDbPoint
 10
20168.112793
 20
-15054.978027
 30
0.0
  0
TEXT
  5
20C
330
1F4
100
AcDbEntity
  8
2
100
AcDbText
 10
20168.112793
 20
-15054.978027
 30
0.0
 40
0.0
  1
# 78
100
AcDbText
  0
POINT
  5
20D
330
1F4
100
AcDbEntity
  8
2
100
AcDbPoint
 10
20141.113281
 20
-15054.978027
 30
0.0
  0
TEXT
  5
20E
330
1F4
100
AcDbEntity
  8
2
100
AcDbText
 10
20141.113281
 20
-15054.978027
 30
0.0
 40
0.0
  1
# 79
100
AcDbText
  0
POINT
  5
20F
330
1F4
100
AcDbEntity
  8
2
100
AcDbPoint
 10
20141.113281
 20
-14739.527588
 30
0.0
  0
TEXT
  5
210
330
1F4
100
AcDbEntity
  8
2
100
AcDbText
 10
20141.113281
 20
-14739.527588
 30
0.0
 40
0.0
  1
# 80
100
AcDbText
  0
POINT
  5
211
330
1F4
100
AcDbEntity
  8
2
100
AcDbPoint
 10
20168.112793
 20
-14739.527588
 30
0.0
  0
TEXT
  5
212
330
1F4
100
AcDbEntity
  8
2
100
AcDbText
 10
20168.112793
 20
-14739.527588
 30
0.0
 40
0.0
  1
# 81
100
AcDbText
  0
POINT
  5
213
330
1F4
100
AcDbEntity
  8
2
100
AcDbPoint
 10
20195.112305
 20
-14739.527588
 30
0.0
  0
TEXT
  5
214
330
1F4
100
AcDbEntity
  8
2
100
AcDbText
 10
20195.112305
 20
-14739.527588
 30
0.0
 40
0.0
  1
# 82
100
AcDbText
  0
POINT
  5
215
330
1F4
100
AcDbEntity
  8
2
100
AcDbPoint
 10
20195.112305
 20
-15054.978027
 30
0.0
  0
TEXT
  5
216
330
1F4
100
AcDbEntity
  8
2
100
AcDbText
 10
20195.112305
 20
-15054.978027
 30
0.0
 40
0.0
  1
# 83
100
AcDbText
  0
POINT
  5
217
330
1F4
100
AcDbEntity
  8
3
100
AcDbPoint
 10
20141.113281
 20
-15050.604976
 30
0.0
  0
POINT
  5
218
330
1F4
100
AcDbEntity
  8
3
100
AcDbPoint
 10
20141.113281
 20
-15000.037341
 30
0.0
  0
POINT
  5
219
330
1F4
100
AcDbEntity
  8
3
100
AcDbPoint
 10
20141.113281
 20
-14948.869619
 30
0.0
  0
POINT
  5
21A
330
1F4
100
AcDbEntity
  8
3
100
AcDbPoint
 10
20141.113281
 20
-14897.648407
 30
0.0
  0
POINT
  5
21B
330
1F4
100
AcDbEntity
  8
3
100
AcDbPoint
 10
20141.113281
 20
-14845.821729
 30
0.0
  0
POINT
  5
21C
330
1F4
100
AcDbEntity
  8
3
100
AcDbPoint
 10
20141.113281
 20
-14793.989415
 30
0.0
  0
POINT
  5
21D
330
1F4
100
AcDbEntity
  8
3
100
AcDbPoint
 10
20195.112305
 20
-14793.989415
 30
0.0
  0
POINT
  5
21E
330
1F4
100
AcDbEntity
  8
3
100
AcDbPoint
 10
20195.112305
 20
-14845.821729
 30
0.0
  0
POINT
  5
21F
330
1F4
100
AcDbEntity
  8
3
100
AcDbPoint
 10
20195.112305
 20
-14897.648407
 30
0.0
  0
POINT
  5
220
330
1F4
100
AcDbEntity
  8
3
100
AcDbPoint
 10
20195.112305
 20
-14948.869619
 30
0.0
  0
POINT
  5
221
330
1F4
100
AcDbEntity
  8
3
100
AcDbPoint
 10
20195.112305
 20
-15000.037341
 30
0.0
  0
POINT
  5
222
330
1F4
100
AcDbEntity
  8
3
100
AcDbPoint
 10
20195.112305
 20
-15050.604976
 30
0.0
  0
POLYLINE
  5
223
330
1F4
100
AcDbEntity
  8
8
100
AcDb2dPolyline
 66
1
 10
0.0
 20
0.0
 30
0.0
 70
0
  0
VERTEX
  5
224
330
223
100
AcDbEntity
  8
8
100
AcDbVertex
100
AcDb2dVertex
 10
20168.112793
 20
-14739.527588
 30
0.0
 70
0
  0
VERTEX
  5
225
330
223
100
AcDbEntity
  8
8
100
AcDbVertex
100
AcDb2dVertex
 10
20168.112793
 20
-14794.025124
 30
0.0
 70
0
  0
VERTEX
  5
226
330
223
100
AcDbEntity
  8
8
100
AcDbVertex
100
AcDb2dVertex
 10
20168.112793
 20
-14846.017379
 30
0.0
 70
0
  0
VERTEX
  5
227
330
223
100
AcDbEntity
  8
8
100
AcDbVertex
100
AcDb2dVertex
 10
20168.112793
 20
-14897.649355
 30
0.0
 70
0
  0
VERTEX
  5
228
330
223
100
AcDbEntity
  8
8
100
AcDbVertex
100
AcDb2dVertex
 10
20168.112793
 20
-14948.871874
 30
0.0
 70
0
  0
VERTEX
  5
229
330
223
100
AcDbEntity
  8
8
100
AcDbVertex
100
AcDb2dVertex
 10
20168.112793
 20
-15000.039833
 30
0.0
 70
0
  0
VERTEX
  5
22A
330
223
100
AcDbEntity
  8
8
100
AcDbVertex
100
AcDb2dVertex
 10
20168.112793
 20
-15050.605683
 30
0.0
 70
0
  0
VERTEX
  5
22B
330
223
100
AcDbEntity
  8
8
100
AcDbVertex
100
AcDb2dVertex
 10
20168.112793
 20
-15054.978027
 30
0.0
 70
0
  0
SEQEND
  5
22C
330
223
100
AcDbEntity
  8
8
  0
POINT
  5
22D
330
1F4
100
AcDbEntity
  8
2
100
AcDbPoint
 10
20168.112793
 20
-14739.527588
 30
0.0
  0
TEXT
  5
22E
330
1F4
100
AcDbEntity
  8
2
100
AcDbText
 10
20168.112793
 20
-14739.527588
 30
0.0
 40
0.0
  1
# 84
100
AcDbText
  0
POINT
  5
22F
330
1F4
100
AcDbEntity
  8
2
100
AcDbPoint
 10
20168.112793
 20
-15054.978027
 30
0.0
  0
TEXT
  5
230
330
1F4
100
AcDbEntity
  8
2
100
AcDbText
 10
20168.112793
 20
-15054.978027
 30
0.0
 40
0.0
  1
# 85
100
AcDbText
  0
POINT
  5
231
330
1F4
100
AcDbEntity
  8
3
100
AcDbPoint
 10
20168.112793
 20
-14794.025124
 30
0.0
  0
POINT
  5
232
330
1F4
100
AcDbEntity
  8
3
100
AcDbPoint
 10
20168.112793
 20
-14846.017379
 30
0.0
  0
POINT
  5
233
330
1F4
100
AcDbEntity
  8
3
100
AcDbPoint
 10
20168.112793
 20
-14897.649355
 30
0.0
  0
POINT
  5
234
330
1F4
100
AcDbEntity
  8
3
100
AcDbPoint
 10
20168.112793
 20
-14948.871874
 30
0.0
  0
POINT
  5
235
330
1F4
100
AcDbEntity
  8
3
100
AcDbPoint
 10
20168.112793
 20
-15000.039833
 30
0.0
  0
POINT
  5
236
330
1F4
100
AcDbEntity
  8
3
100
AcDbPoint
 10
20168.112793
 20
-15050.605683
 30
0.0
  0
POLYLINE
  5
237
330
1F4
100
AcDbEntity
  8
8
100
AcDb2dPolyline
 66
1
 10
0.0
 20
0.0
 30
0.0
 70
0
  0
VERTEX
  5
238
330
237
100
AcDbEntity
  8
8
100
AcDbVertex
100
AcDb2dVertex
 10
20193.612061
 20
-14739.527588
 30
0.0
 70
0
  0
VERTEX
  5
239
330
237
100
AcDbEntity
  8
8
100
AcDbVertex
100
AcDb2dVertex
 10
20193.612061
 20
-14792.543135
 30
0.0
 70
0
  0
VERTEX
  5
23A
330
237
100
AcDbEntity
  8
8
100
AcDbVertex
100
AcDb2dVertex
 10
20193.612061
 20
-14842.656495
 30
0.0
 70
0
  0
VERTEX
  5
23B
330
237
100
AcDbEntity
  8
8
100
AcDbVertex
100
AcDb2dVertex
 10
20193.612061
 20
-14892.667508
 30
0.0
 70
0
  0
VERTEX
  5
23C
330
237
100
AcDbEntity
  8
8
100
AcDbVertex
100
AcDb2dVertex
 10
20193.612061
 20
-14945.509408
 30
0.0
 70
0
  0
VERTEX
  5
23D
330
237
100
AcDbEntity
  8
8
100
AcDbVertex
100
AcDb2dVertex
 10
20193.612061
 20
-14995.540088
 30
0.0
 70
0
  0
VERTEX
  5
23E
330
237
100
AcDbEntity
  8
8
100
AcDbVertex
100
AcDb2dVertex
 10
20193.612061
 20
-15044.789493
 30
0.0
 70
0
  0
VERTEX
  5
23F
330
237
100
AcDbEntity
  8
8
100
AcDbVertex
100
AcDb2dVertex
 10
20193.612061
 20
-15054.978027
 30
0.0
 70
0
  0
SEQEND
  5
240
330
237
100
AcDbEntity
  8
8
  0
POINT
  5
241
330
1F4
100
AcDbEntity
  8
2
100
AcDbPoint
 10
20193.612061
 20
-14739.527588
 30
0.0
  0
TEXT
  5
242
330
1F4
100
AcDbEntity
  8
2
100
AcDbText
 10
20193.612061
 20
-14739.527588
 30
0.0
 40
0.0
  1
# 86
100
AcDbText
  0
POINT
  5
243
330
1F4
100
AcDbEntity
  8
2
100
AcDbPoint
 10
20193.612061
 20
-15054.978027
 30
0.0
  0
TEXT
  5
244
330
1F4
100
AcDbEntity
  8
2
100
AcDbText
 10
20193.612061
 20
-15054.978027
 30
0.0
 40
0.0
  1
# 87
100
AcDbText
  0
POINT
  5
245
330
1F4
100
AcDbEntity
  8
3
100
AcDbPoint
 10
20193.612061
 20
-14792.543135
 30
0.0
  0
POINT
  5
246
330
1F4
100
AcDbEntity
  8
3
100
AcDbPoint
 10
20193.612061
 20
-14842.656495
 30
0.0
  0
POINT
  5
247
330
1F4
100
AcDbEntity
  8
3
100
AcDbPoint
 10
20193.612061
 20
-14892.667508
 30
0.0
  0
POINT
  5
248
330
1F4
100
AcDbEntity
  8
3
100
AcDbPoint
 10
20193.612061
 20
-14945.509408
 30
0.0
  0
POINT
  5
249
330
1F4
100
AcDbEntity
  8
3
100
AcDbPoint
 10
20193.612061
 20
-14995.540088
 30
0.0
  0
POINT
  5
24A
330
1F4
100
AcDbEntity
  8
3
100
AcDbPoint
 10
20193.612061
 20
-15044.789493
 30
0.0
  0
POLYLINE
  5
24B
330
1F4
100
AcDbEntity
  8
8
100
AcDb2dPolyline
 66
1
 10
0.0
 20
0.0
 30
0.0
 70
0
  0
VERTEX
  5
24C
330
24B
100
AcDbEntity
  8
8
100
AcDbVertex
100
AcDb2dVertex
 10
20142.613525
 20
-14739.527588
 30
0.0
 70
0
  0
VERTEX
  5
24D
330
24B
100
AcDbEntity
  8
8
100
AcDbVertex
100
AcDb2dVertex
 10
20142.613525
 20
-14792.543135
 30
0.0
 70
0
  0
VERTEX
  5
24E
330
24B
100
AcDbEntity
  8
8
100
AcDbVertex
100
AcDb2dVertex
 10
20142.613525
 20
-14842.656495
 30
0.0
 70
0
  0
VERTEX
  5
24F
330
24B
100
AcDbEntity
  8
8
100
AcDbVertex
100
AcDb2dVertex
 10
20142.613525
 20
-14892.667508
 30
0.0
 70
0
  0
VERTEX
  5
250
330
24B
100
AcDbEntity
  8
8
100
AcDbVertex
100
AcDb2dVertex
 10
20142.613525
 20
-14945.509408
 30
0.0
 70
0
  0
VERTEX
  5
251
330
24B
100
AcDbEntity
  8
8
100
AcDbVertex
100
AcDb2dVertex
 10
20142.613525
 20
-14995.540088
 30
0.0
 70
0
  0
VERTEX
  5
252
330
24B
100
AcDbEntity
  8
8
100
AcDbVertex
100
AcDb2dVertex
 10
20142.613525
 20
-15044.789493
 30
0.0
 70
0
  0
VERTEX
  5
253
330
24B
100
AcDbEntity
  8
8
100
AcDbVertex
100
AcDb2dVertex
 10
20142.613525
 20
-15054.978027
 30
0.0
 70
0
  0
SEQEND
  5
254
330
24B
100
AcDbEntity
  8
8
  0
POINT
  5
255
330
1F4
100
AcDbEntity
  8
2
100
AcDbPoint
 10
20142.613525
 20
-14739.527588
 30
0.0
  0
TEXT
  5
256
330
1F4
100
AcDbEntity
  8
2
100
AcDbText
 10
20142.613525
 20
-14739.527588
 30
0.0
 40
0.0
  1
# 88
100
AcDbText
  0
POINT
  5
257
330
1F4
100
AcDbEntity
  8
2
100
AcDbPoint
 10
20142.613525
 20
-15054.978027
 30
0.0
  0
TEXT
  5
258
330
1F4
100
AcDbEntity
  8
2
100
AcDbText
 10
20142.613525
 20
-15054.978027
 30
0.0
 40
0.0
  1
# 89
100
AcDbText
  0
POINT
  5
259
330
1F4
100
AcDbEntity
  8
3
100
AcDbPoint
 10
20142.613525
 20
-14792.543135
 30
0.0
  0
POINT
  5
25A
330
1F4
100
AcDbEntity
  8
3
100
AcDbPoint
 10
20142.613525
 20
-14842.656495
 30
0.0
  0
POINT
  5
25B
330
1F4
100
AcDbEntity
  8
3
100
AcDbPoint
 10
20142.613525
 20
-14892.667508
 30
0.0
  0
POINT
  5
25C
330
1F4
100
AcDbEntity
  8
3
100
AcDbPoint
 10
20142.613525
 20
-14945.509408
 30
0.0
  0
POINT
  5
25D
330
1F4
100
AcDbEntity
  8
3
100
AcDbPoint
 10
20142.613525
 20
-14995.540088
 30
0.0
  0
POINT
  5
25E
330
1F4
100
AcDbEntity
  8
3
100
AcDbPoint
 10
20142.613525
 20
-15044.789493
 30
0.0
  0
POINT
  5
25F
330
1F4
100
AcDbEntity
  8
13
100
AcDbPoint
 10
20181.610107
 20
-14749.311523
 30
0.0
  0
TEXT
  5
260
330
1F4
100
AcDbEntity
  8
13
100
AcDbText
 10
20181.610107
 20
-14749.311523
 30
0.0
 40
0.0
  1
# 90
100
AcDbText
  0
POINT
  5
261
330
1F4
100
AcDbEntity
  8
13
100
AcDbPoint
 10
20181.610107
 20
-14749.311523
 30
0.0
  0
TEXT
  5
262
330
1F4
100
AcDbEntity
  8
13
100
AcDbText
 10
20181.610107
 20
-14749.311523
 30
0.0
 40
0.0
  1
# 91
100
AcDbText
  0
POINT
  5
263
330
1F4
100
AcDbEntity
  8
13
100
AcDbPoint
 10
20181.610107
 20
-14749.311523
 30
0.0
  0
TEXT
  5
264
330
1F4
100
AcDbEntity
  8
13
100
AcDbText
 10
20181.610107
 20
-14749.311523
 30
0.0
 40
0.0
  1
# 92
100
AcDbText
  0
POINT
  5
265
330
1F4
100
AcDbEntity
  8
13
100
AcDbPoint
 10
20181.610107
 20
-14749.311523
 30
0.0
  0
TEXT
  5
266
330
1F4
100
AcDbEntity
  8
13
100
AcDbText
 10
20181.610107
 20
-14749.311523
 30
0.0
 40
0.0
  1
# 93
100
AcDbText
  0
POINT
  5
267
330
1F4
100
AcDbEntity
  8
13
100
AcDbPoint
 10
20181.610107
 20
-14829.30542
 30
0.0
  0
TEXT
  5
268
330
1F4
100
AcDbEntity
  8
13
100
AcDbText
 10
20181.610107
 20
-14829.30542
 30
0.0
 40
0.0
  1
# 94
100
AcDbText
  0
POINT
  5
269
330
1F4
100
AcDbEntity
  8
13
100
AcDbPoint
 10
20181.610107
 20
-14829.30542
 30
0.0
  0
TEXT
  5
26A
330
1F4
100
AcDbEntity
  8
13
100
AcDbText
 10
20181.610107
 20
-14829.30542
 30
0.0
 40
0.0
  1
# 95
100
AcDbText
  0
POINT
  5
26B
330
1F4
100
AcDbEntity
  8
13
100
AcDbPoint
 10
20181.610107
 20
-14829.30542
 30
0.0
  0
TEXT
  5
26C
330
1F4
100
AcDbEntity
  8
13
100
AcDbText
 10
20181.610107
 20
-14829.30542
 30
0.0
 40
0.0
  1
# 96
100
AcDbText
  0
POINT
  5
26D
330
1F4
100
AcDbEntity
  8
13
100
AcDbPoint
 10
20181.610107
 20
-14829.30542
 30
0.0
  0
TEXT
  5
26E
330
1F4
100
AcDbEntity
  8
13
100
AcDbText
 10
20181.610107
 20
-14829.30542
 30
0.0
 40
0.0
  1
# 97
100
AcDbText
  0
POINT
  5
26F
330
1F4
100
AcDbEntity
  8
13
100
AcDbPoint
 10
20181.610107
 20
-14909.302979
 30
0.0
  0
TEXT
  5
270
330
1F4
100
AcDbEntity
  8
13
100
AcDbText
 10
20181.610107
 20
-14909.302979
 30
0.0
 40
0.0
  1
# 98
100
AcDbText
  0
POINT
  5
271
330
1F4
100
AcDbEntity
  8
13
100
AcDbPoint
 10
20181.610107
 20
-14909.302979
 30
0.0
  0
TEXT
  5
272
330
1F4
100
AcDbEntity
  8
13
100
AcDbText
 10
20181.610107
 20
-14909.302979
 30
0.0
 40
0.0
  1
# 99
100
AcDbText
  0
POINT
  5
273
330
1F4
100
AcDbEntity
  8
13
100
AcDbPoint
 10
20181.610107
 20
-14909.302979
 30
0.0
  0
TEXT
  5
274
330
1F4
100
AcDbEntity
  8
13
100
AcDbText
 10
20181.610107
 20
-14909.302979
 30
0.0
 40
0.0
  1
# 100
100
AcDbText
  0
POINT
  5
275
330
1F4
100
AcDbEntity
  8
13
100
AcDbPoint
 10
20181.610107
 20
-14909.302979
 30
0.0
  0
TEXT
  5
276
330
1F4
100
AcDbEntity
  8
13
100
AcDbText
 10
20181.610107
 20
-14909.302979
 30
0.0
 40
0.0
  1
# 101
100
AcDbText
  0
POINT
  5
277
330
1F4
100
AcDbEntity
  8
13
100
AcDbPoint
 10
20181.610107
 20
-14989.302979
 30
0.0
  0
TEXT
  5
278
330
1F4
100
AcDbEntity
  8
13
100
AcDbText
 10
20181.610107
 20
-14989.302979
 30
0.0
 40
0.0
  1
# 102
100
AcDbText
  0
POINT
  5
279
330
1F4
100
AcDbEntity
  8
13
100
AcDbPoint
 10
20181.610107
 20
-14989.302979
 30
0.0
  0
TEXT
  5
27A
330
1F4
100
AcDbEntity
  8
13
100
AcDbText
 10
20181.610107
 20
-14989.302979
 30
0.0
 40
0.0
  1
# 103
100
AcDbText
  0
POINT
  5
27B
330
1F4
100
AcDbEntity
  8
13
100
AcDbPoint
 10
20181.610107
 20
-14989.302979
 30
0.0
  0
TEXT
  5
27C
330
1F4
100
AcDbEntity
  8
13
100
AcDbText
 10
20181.610107
 20
-14989.302979
 30
0.0
 40
0.0
  1
# 104
100
AcDbText
  0
POINT
  5
27D
330
1F4
100
AcDbEntity
  8
13
100
AcDbPoint
 10
20181.610107
 20
-14989.302979
 30
0.0
  0
TEXT
  5
27E
330
1F4
100
AcDbEntity
  8
13
100
AcDbText
 10
20181.610107
 20
-14989.302979
 30
0.0
 40
0.0
  1
# 105
100
AcDbText
  0
POINT
  5
27F
330
1F4
100
AcDbEntity
  8
13
100
AcDbPoint
 10
20154.615479
 20
-14749.311523
 30
0.0
  0
TEXT
  5
280
330
1F4
100
AcDbEntity
  8
13
100
AcDbText
 10
20154.615479
 20
-14749.311523
 30
0.0
 40
0.0
  1
# 106
100
AcDbText
  0
POINT
  5
281
330
1F4
100
AcDbEntity
  8
13
100
AcDbPoint
 10
20154.615479
 20
-14749.311523
 30
0.0
  0
TEXT
  5
282
330
1F4
100
AcDbEntity
  8
13
100
AcDbText
 10
20154.615479
 20
-14749.311523
 30
0.0
 40
0.0
  1
# 107
100
AcDbText
  0
POINT
  5
283
330
1F4
100
AcDbEntity
  8
13
100
AcDbPoint
 10
20154.615479
 20
-14749.311523
 30
0.0
  0
TEXT
  5
284
330
1F4
100
AcDbEntity
  8
13
100
AcDbText
 10
20154.615479
 20
-14749.311523
 30
0.0
 40
0.0
  1
# 108
100
AcDbText
  0
POINT
  5
285
330
1F4
100
AcDbEntity
  8
13
100
AcDbPoint
 10
20154.615479
 20
-14749.311523
 30
0.0
  0
TEXT
  5
286
330
1F4
100
AcDbEntity
  8
13
100
AcDbText
 10
20154.615479
 20
-14749.311523
 30
0.0
 40
0.0
  1
# 109
100
AcDbText
  0
POINT
  5
287
330
1F4
100
AcDbEntity
  8
13
100
AcDbPoint
 10
20154.615479
 20
-14829.30542
 30
0.0
  0
TEXT
  5
288
330
1F4
100
AcDbEntity
  8
13
100
AcDbText
 10
20154.615479
 20
-14829.30542
 30
0.0
 40
0.0
  1
# 110
100
AcDbText
  0
POINT
  5
289
330
1F4
100
AcDbEntity
  8
13
100
AcDbPoint
 10
20154.615479
 20
-14829.30542
 30
0.0
  0
TEXT
  5
28A
330
1F4
100
AcDbEntity
  8
13
100
AcDbText
 10
20154.615479
 20
-14829.30542
 30
0.0
 40
0.0
  1
# 111
100
AcDbText
  0
POINT
  5
28B
330
1F4
100
AcDbEntity
  8
13
100
AcDbPoint
 10
20154.615479
 20
-14829.30542
 30
0.0
  0
TEXT
  5
28C
330
1F4
100
AcDbEntity
  8
13
100
AcDbText
 10
20154.615479
 20
-14829.30542
 30
0.0
 40
0.0
  1
# 112
100
AcDbText
  0
POINT
  5
28D
330
1F4
100
AcDbEntity
  8
13
100
AcDbPoint
 10
20154.615479
 20
-14829.30542
 30
0.0
  0
TEXT
  5
28E
330
1F4
100
AcDbEntity
  8
13
100
AcDbText
 10
20154.615479
 20
-14829.30542
 30
0.0
 40
0.0
  1
# 113
100
AcDbText
  0
POINT
  5
28F
330
1F4
100
AcDbEntity
  8
13
100
AcDbPoint
 10
20154.615479
 20
-14909.302979
 30
0.0
  0
TEXT
  5
290
330
1F4
100
AcDbEntity
  8
13
100
AcDbText
 10
20154.615479
 20
-14909.302979
 30
0.0
 40
0.0
  1
# 114
100
AcDbText
  0
POINT
  5
291
330
1F4
100
AcDbEntity
  8
13
100
AcDbPoint
 10
20154.615479
 20
-14909.302979
 30
0.0
  0
TEXT
  5
292
330
1F4
100
AcDbEntity
  8
13
100
AcDbText
 10
20154.615479
 20
-14909.302979
 30
0.0
 40
0.0
  1
# 115
100
AcDbText
  0
POINT
  5
293
330
1F4
100
AcDbEntity
  8
13
100
AcDbPoint
 10
20154.615479
 20
-14909.302979
 30
0.0
  0
TEXT
  5
294
330
1F4
100
AcDbEntity
  8
13
100
AcDbText
 10
20154.615479
 20
-14909.302979
 30
0.0
 40
0.0
  1
# 116
100
AcDbText
  0
POINT
  5
295
330
1F4
100
AcDbEntity
  8
13
100
AcDbPoint
 10
20154.615479
 20
-14909.302979
 30
0.0
  0
TEXT
  5
296
330
1F4
100
AcDbEntity
  8
13
100
AcDbText
 10
20154.615479
 20
-14909.302979
 30
0.0
 40
0.0
  1
# 117
100
AcDbText
  0
POINT
  5
297
330
1F4
100
AcDbEntity
  8
13
100
AcDbPoint
 10
20154.615479
 20
-14989.302979
 30
0.0
  0
TEXT
  5
298
330
1F4
100
AcDbEntity
  8
13
100
AcDbText
 10
20154.615479
 20
-14989.302979
 30
0.0
 40
0.0
  1
# 118
100
AcDbText
  0
POINT
  5
299
330
1F4
100
AcDbEntity
  8
13
100
AcDbPoint
 10
20154.615479
 20
-14989.302979
 30
0.0
  0
TEXT
  5
29A
330
1F4
100
AcDbEntity
  8
13
100
AcDbText
 10
20154.615479
 20
-14989.302979
 30
0.0
 40
0.0
  1
# 119
100
AcDbText
  0
POINT
  5
29B
330
1F4
100
AcDbEntity
  8
13
100
AcDbPoint
 10
20154.615479
 20
-14989.302979
 30
0.0
  0
TEXT
  5
29C
330
1F4
100
AcDbEntity
  8
13
100
AcDbText
 10
20154.615479
 20
-14989.302979
 30
0.0
 40
0.0
  1
# 120
100
AcDbText
  0
POINT
  5
29D
330
1F4
100
AcDbEntity
  8
13
100
AcDbPoint
 10
20154.615479
 20
-14989.302979
 30
0.0
  0
TEXT
  5
29E
330
1F4
100
AcDbEntity
  8
13
100
AcDbText
 10
20154.615479
 20
-14989.302979
 30
0.0
 40
0.0
  1
# 121
100
AcDbText
  0
LINE
  5
29F
330
1F4
100
AcDbEntity
  8
7
100
AcDbLine
 10
20175.430908
 20
-14769.6521
 30
0.0
 11
20175.430908
 21
-15041.362305
 31
0.0
  0
TEXT
  5
2A0
330
1F4
100
AcDbEntity
  8
1
100
AcDbText
 10
20168.112793
 20
-14897.252808
 30
0.0
 40
10.0
  1
Piece Name: 0AD2.面料_门筒左合并件_0AD236.M
100
AcDbText
  0
TEXT
  5
2A1
330
1F4
100
AcDbEntity
  8
1
100
AcDbText
 10
20168.112793
 20
-14882.252808
 30
0.0
 40
10.0
  1
Size: M
100
AcDbText
  0
TEXT
  5
2A2
330
1F4
100
AcDbEntity
  8
1
100
AcDbText
 10
20168.112793
 20
-14867.252808
 30
0.0
 40
10.0
  1
Annotation: 
100
AcDbText
  0
TEXT
  5
2A3
330
1F4
100
AcDbEntity
  8
1
100
AcDbText
 10
20168.112793
 20
-14852.252808
 30
0.0
 40
10.0
  1
Quantity: 1
100
AcDbText
  0
TEXT
  5
2A4
330
1F4
100
AcDbEntity
  8
1
100
AcDbText
 10
20168.112793
 20
-14837.252808
 30
0.0
 40
10.0
  1
Material: 面料
100
AcDbText
  0
TEXT
  5
2A5
330
1F4
100
AcDbEntity
  8
1
100
AcDbText
 10
20168.112793
 20
-14837.252808
 30
0.0
 40
10.0
  1
Category: 3
100
AcDbText
  0
ENDBLK
  5
1F6
330
1F4
100
AcDbEntity
  8
0
100
AcDbBlockEnd
  0
BLOCK
  5
2A7
330
2A6
100
AcDbEntity
  8
0
100
AcDbBlockBegin
  2
0AD2.布衬_门筒左合并件.M
 70
0
 10
0.0
 20
0.0
 30
0.0
  3
0AD2.布衬_门筒左合并件.M
  1

  0
POLYLINE
  5
2A9
330
2A6
100
AcDbEntity
  8
1
100
AcDb2dPolyline
 66
1
 10
0.0
 20
0.0
 30
0.0
 70
1
  0
VERTEX
  5
2AA
330
2A9
100
AcDbEntity
  8
1
100
AcDbVertex
100
AcDb2dVertex
 10
20068.112793
 20
-15054.978027
 30
0.0
 70
0
  0
VERTEX
  5
2AB
330
2A9
100
AcDbEntity
  8
1
100
AcDbVertex
100
AcDb2dVertex
 10
20041.113281
 20
-15054.978027
 30
0.0
 70
0
  0
VERTEX
  5
2AC
330
2A9
100
AcDbEntity
  8
1
100
AcDbVertex
100
AcDb2dVertex
 10
20041.113281
 20
-15050.604976
 30
0.0
 70
0
  0
VERTEX
  5
2AD
330
2A9
100
AcDbEntity
  8
1
100
AcDbVertex
100
AcDb2dVertex
 10
20041.113281
 20
-15000.037341
 30
0.0
 70
0
  0
VERTEX
  5
2AE
330
2A9
100
AcDbEntity
  8
1
100
AcDbVertex
100
AcDb2dVertex
 10
20041.113281
 20
-14948.869619
 30
0.0
 70
0
  0
VERTEX
  5
2AF
330
2A9
100
AcDbEntity
  8
1
100
AcDbVertex
100
AcDb2dVertex
 10
20041.113281
 20
-14897.648407
 30
0.0
 70
0
  0
VERTEX
  5
2B0
330
2A9
100
AcDbEntity
  8
1
100
AcDbVertex
100
AcDb2dVertex
 10
20041.113281
 20
-14845.821729
 30
0.0
 70
0
  0
VERTEX
  5
2B1
330
2A9
100
AcDbEntity
  8
1
100
AcDbVertex
100
AcDb2dVertex
 10
20041.113281
 20
-14793.989415
 30
0.0
 70
0
  0
VERTEX
  5
2B2
330
2A9
100
AcDbEntity
  8
1
100
AcDbVertex
100
AcDb2dVertex
 10
20041.113281
 20
-14739.527588
 30
0.0
 70
0
  0
VERTEX
  5
2B3
330
2A9
100
AcDbEntity
  8
1
100
AcDbVertex
100
AcDb2dVertex
 10
20068.112793
 20
-14739.527588
 30
0.0
 70
0
  0
VERTEX
  5
2B4
330
2A9
100
AcDbEntity
  8
1
100
AcDbVertex
100
AcDb2dVertex
 10
20095.112305
 20
-14739.527588
 30
0.0
 70
0
  0
VERTEX
  5
2B5
330
2A9
100
AcDbEntity
  8
1
100
AcDbVertex
100
AcDb2dVertex
 10
20095.112305
 20
-14793.989415
 30
0.0
 70
0
  0
VERTEX
  5
2B6
330
2A9
100
AcDbEntity
  8
1
100
AcDbVertex
100
AcDb2dVertex
 10
20095.112305
 20
-14845.821729
 30
0.0
 70
0
  0
VERTEX
  5
2B7
330
2A9
100
AcDbEntity
  8
1
100
AcDbVertex
100
AcDb2dVertex
 10
20095.112305
 20
-14897.648407
 30
0.0
 70
0
  0
VERTEX
  5
2B8
330
2A9
100
AcDbEntity
  8
1
100
AcDbVertex
100
AcDb2dVertex
 10
20095.112305
 20
-14948.869619
 30
0.0
 70
0
  0
VERTEX
  5
2B9
330
2A9
100
AcDbEntity
  8
1
100
AcDbVertex
100
AcDb2dVertex
 10
20095.112305
 20
-15000.037341
 30
0.0
 70
0
  0
VERTEX
  5
2BA
330
2A9
100
AcDbEntity
  8
1
100
AcDbVertex
100
AcDb2dVertex
 10
20095.112305
 20
-15050.604976
 30
0.0
 70
0
  0
VERTEX
  5
2BB
330
2A9
100
AcDbEntity
  8
1
100
AcDbVertex
100
AcDb2dVertex
 10
20095.112305
 20
-15054.978027
 30
0.0
 70
0
  0
SEQEND
  5
2BC
330
2A9
100
AcDbEntity
  8
1
  0
POINT
  5
2BD
330
2A6
100
AcDbEntity
  8
2
100
AcDbPoint
 10
20068.112793
 20
-15054.978027
 30
0.0
  0
TEXT
  5
2BE
330
2A6
100
AcDbEntity
  8
2
100
AcDbText
 10
20068.112793
 20
-15054.978027
 30
0.0
 40
0.0
  1
# 122
100
AcDbText
  0
POINT
  5
2BF
330
2A6
100
AcDbEntity
  8
2
100
AcDbPoint
 10
20041.113281
 20
-15054.978027
 30
0.0
  0
TEXT
  5
2C0
330
2A6
100
AcDbEntity
  8
2
100
AcDbText
 10
20041.113281
 20
-15054.978027
 30
0.0
 40
0.0
  1
# 123
100
AcDbText
  0
POINT
  5
2C1
330
2A6
100
AcDbEntity
  8
2
100
AcDbPoint
 10
20041.113281
 20
-14739.527588
 30
0.0
  0
TEXT
  5
2C2
330
2A6
100
AcDbEntity
  8
2
100
AcDbText
 10
20041.113281
 20
-14739.527588
 30
0.0
 40
0.0
  1
# 124
100
AcDbText
  0
POINT
  5
2C3
330
2A6
100
AcDbEntity
  8
2
100
AcDbPoint
 10
20068.112793
 20
-14739.527588
 30
0.0
  0
TEXT
  5
2C4
330
2A6
100
AcDbEntity
  8
2
100
AcDbText
 10
20068.112793
 20
-14739.527588
 30
0.0
 40
0.0
  1
# 125
100
AcDbText
  0
POINT
  5
2C5
330
2A6
100
AcDbEntity
  8
2
100
AcDbPoint
 10
20095.112305
 20
-14739.527588
 30
0.0
  0
TEXT
  5
2C6
330
2A6
100
AcDbEntity
  8
2
100
AcDbText
 10
20095.112305
 20
-14739.527588
 30
0.0
 40
0.0
  1
# 126
100
AcDbText
  0
POINT
  5
2C7
330
2A6
100
AcDbEntity
  8
2
100
AcDbPoint
 10
20095.112305
 20
-15054.978027
 30
0.0
  0
TEXT
  5
2C8
330
2A6
100
AcDbEntity
  8
2
100
AcDbText
 10
20095.112305
 20
-15054.978027
 30
0.0
 40
0.0
  1
# 127
100
AcDbText
  0
POINT
  5
2C9
330
2A6
100
AcDbEntity
  8
3
100
AcDbPoint
 10
20041.113281
 20
-15050.604976
 30
0.0
  0
POINT
  5
2CA
330
2A6
100
AcDbEntity
  8
3
100
AcDbPoint
 10
20041.113281
 20
-15000.037341
 30
0.0
  0
POINT
  5
2CB
330
2A6
100
AcDbEntity
  8
3
100
AcDbPoint
 10
20041.113281
 20
-14948.869619
 30
0.0
  0
POINT
  5
2CC
330
2A6
100
AcDbEntity
  8
3
100
AcDbPoint
 10
20041.113281
 20
-14897.648407
 30
0.0
  0
POINT
  5
2CD
330
2A6
100
AcDbEntity
  8
3
100
AcDbPoint
 10
20041.113281
 20
-14845.821729
 30
0.0
  0
POINT
  5
2CE
330
2A6
100
AcDbEntity
  8
3
100
AcDbPoint
 10
20041.113281
 20
-14793.989415
 30
0.0
  0
POINT
  5
2CF
330
2A6
100
AcDbEntity
  8
3
100
AcDbPoint
 10
20095.112305
 20
-14793.989415
 30
0.0
  0
POINT
  5
2D0
330
2A6
100
AcDbEntity
  8
3
100
AcDbPoint
 10
20095.112305
 20
-14845.821729
 30
0.0
  0
POINT
  5
2D1
330
2A6
100
AcDbEntity
  8
3
100
AcDbPoint
 10
20095.112305
 20
-14897.648407
 30
0.0
  0
POINT
  5
2D2
330
2A6
100
AcDbEntity
  8
3
100
AcDbPoint
 10
20095.112305
 20
-14948.869619
 30
0.0
  0
POINT
  5
2D3
330
2A6
100
AcDbEntity
  8
3
100
AcDbPoint
 10
20095.112305
 20
-15000.037341
 30
0.0
  0
POINT
  5
2D4
330
2A6
100
AcDbEntity
  8
3
100
AcDbPoint
 10
20095.112305
 20
-15050.604976
 30
0.0
  0
POLYLINE
  5
2D5
330
2A6
100
AcDbEntity
  8
8
100
AcDb2dPolyline
 66
1
 10
0.0
 20
0.0
 30
0.0
 70
0
  0
VERTEX
  5
2D6
330
2D5
100
AcDbEntity
  8
8
100
AcDbVertex
100
AcDb2dVertex
 10
20068.112793
 20
-14739.527588
 30
0.0
 70
0
  0
VERTEX
  5
2D7
330
2D5
100
AcDbEntity
  8
8
100
AcDbVertex
100
AcDb2dVertex
 10
20068.112793
 20
-14794.024314
 30
0.0
 70
0
  0
VERTEX
  5
2D8
330
2D5
100
AcDbEntity
  8
8
100
AcDbVertex
100
AcDb2dVertex
 10
20068.112793
 20
-14846.017348
 30
0.0
 70
0
  0
VERTEX
  5
2D9
330
2D5
100
AcDbEntity
  8
8
100
AcDbVertex
100
AcDb2dVertex
 10
20068.112793
 20
-14897.649355
 30
0.0
 70
0
  0
VERTEX
  5
2DA
330
2D5
100
AcDbEntity
  8
8
100
AcDbVertex
100
AcDb2dVertex
 10
20068.112793
 20
-14948.871874
 30
0.0
 70
0
  0
VERTEX
  5
2DB
330
2D5
100
AcDbEntity
  8
8
100
AcDbVertex
100
AcDb2dVertex
 10
20068.112793
 20
-15000.039833
 30
0.0
 70
0
  0
VERTEX
  5
2DC
330
2D5
100
AcDbEntity
  8
8
100
AcDbVertex
100
AcDb2dVertex
 10
20068.112793
 20
-15050.605683
 30
0.0
 70
0
  0
VERTEX
  5
2DD
330
2D5
100
AcDbEntity
  8
8
100
AcDbVertex
100
AcDb2dVertex
 10
20068.112793
 20
-15054.978027
 30
0.0
 70
0
  0
SEQEND
  5
2DE
330
2D5
100
AcDbEntity
  8
8
  0
POINT
  5
2DF
330
2A6
100
AcDbEntity
  8
2
100
AcDbPoint
 10
20068.112793
 20
-14739.527588
 30
0.0
  0
TEXT
  5
2E0
330
2A6
100
AcDbEntity
  8
2
100
AcDbText
 10
20068.112793
 20
-14739.527588
 30
0.0
 40
0.0
  1
# 128
100
AcDbText
  0
POINT
  5
2E1
330
2A6
100
AcDbEntity
  8
2
100
AcDbPoint
 10
20068.112793
 20
-15054.978027
 30
0.0
  0
TEXT
  5
2E2
330
2A6
100
AcDbEntity
  8
2
100
AcDbText
 10
20068.112793
 20
-15054.978027
 30
0.0
 40
0.0
  1
# 129
100
AcDbText
  0
POINT
  5
2E3
330
2A6
100
AcDbEntity
  8
3
100
AcDbPoint
 10
20068.112793
 20
-14794.024314
 30
0.0
  0
POINT
  5
2E4
330
2A6
100
AcDbEntity
  8
3
100
AcDbPoint
 10
20068.112793
 20
-14846.017348
 30
0.0
  0
POINT
  5
2E5
330
2A6
100
AcDbEntity
  8
3
100
AcDbPoint
 10
20068.112793
 20
-14897.649355
 30
0.0
  0
POINT
  5
2E6
330
2A6
100
AcDbEntity
  8
3
100
AcDbPoint
 10
20068.112793
 20
-14948.871874
 30
0.0
  0
POINT
  5
2E7
330
2A6
100
AcDbEntity
  8
3
100
AcDbPoint
 10
20068.112793
 20
-15000.039833
 30
0.0
  0
POINT
  5
2E8
330
2A6
100
AcDbEntity
  8
3
100
AcDbPoint
 10
20068.112793
 20
-15050.605683
 30
0.0
  0
POLYLINE
  5
2E9
330
2A6
100
AcDbEntity
  8
8
100
AcDb2dPolyline
 66
1
 10
0.0
 20
0.0
 30
0.0
 70
0
  0
VERTEX
  5
2EA
330
2E9
100
AcDbEntity
  8
8
100
AcDbVertex
100
AcDb2dVertex
 10
20093.612061
 20
-14739.527588
 30
0.0
 70
0
  0
VERTEX
  5
2EB
330
2E9
100
AcDbEntity
  8
8
100
AcDbVertex
100
AcDb2dVertex
 10
20093.612061
 20
-14792.543135
 30
0.0
 70
0
  0
VERTEX
  5
2EC
330
2E9
100
AcDbEntity
  8
8
100
AcDbVertex
100
AcDb2dVertex
 10
20093.612061
 20
-14842.656495
 30
0.0
 70
0
  0
VERTEX
  5
2ED
330
2E9
100
AcDbEntity
  8
8
100
AcDbVertex
100
AcDb2dVertex
 10
20093.612061
 20
-14892.667508
 30
0.0
 70
0
  0
VERTEX
  5
2EE
330
2E9
100
AcDbEntity
  8
8
100
AcDbVertex
100
AcDb2dVertex
 10
20093.612061
 20
-14945.509408
 30
0.0
 70
0
  0
VERTEX
  5
2EF
330
2E9
100
AcDbEntity
  8
8
100
AcDbVertex
100
AcDb2dVertex
 10
20093.612061
 20
-14995.540088
 30
0.0
 70
0
  0
VERTEX
  5
2F0
330
2E9
100
AcDbEntity
  8
8
100
AcDbVertex
100
AcDb2dVertex
 10
20093.612061
 20
-15044.789493
 30
0.0
 70
0
  0
VERTEX
  5
2F1
330
2E9
100
AcDbEntity
  8
8
100
AcDbVertex
100
AcDb2dVertex
 10
20093.612061
 20
-15054.978027
 30
0.0
 70
0
  0
SEQEND
  5
2F2
330
2E9
100
AcDbEntity
  8
8
  0
POINT
  5
2F3
330
2A6
100
AcDbEntity
  8
2
100
AcDbPoint
 10
20093.612061
 20
-14739.527588
 30
0.0
  0
TEXT
  5
2F4
330
2A6
100
AcDbEntity
  8
2
100
AcDbText
 10
20093.612061
 20
-14739.527588
 30
0.0
 40
0.0
  1
# 130
100
AcDbText
  0
POINT
  5
2F5
330
2A6
100
AcDbEntity
  8
2
100
AcDbPoint
 10
20093.612061
 20
-15054.978027
 30
0.0
  0
TEXT
  5
2F6
330
2A6
100
AcDbEntity
  8
2
100
AcDbText
 10
20093.612061
 20
-15054.978027
 30
0.0
 40
0.0
  1
# 131
100
AcDbText
  0
POINT
  5
2F7
330
2A6
100
AcDbEntity
  8
3
100
AcDbPoint
 10
20093.612061
 20
-14792.543135
 30
0.0
  0
POINT
  5
2F8
330
2A6
100
AcDbEntity
  8
3
100
AcDbPoint
 10
20093.612061
 20
-14842.656495
 30
0.0
  0
POINT
  5
2F9
330
2A6
100
AcDbEntity
  8
3
100
AcDbPoint
 10
20093.612061
 20
-14892.667508
 30
0.0
  0
POINT
  5
2FA
330
2A6
100
AcDbEntity
  8
3
100
AcDbPoint
 10
20093.612061
 20
-14945.509408
 30
0.0
  0
POINT
  5
2FB
330
2A6
100
AcDbEntity
  8
3
100
AcDbPoint
 10
20093.612061
 20
-14995.540088
 30
0.0
  0
POINT
  5
2FC
330
2A6
100
AcDbEntity
  8
3
100
AcDbPoint
 10
20093.612061
 20
-15044.789493
 30
0.0
  0
POLYLINE
  5
2FD
330
2A6
100
AcDbEntity
  8
8
100
AcDb2dPolyline
 66
1
 10
0.0
 20
0.0
 30
0.0
 70
0
  0
VERTEX
  5
2FE
330
2FD
100
AcDbEntity
  8
8
100
AcDbVertex
100
AcDb2dVertex
 10
20042.613525
 20
-14739.527588
 30
0.0
 70
0
  0
VERTEX
  5
2FF
330
2FD
100
AcDbEntity
  8
8
100
AcDbVertex
100
AcDb2dVertex
 10
20042.613525
 20
-14792.543135
 30
0.0
 70
0
  0
VERTEX
  5
300
330
2FD
100
AcDbEntity
  8
8
100
AcDbVertex
100
AcDb2dVertex
 10
20042.613525
 20
-14842.656495
 30
0.0
 70
0
  0
VERTEX
  5
301
330
2FD
100
AcDbEntity
  8
8
100
AcDbVertex
100
AcDb2dVertex
 10
20042.613525
 20
-14892.667508
 30
0.0
 70
0
  0
VERTEX
  5
302
330
2FD
100
AcDbEntity
  8
8
100
AcDbVertex
100
AcDb2dVertex
 10
20042.613525
 20
-14945.509408
 30
0.0
 70
0
  0
VERTEX
  5
303
330
2FD
100
AcDbEntity
  8
8
100
AcDbVertex
100
AcDb2dVertex
 10
20042.613525
 20
-14995.540088
 30
0.0
 70
0
  0
VERTEX
  5
304
330
2FD
100
AcDbEntity
  8
8
100
AcDbVertex
100
AcDb2dVertex
 10
20042.613525
 20
-15044.789493
 30
0.0
 70
0
  0
VERTEX
  5
305
330
2FD
100
AcDbEntity
  8
8
100
AcDbVertex
100
AcDb2dVertex
 10
20042.613525
 20
-15054.978027
 30
0.0
 70
0
  0
SEQEND
  5
306
330
2FD
100
AcDbEntity
  8
8
  0
POINT
  5
307
330
2A6
100
AcDbEntity
  8
2
100
AcDbPoint
 10
20042.613525
 20
-14739.527588
 30
0.0
  0
TEXT
  5
308
330
2A6
100
AcDbEntity
  8
2
100
AcDbText
 10
20042.613525
 20
-14739.527588
 30
0.0
 40
0.0
  1
# 132
100
AcDbText
  0
POINT
  5
309
330
2A6
100
AcDbEntity
  8
2
100
AcDbPoint
 10
20042.613525
 20
-15054.978027
 30
0.0
  0
TEXT
  5
30A
330
2A6
100
AcDbEntity
  8
2
100
AcDbText
 10
20042.613525
 20
-15054.978027
 30
0.0
 40
0.0
  1
# 133
100
AcDbText
  0
POINT
  5
30B
330
2A6
100
AcDbEntity
  8
3
100
AcDbPoint
 10
20042.613525
 20
-14792.543135
 30
0.0
  0
POINT
  5
30C
330
2A6
100
AcDbEntity
  8
3
100
AcDbPoint
 10
20042.613525
 20
-14842.656495
 30
0.0
  0
POINT
  5
30D
330
2A6
100
AcDbEntity
  8
3
100
AcDbPoint
 10
20042.613525
 20
-14892.667508
 30
0.0
  0
POINT
  5
30E
330
2A6
100
AcDbEntity
  8
3
100
AcDbPoint
 10
20042.613525
 20
-14945.509408
 30
0.0
  0
POINT
  5
30F
330
2A6
100
AcDbEntity
  8
3
100
AcDbPoint
 10
20042.613525
 20
-14995.540088
 30
0.0
  0
POINT
  5
310
330
2A6
100
AcDbEntity
  8
3
100
AcDbPoint
 10
20042.613525
 20
-15044.789493
 30
0.0
  0
POINT
  5
311
330
2A6
100
AcDbEntity
  8
13
100
AcDbPoint
 10
20081.610107
 20
-14749.311523
 30
0.0
  0
TEXT
  5
312
330
2A6
100
AcDbEntity
  8
13
100
AcDbText
 10
20081.610107
 20
-14749.311523
 30
0.0
 40
0.0
  1
# 134
100
AcDbText
  0
POINT
  5
313
330
2A6
100
AcDbEntity
  8
13
100
AcDbPoint
 10
20081.610107
 20
-14749.311523
 30
0.0
  0
TEXT
  5
314
330
2A6
100
AcDbEntity
  8
13
100
AcDbText
 10
20081.610107
 20
-14749.311523
 30
0.0
 40
0.0
  1
# 135
100
AcDbText
  0
POINT
  5
315
330
2A6
100
AcDbEntity
  8
13
100
AcDbPoint
 10
20081.610107
 20
-14829.30542
 30
0.0
  0
TEXT
  5
316
330
2A6
100
AcDbEntity
  8
13
100
AcDbText
 10
20081.610107
 20
-14829.30542
 30
0.0
 40
0.0
  1
# 136
100
AcDbText
  0
POINT
  5
317
330
2A6
100
AcDbEntity
  8
13
100
AcDbPoint
 10
20081.610107
 20
-14829.30542
 30
0.0
  0
TEXT
  5
318
330
2A6
100
AcDbEntity
  8
13
100
AcDbText
 10
20081.610107
 20
-14829.30542
 30
0.0
 40
0.0
  1
# 137
100
AcDbText
  0
POINT
  5
319
330
2A6
100
AcDbEntity
  8
13
100
AcDbPoint
 10
20081.610107
 20
-14749.311523
 30
0.0
  0
TEXT
  5
31A
330
2A6
100
AcDbEntity
  8
13
100
AcDbText
 10
20081.610107
 20
-14749.311523
 30
0.0
 40
0.0
  1
# 138
100
AcDbText
  0
POINT
  5
31B
330
2A6
100
AcDbEntity
  8
13
100
AcDbPoint
 10
20081.610107
 20
-14749.311523
 30
0.0
  0
TEXT
  5
31C
330
2A6
100
AcDbEntity
  8
13
100
AcDbText
 10
20081.610107
 20
-14749.311523
 30
0.0
 40
0.0
  1
# 139
100
AcDbText
  0
POINT
  5
31D
330
2A6
100
AcDbEntity
  8
13
100
AcDbPoint
 10
20081.610107
 20
-14829.30542
 30
0.0
  0
TEXT
  5
31E
330
2A6
100
AcDbEntity
  8
13
100
AcDbText
 10
20081.610107
 20
-14829.30542
 30
0.0
 40
0.0
  1
# 140
100
AcDbText
  0
POINT
  5
31F
330
2A6
100
AcDbEntity
  8
13
100
AcDbPoint
 10
20081.610107
 20
-14829.30542
 30
0.0
  0
TEXT
  5
320
330
2A6
100
AcDbEntity
  8
13
100
AcDbText
 10
20081.610107
 20
-14829.30542
 30
0.0
 40
0.0
  1
# 141
100
AcDbText
  0
POINT
  5
321
330
2A6
100
AcDbEntity
  8
13
100
AcDbPoint
 10
20081.610107
 20
-14909.302979
 30
0.0
  0
TEXT
  5
322
330
2A6
100
AcDbEntity
  8
13
100
AcDbText
 10
20081.610107
 20
-14909.302979
 30
0.0
 40
0.0
  1
# 142
100
AcDbText
  0
POINT
  5
323
330
2A6
100
AcDbEntity
  8
13
100
AcDbPoint
 10
20081.610107
 20
-14909.302979
 30
0.0
  0
TEXT
  5
324
330
2A6
100
AcDbEntity
  8
13
100
AcDbText
 10
20081.610107
 20
-14909.302979
 30
0.0
 40
0.0
  1
# 143
100
AcDbText
  0
POINT
  5
325
330
2A6
100
AcDbEntity
  8
13
100
AcDbPoint
 10
20081.610107
 20
-14909.302979
 30
0.0
  0
TEXT
  5
326
330
2A6
100
AcDbEntity
  8
13
100
AcDbText
 10
20081.610107
 20
-14909.302979
 30
0.0
 40
0.0
  1
# 144
100
AcDbText
  0
POINT
  5
327
330
2A6
100
AcDbEntity
  8
13
100
AcDbPoint
 10
20081.610107
 20
-14909.302979
 30
0.0
  0
TEXT
  5
328
330
2A6
100
AcDbEntity
  8
13
100
AcDbText
 10
20081.610107
 20
-14909.302979
 30
0.0
 40
0.0
  1
# 145
100
AcDbText
  0
POINT
  5
329
330
2A6
100
AcDbEntity
  8
13
100
AcDbPoint
 10
20081.610107
 20
-14989.302979
 30
0.0
  0
TEXT
  5
32A
330
2A6
100
AcDbEntity
  8
13
100
AcDbText
 10
20081.610107
 20
-14989.302979
 30
0.0
 40
0.0
  1
# 146
100
AcDbText
  0
POINT
  5
32B
330
2A6
100
AcDbEntity
  8
13
100
AcDbPoint
 10
20081.610107
 20
-14989.302979
 30
0.0
  0
TEXT
  5
32C
330
2A6
100
AcDbEntity
  8
13
100
AcDbText
 10
20081.610107
 20
-14989.302979
 30
0.0
 40
0.0
  1
# 147
100
AcDbText
  0
POINT
  5
32D
330
2A6
100
AcDbEntity
  8
13
100
AcDbPoint
 10
20081.610107
 20
-14989.302979
 30
0.0
  0
TEXT
  5
32E
330
2A6
100
AcDbEntity
  8
13
100
AcDbText
 10
20081.610107
 20
-14989.302979
 30
0.0
 40
0.0
  1
# 148
100
AcDbText
  0
POINT
  5
32F
330
2A6
100
AcDbEntity
  8
13
100
AcDbPoint
 10
20081.610107
 20
-14989.302979
 30
0.0
  0
TEXT
  5
330
330
2A6
100
AcDbEntity
  8
13
100
AcDbText
 10
20081.610107
 20
-14989.302979
 30
0.0
 40
0.0
  1
# 149
100
AcDbText
  0
POINT
  5
331
330
2A6
100
AcDbEntity
  8
13
100
AcDbPoint
 10
20054.615479
 20
-14749.311523
 30
0.0
  0
TEXT
  5
332
330
2A6
100
AcDbEntity
  8
13
100
AcDbText
 10
20054.615479
 20
-14749.311523
 30
0.0
 40
0.0
  1
# 150
100
AcDbText
  0
POINT
  5
333
330
2A6
100
AcDbEntity
  8
13
100
AcDbPoint
 10
20054.615479
 20
-14749.311523
 30
0.0
  0
TEXT
  5
334
330
2A6
100
AcDbEntity
  8
13
100
AcDbText
 10
20054.615479
 20
-14749.311523
 30
0.0
 40
0.0
  1
# 151
100
AcDbText
  0
POINT
  5
335
330
2A6
100
AcDbEntity
  8
13
100
AcDbPoint
 10
20054.615479
 20
-14829.30542
 30
0.0
  0
TEXT
  5
336
330
2A6
100
AcDbEntity
  8
13
100
AcDbText
 10
20054.615479
 20
-14829.30542
 30
0.0
 40
0.0
  1
# 152
100
AcDbText
  0
POINT
  5
337
330
2A6
100
AcDbEntity
  8
13
100
AcDbPoint
 10
20054.615479
 20
-14829.30542
 30
0.0
  0
TEXT
  5
338
330
2A6
100
AcDbEntity
  8
13
100
AcDbText
 10
20054.615479
 20
-14829.30542
 30
0.0
 40
0.0
  1
# 153
100
AcDbText
  0
POINT
  5
339
330
2A6
100
AcDbEntity
  8
13
100
AcDbPoint
 10
20054.615479
 20
-14749.311523
 30
0.0
  0
TEXT
  5
33A
330
2A6
100
AcDbEntity
  8
13
100
AcDbText
 10
20054.615479
 20
-14749.311523
 30
0.0
 40
0.0
  1
# 154
100
AcDbText
  0
POINT
  5
33B
330
2A6
100
AcDbEntity
  8
13
100
AcDbPoint
 10
20054.615479
 20
-14749.311523
 30
0.0
  0
TEXT
  5
33C
330
2A6
100
AcDbEntity
  8
13
100
AcDbText
 10
20054.615479
 20
-14749.311523
 30
0.0
 40
0.0
  1
# 155
100
AcDbText
  0
POINT
  5
33D
330
2A6
100
AcDbEntity
  8
13
100
AcDbPoint
 10
20054.615479
 20
-14829.30542
 30
0.0
  0
TEXT
  5
33E
330
2A6
100
AcDbEntity
  8
13
100
AcDbText
 10
20054.615479
 20
-14829.30542
 30
0.0
 40
0.0
  1
# 156
100
AcDbText
  0
POINT
  5
33F
330
2A6
100
AcDbEntity
  8
13
100
AcDbPoint
 10
20054.615479
 20
-14829.30542
 30
0.0
  0
TEXT
  5
340
330
2A6
100
AcDbEntity
  8
13
100
AcDbText
 10
20054.615479
 20
-14829.30542
 30
0.0
 40
0.0
  1
# 157
100
AcDbText
  0
POINT
  5
341
330
2A6
100
AcDbEntity
  8
13
100
AcDbPoint
 10
20054.615479
 20
-14909.302979
 30
0.0
  0
TEXT
  5
342
330
2A6
100
AcDbEntity
  8
13
100
AcDbText
 10
20054.615479
 20
-14909.302979
 30
0.0
 40
0.0
  1
# 158
100
AcDbText
  0
POINT
  5
343
330
2A6
100
AcDbEntity
  8
13
100
AcDbPoint
 10
20054.615479
 20
-14909.302979
 30
0.0
  0
TEXT
  5
344
330
2A6
100
AcDbEntity
  8
13
100
AcDbText
 10
20054.615479
 20
-14909.302979
 30
0.0
 40
0.0
  1
# 159
100
AcDbText
  0
POINT
  5
345
330
2A6
100
AcDbEntity
  8
13
100
AcDbPoint
 10
20054.615479
 20
-14909.302979
 30
0.0
  0
TEXT
  5
346
330
2A6
100
AcDbEntity
  8
13
100
AcDbText
 10
20054.615479
 20
-14909.302979
 30
0.0
 40
0.0
  1
# 160
100
AcDbText
  0
POINT
  5
347
330
2A6
100
AcDbEntity
  8
13
100
AcDbPoint
 10
20054.615479
 20
-14909.302979
 30
0.0
  0
TEXT
  5
348
330
2A6
100
AcDbEntity
  8
13
100
AcDbText
 10
20054.615479
 20
-14909.302979
 30
0.0
 40
0.0
  1
# 161
100
AcDbText
  0
POINT
  5
349
330
2A6
100
AcDbEntity
  8
13
100
AcDbPoint
 10
20054.615479
 20
-14989.302979
 30
0.0
  0
TEXT
  5
34A
330
2A6
100
AcDbEntity
  8
13
100
AcDbText
 10
20054.615479
 20
-14989.302979
 30
0.0
 40
0.0
  1
# 162
100
AcDbText
  0
POINT
  5
34B
330
2A6
100
AcDbEntity
  8
13
100
AcDbPoint
 10
20054.615479
 20
-14989.302979
 30
0.0
  0
TEXT
  5
34C
330
2A6
100
AcDbEntity
  8
13
100
AcDbText
 10
20054.615479
 20
-14989.302979
 30
0.0
 40
0.0
  1
# 163
100
AcDbText
  0
POINT
  5
34D
330
2A6
100
AcDbEntity
  8
13
100
AcDbPoint
 10
20054.615479
 20
-14989.302979
 30
0.0
  0
TEXT
  5
34E
330
2A6
100
AcDbEntity
  8
13
100
AcDbText
 10
20054.615479
 20
-14989.302979
 30
0.0
 40
0.0
  1
# 164
100
AcDbText
  0
POINT
  5
34F
330
2A6
100
AcDbEntity
  8
13
100
AcDbPoint
 10
20054.615479
 20
-14989.302979
 30
0.0
  0
TEXT
  5
350
330
2A6
100
AcDbEntity
  8
13
100
AcDbText
 10
20054.615479
 20
-14989.302979
 30
0.0
 40
0.0
  1
# 165
100
AcDbText
  0
LINE
  5
351
330
2A6
100
AcDbEntity
  8
7
100
AcDbLine
 10
20069.846191
 20
-14764.020996
 30
0.0
 11
20069.846191
 21
-15029.0625
 31
0.0
  0
TEXT
  5
352
330
2A6
100
AcDbEntity
  8
1
100
AcDbText
 10
20068.112793
 20
-14897.252808
 30
0.0
 40
10.0
  1
Piece Name: 0AD2.布衬_门筒左合并件_0AD231.M
100
AcDbText
  0
TEXT
  5
353
330
2A6
100
AcDbEntity
  8
1
100
AcDbText
 10
20068.112793
 20
-14882.252808
 30
0.0
 40
10.0
  1
Size: M
100
AcDbText
  0
TEXT
  5
354
330
2A6
100
AcDbEntity
  8
1
100
AcDbText
 10
20068.112793
 20
-14867.252808
 30
0.0
 40
10.0
  1
Annotation: 
100
AcDbText
  0
TEXT
  5
355
330
2A6
100
AcDbEntity
  8
1
100
AcDbText
 10
20068.112793
 20
-14852.252808
 30
0.0
 40
10.0
  1
Quantity: 1
100
AcDbText
  0
TEXT
  5
356
330
2A6
100
AcDbEntity
  8
1
100
AcDbText
 10
20068.112793
 20
-14837.252808
 30
0.0
 40
10.0
  1
Material: 布衬
100
AcDbText
  0
TEXT
  5
357
330
2A6
100
AcDbEntity
  8
1
100
AcDbText
 10
20068.112793
 20
-14837.252808
 30
0.0
 40
10.0
  1
Category: 4
100
AcDbText
  0
ENDBLK
  5
2A8
330
2A6
100
AcDbEntity
  8
0
100
AcDbBlockEnd
  0
BLOCK
  5
359
330
358
100
AcDbEntity
  8
0
100
AcDbBlockBegin
  2
0AD2.布衬_门筒右合并件.M
 70
0
 10
0.0
 20
0.0
 30
0.0
  3
0AD2.布衬_门筒右合并件.M
  1

  0
POLYLINE
  5
35B
330
358
100
AcDbEntity
  8
1
100
AcDb2dPolyline
 66
1
 10
0.0
 20
0.0
 30
0.0
 70
1
  0
VERTEX
  5
35C
330
35B
100
AcDbEntity
  8
1
100
AcDbVertex
100
AcDb2dVertex
 10
19877.807617
 20
-15057.094727
 30
0.0
 70
0
  0
VERTEX
  5
35D
330
35B
100
AcDbEntity
  8
1
100
AcDbVertex
100
AcDb2dVertex
 10
19850.808105
 20
-15057.094727
 30
0.0
 70
0
  0
VERTEX
  5
35E
330
35B
100
AcDbEntity
  8
1
100
AcDbVertex
100
AcDb2dVertex
 10
19850.808105
 20
-15028.59976
 30
0.0
 70
0
  0
VERTEX
  5
35F
330
35B
100
AcDbEntity
  8
1
100
AcDbVertex
100
AcDb2dVertex
 10
19850.808105
 20
-14972.189852
 30
0.0
 70
0
  0
VERTEX
  5
360
330
35B
100
AcDbEntity
  8
1
100
AcDbVertex
100
AcDb2dVertex
 10
19850.808105
 20
-14915.77965
 30
0.0
 70
0
  0
VERTEX
  5
361
330
35B
100
AcDbEntity
  8
1
100
AcDbVertex
100
AcDb2dVertex
 10
19850.808105
 20
-14859.369298
 30
0.0
 70
0
  0
VERTEX
  5
362
330
35B
100
AcDbEntity
  8
1
100
AcDbVertex
100
AcDb2dVertex
 10
19850.808105
 20
-14805.509231
 30
0.0
 70
0
  0
VERTEX
  5
363
330
35B
100
AcDbEntity
  8
1
100
AcDbVertex
100
AcDb2dVertex
 10
19850.808105
 20
-14741.644287
 30
0.0
 70
0
  0
VERTEX
  5
364
330
35B
100
AcDbEntity
  8
1
100
AcDbVertex
100
AcDb2dVertex
 10
19877.807617
 20
-14741.644287
 30
0.0
 70
0
  0
VERTEX
  5
365
330
35B
100
AcDbEntity
  8
1
100
AcDbVertex
100
AcDb2dVertex
 10
19904.807129
 20
-14741.644287
 30
0.0
 70
0
  0
VERTEX
  5
366
330
35B
100
AcDbEntity
  8
1
100
AcDbVertex
100
AcDb2dVertex
 10
19931.806641
 20
-14741.644287
 30
0.0
 70
0
  0
VERTEX
  5
367
330
35B
100
AcDbEntity
  8
1
100
AcDbVertex
100
AcDb2dVertex
 10
19958.806152
 20
-14741.644287
 30
0.0
 70
0
  0
VERTEX
  5
368
330
35B
100
AcDbEntity
  8
1
100
AcDbVertex
100
AcDb2dVertex
 10
19958.806152
 20
-14805.509231
 30
0.0
 70
0
  0
VERTEX
  5
369
330
35B
100
AcDbEntity
  8
1
100
AcDbVertex
100
AcDb2dVertex
 10
19958.806152
 20
-14859.369298
 30
0.0
 70
0
  0
VERTEX
  5
36A
330
35B
100
AcDbEntity
  8
1
100
AcDbVertex
100
AcDb2dVertex
 10
19958.806152
 20
-14915.77965
 30
0.0
 70
0
  0
VERTEX
  5
36B
330
35B
100
AcDbEntity
  8
1
100
AcDbVertex
100
AcDb2dVertex
 10
19958.806152
 20
-14972.189852
 30
0.0
 70
0
  0
VERTEX
  5
36C
330
35B
100
AcDbEntity
  8
1
100
AcDbVertex
100
AcDb2dVertex
 10
19958.806152
 20
-15028.59976
 30
0.0
 70
0
  0
VERTEX
  5
36D
330
35B
100
AcDbEntity
  8
1
100
AcDbVertex
100
AcDb2dVertex
 10
19958.806152
 20
-15057.094727
 30
0.0
 70
0
  0
VERTEX
  5
36E
330
35B
100
AcDbEntity
  8
1
100
AcDbVertex
100
AcDb2dVertex
 10
19931.806641
 20
-15057.094727
 30
0.0
 70
0
  0
VERTEX
  5
36F
330
35B
100
AcDbEntity
  8
1
100
AcDbVertex
100
AcDb2dVertex
 10
19904.807129
 20
-15057.094727
 30
0.0
 70
0
  0
SEQEND
  5
370
330
35B
100
AcDbEntity
  8
1
  0
POINT
  5
371
330
358
100
AcDbEntity
  8
2
100
AcDbPoint
 10
19877.807617
 20
-15057.094727
 30
0.0
  0
TEXT
  5
372
330
358
100
AcDbEntity
  8
2
100
AcDbText
 10
19877.807617
 20
-15057.094727
 30
0.0
 40
0.0
  1
# 166
100
AcDbText
  0
POINT
  5
373
330
358
100
AcDbEntity
  8
2
100
AcDbPoint
 10
19850.808105
 20
-15057.094727
 30
0.0
  0
TEXT
  5
374
330
358
100
AcDbEntity
  8
2
100
AcDbText
 10
19850.808105
 20
-15057.094727
 30
0.0
 40
0.0
  1
# 167
100
AcDbText
  0
POINT
  5
375
330
358
100
AcDbEntity
  8
2
100
AcDbPoint
 10
19850.808105
 20
-14741.644287
 30
0.0
  0
TEXT
  5
376
330
358
100
AcDbEntity
  8
2
100
AcDbText
 10
19850.808105
 20
-14741.644287
 30
0.0
 40
0.0
  1
# 168
100
AcDbText
  0
POINT
  5
377
330
358
100
AcDbEntity
  8
2
100
AcDbPoint
 10
19877.807617
 20
-14741.644287
 30
0.0
  0
TEXT
  5
378
330
358
100
AcDbEntity
  8
2
100
AcDbText
 10
19877.807617
 20
-14741.644287
 30
0.0
 40
0.0
  1
# 169
100
AcDbText
  0
POINT
  5
379
330
358
100
AcDbEntity
  8
2
100
AcDbPoint
 10
19904.807129
 20
-14741.644287
 30
0.0
  0
TEXT
  5
37A
330
358
100
AcDbEntity
  8
2
100
AcDbText
 10
19904.807129
 20
-14741.644287
 30
0.0
 40
0.0
  1
# 170
100
AcDbText
  0
POINT
  5
37B
330
358
100
AcDbEntity
  8
2
100
AcDbPoint
 10
19931.806641
 20
-14741.644287
 30
0.0
  0
TEXT
  5
37C
330
358
100
AcDbEntity
  8
2
100
AcDbText
 10
19931.806641
 20
-14741.644287
 30
0.0
 40
0.0
  1
# 171
100
AcDbText
  0
POINT
  5
37D
330
358
100
AcDbEntity
  8
2
100
AcDbPoint
 10
19958.806152
 20
-14741.644287
 30
0.0
  0
TEXT
  5
37E
330
358
100
AcDbEntity
  8
2
100
AcDbText
 10
19958.806152
 20
-14741.644287
 30
0.0
 40
0.0
  1
# 172
100
AcDbText
  0
POINT
  5
37F
330
358
100
AcDbEntity
  8
2
100
AcDbPoint
 10
19958.806152
 20
-15057.094727
 30
0.0
  0
TEXT
  5
380
330
358
100
AcDbEntity
  8
2
100
AcDbText
 10
19958.806152
 20
-15057.094727
 30
0.0
 40
0.0
  1
# 173
100
AcDbText
  0
POINT
  5
381
330
358
100
AcDbEntity
  8
2
100
AcDbPoint
 10
19931.806641
 20
-15057.094727
 30
0.0
  0
TEXT
  5
382
330
358
100
AcDbEntity
  8
2
100
AcDbText
 10
19931.806641
 20
-15057.094727
 30
0.0
 40
0.0
  1
# 174
100
AcDbText
  0
POINT
  5
383
330
358
100
AcDbEntity
  8
2
100
AcDbPoint
 10
19904.807129
 20
-15057.094727
 30
0.0
  0
TEXT
  5
384
330
358
100
AcDbEntity
  8
2
100
AcDbText
 10
19904.807129
 20
-15057.094727
 30
0.0
 40
0.0
  1
# 175
100
AcDbText
  0
POINT
  5
385
330
358
100
AcDbEntity
  8
3
100
AcDbPoint
 10
19850.808105
 20
-15028.59976
 30
0.0
  0
POINT
  5
386
330
358
100
AcDbEntity
  8
3
100
AcDbPoint
 10
19850.808105
 20
-14972.189852
 30
0.0
  0
POINT
  5
387
330
358
100
AcDbEntity
  8
3
100
AcDbPoint
 10
19850.808105
 20
-14915.77965
 30
0.0
  0
POINT
  5
388
330
358
100
AcDbEntity
  8
3
100
AcDbPoint
 10
19850.808105
 20
-14859.369298
 30
0.0
  0
POINT
  5
389
330
358
100
AcDbEntity
  8
3
100
AcDbPoint
 10
19850.808105
 20
-14805.509231
 30
0.0
  0
POINT
  5
38A
330
358
100
AcDbEntity
  8
3
100
AcDbPoint
 10
19958.806152
 20
-14805.509231
 30
0.0
  0
POINT
  5
38B
330
358
100
AcDbEntity
  8
3
100
AcDbPoint
 10
19958.806152
 20
-14859.369298
 30
0.0
  0
POINT
  5
38C
330
358
100
AcDbEntity
  8
3
100
AcDbPoint
 10
19958.806152
 20
-14915.77965
 30
0.0
  0
POINT
  5
38D
330
358
100
AcDbEntity
  8
3
100
AcDbPoint
 10
19958.806152
 20
-14972.189852
 30
0.0
  0
POINT
  5
38E
330
358
100
AcDbEntity
  8
3
100
AcDbPoint
 10
19958.806152
 20
-15028.59976
 30
0.0
  0
POLYLINE
  5
38F
330
358
100
AcDbEntity
  8
8
100
AcDb2dPolyline
 66
1
 10
0.0
 20
0.0
 30
0.0
 70
0
  0
VERTEX
  5
390
330
38F
100
AcDbEntity
  8
8
100
AcDbVertex
100
AcDb2dVertex
 10
19904.807129
 20
-14741.644287
 30
0.0
 70
0
  0
VERTEX
  5
391
330
38F
100
AcDbEntity
  8
8
100
AcDbVertex
100
AcDb2dVertex
 10
19904.807129
 20
-14796.141823
 30
0.0
 70
0
  0
VERTEX
  5
392
330
38F
100
AcDbEntity
  8
8
100
AcDbVertex
100
AcDb2dVertex
 10
19904.807129
 20
-14848.134078
 30
0.0
 70
0
  0
VERTEX
  5
393
330
38F
100
AcDbEntity
  8
8
100
AcDbVertex
100
AcDb2dVertex
 10
19904.807129
 20
-14899.766054
 30
0.0
 70
0
  0
VERTEX
  5
394
330
38F
100
AcDbEntity
  8
8
100
AcDbVertex
100
AcDb2dVertex
 10
19904.807129
 20
-14950.988573
 30
0.0
 70
0
  0
VERTEX
  5
395
330
38F
100
AcDbEntity
  8
8
100
AcDbVertex
100
AcDb2dVertex
 10
19904.807129
 20
-15002.156532
 30
0.0
 70
0
  0
VERTEX
  5
396
330
38F
100
AcDbEntity
  8
8
100
AcDbVertex
100
AcDb2dVertex
 10
19904.807129
 20
-15052.722382
 30
0.0
 70
0
  0
VERTEX
  5
397
330
38F
100
AcDbEntity
  8
8
100
AcDbVertex
100
AcDb2dVertex
 10
19904.807129
 20
-15057.094727
 30
0.0
 70
0
  0
SEQEND
  5
398
330
38F
100
AcDbEntity
  8
8
  0
POINT
  5
399
330
358
100
AcDbEntity
  8
2
100
AcDbPoint
 10
19904.807129
 20
-14741.644287
 30
0.0
  0
TEXT
  5
39A
330
358
100
AcDbEntity
  8
2
100
AcDbText
 10
19904.807129
 20
-14741.644287
 30
0.0
 40
0.0
  1
# 176
100
AcDbText
  0
POINT
  5
39B
330
358
100
AcDbEntity
  8
2
100
AcDbPoint
 10
19904.807129
 20
-15057.094727
 30
0.0
  0
TEXT
  5
39C
330
358
100
AcDbEntity
  8
2
100
AcDbText
 10
19904.807129
 20
-15057.094727
 30
0.0
 40
0.0
  1
# 177
100
AcDbText
  0
POINT
  5
39D
330
358
100
AcDbEntity
  8
3
100
AcDbPoint
 10
19904.807129
 20
-14796.141823
 30
0.0
  0
POINT
  5
39E
330
358
100
AcDbEntity
  8
3
100
AcDbPoint
 10
19904.807129
 20
-14848.134078
 30
0.0
  0
POINT
  5
39F
330
358
100
AcDbEntity
  8
3
100
AcDbPoint
 10
19904.807129
 20
-14899.766054
 30
0.0
  0
POINT
  5
3A0
330
358
100
AcDbEntity
  8
3
100
AcDbPoint
 10
19904.807129
 20
-14950.988573
 30
0.0
  0
POINT
  5
3A1
330
358
100
AcDbEntity
  8
3
100
AcDbPoint
 10
19904.807129
 20
-15002.156532
 30
0.0
  0
POINT
  5
3A2
330
358
100
AcDbEntity
  8
3
100
AcDbPoint
 10
19904.807129
 20
-15052.722382
 30
0.0
  0
POLYLINE
  5
3A3
330
358
100
AcDbEntity
  8
8
100
AcDb2dPolyline
 66
1
 10
0.0
 20
0.0
 30
0.0
 70
0
  0
VERTEX
  5
3A4
330
3A3
100
AcDbEntity
  8
8
100
AcDbVertex
100
AcDb2dVertex
 10
19877.807617
 20
-14741.644287
 30
0.0
 70
0
  0
VERTEX
  5
3A5
330
3A3
100
AcDbEntity
  8
8
100
AcDbVertex
100
AcDb2dVertex
 10
19877.807617
 20
-14796.106114
 30
0.0
 70
0
  0
VERTEX
  5
3A6
330
3A3
100
AcDbEntity
  8
8
100
AcDbVertex
100
AcDb2dVertex
 10
19877.807617
 20
-14847.938429
 30
0.0
 70
0
  0
VERTEX
  5
3A7
330
3A3
100
AcDbEntity
  8
8
100
AcDbVertex
100
AcDb2dVertex
 10
19877.807617
 20
-14899.765106
 30
0.0
 70
0
  0
VERTEX
  5
3A8
330
3A3
100
AcDbEntity
  8
8
100
AcDbVertex
100
AcDb2dVertex
 10
19877.807617
 20
-14950.986319
 30
0.0
 70
0
  0
VERTEX
  5
3A9
330
3A3
100
AcDbEntity
  8
8
100
AcDbVertex
100
AcDb2dVertex
 10
19877.807617
 20
-15002.15404
 30
0.0
 70
0
  0
VERTEX
  5
3AA
330
3A3
100
AcDbEntity
  8
8
100
AcDbVertex
100
AcDb2dVertex
 10
19877.807617
 20
-15052.721675
 30
0.0
 70
0
  0
VERTEX
  5
3AB
330
3A3
100
AcDbEntity
  8
8
100
AcDbVertex
100
AcDb2dVertex
 10
19877.807617
 20
-15057.094727
 30
0.0
 70
0
  0
SEQEND
  5
3AC
330
3A3
100
AcDbEntity
  8
8
  0
POINT
  5
3AD
330
358
100
AcDbEntity
  8
2
100
AcDbPoint
 10
19877.807617
 20
-14741.644287
 30
0.0
  0
TEXT
  5
3AE
330
358
100
AcDbEntity
  8
2
100
AcDbText
 10
19877.807617
 20
-14741.644287
 30
0.0
 40
0.0
  1
# 178
100
AcDbText
  0
POINT
  5
3AF
330
358
100
AcDbEntity
  8
2
100
AcDbPoint
 10
19877.807617
 20
-15057.094727
 30
0.0
  0
TEXT
  5
3B0
330
358
100
AcDbEntity
  8
2
100
AcDbText
 10
19877.807617
 20
-15057.094727
 30
0.0
 40
0.0
  1
# 179
100
AcDbText
  0
POINT
  5
3B1
330
358
100
AcDbEntity
  8
3
100
AcDbPoint
 10
19877.807617
 20
-14796.106114
 30
0.0
  0
POINT
  5
3B2
330
358
100
AcDbEntity
  8
3
100
AcDbPoint
 10
19877.807617
 20
-14847.938429
 30
0.0
  0
POINT
  5
3B3
330
358
100
AcDbEntity
  8
3
100
AcDbPoint
 10
19877.807617
 20
-14899.765106
 30
0.0
  0
POINT
  5
3B4
330
358
100
AcDbEntity
  8
3
100
AcDbPoint
 10
19877.807617
 20
-14950.986319
 30
0.0
  0
POINT
  5
3B5
330
358
100
AcDbEntity
  8
3
100
AcDbPoint
 10
19877.807617
 20
-15002.15404
 30
0.0
  0
POINT
  5
3B6
330
358
100
AcDbEntity
  8
3
100
AcDbPoint
 10
19877.807617
 20
-15052.721675
 30
0.0
  0
POLYLINE
  5
3B7
330
358
100
AcDbEntity
  8
8
100
AcDb2dPolyline
 66
1
 10
0.0
 20
0.0
 30
0.0
 70
0
  0
VERTEX
  5
3B8
330
3B7
100
AcDbEntity
  8
8
100
AcDbVertex
100
AcDb2dVertex
 10
19852.30835
 20
-14741.644287
 30
0.0
 70
0
  0
VERTEX
  5
3B9
330
3B7
100
AcDbEntity
  8
8
100
AcDbVertex
100
AcDb2dVertex
 10
19852.30835
 20
-14794.822031
 30
0.0
 70
0
  0
VERTEX
  5
3BA
330
3B7
100
AcDbEntity
  8
8
100
AcDbVertex
100
AcDb2dVertex
 10
19852.30835
 20
-14844.895912
 30
0.0
 70
0
  0
VERTEX
  5
3BB
330
3B7
100
AcDbEntity
  8
8
100
AcDbVertex
100
AcDb2dVertex
 10
19852.30835
 20
-14895.068291
 30
0.0
 70
0
  0
VERTEX
  5
3BC
330
3B7
100
AcDbEntity
  8
8
100
AcDbVertex
100
AcDb2dVertex
 10
19852.30835
 20
-14945.85742
 30
0.0
 70
0
  0
VERTEX
  5
3BD
330
3B7
100
AcDbEntity
  8
8
100
AcDbVertex
100
AcDb2dVertex
 10
19852.30835
 20
-14995.92481
 30
0.0
 70
0
  0
VERTEX
  5
3BE
330
3B7
100
AcDbEntity
  8
8
100
AcDbVertex
100
AcDb2dVertex
 10
19852.30835
 20
-15045.508348
 30
0.0
 70
0
  0
VERTEX
  5
3BF
330
3B7
100
AcDbEntity
  8
8
100
AcDbVertex
100
AcDb2dVertex
 10
19852.30835
 20
-15057.094727
 30
0.0
 70
0
  0
SEQEND
  5
3C0
330
3B7
100
AcDbEntity
  8
8
  0
POINT
  5
3C1
330
358
100
AcDbEntity
  8
2
100
AcDbPoint
 10
19852.30835
 20
-14741.644287
 30
0.0
  0
TEXT
  5
3C2
330
358
100
AcDbEntity
  8
2
100
AcDbText
 10
19852.30835
 20
-14741.644287
 30
0.0
 40
0.0
  1
# 180
100
AcDbText
  0
POINT
  5
3C3
330
358
100
AcDbEntity
  8
2
100
AcDbPoint
 10
19852.30835
 20
-15057.094727
 30
0.0
  0
TEXT
  5
3C4
330
358
100
AcDbEntity
  8
2
100
AcDbText
 10
19852.30835
 20
-15057.094727
 30
0.0
 40
0.0
  1
# 181
100
AcDbText
  0
POINT
  5
3C5
330
358
100
AcDbEntity
  8
3
100
AcDbPoint
 10
19852.30835
 20
-14794.822031
 30
0.0
  0
POINT
  5
3C6
330
358
100
AcDbEntity
  8
3
100
AcDbPoint
 10
19852.30835
 20
-14844.895912
 30
0.0
  0
POINT
  5
3C7
330
358
100
AcDbEntity
  8
3
100
AcDbPoint
 10
19852.30835
 20
-14895.068291
 30
0.0
  0
POINT
  5
3C8
330
358
100
AcDbEntity
  8
3
100
AcDbPoint
 10
19852.30835
 20
-14945.85742
 30
0.0
  0
POINT
  5
3C9
330
358
100
AcDbEntity
  8
3
100
AcDbPoint
 10
19852.30835
 20
-14995.92481
 30
0.0
  0
POINT
  5
3CA
330
358
100
AcDbEntity
  8
3
100
AcDbPoint
 10
19852.30835
 20
-15045.508348
 30
0.0
  0
POLYLINE
  5
3CB
330
358
100
AcDbEntity
  8
8
100
AcDb2dPolyline
 66
1
 10
0.0
 20
0.0
 30
0.0
 70
0
  0
VERTEX
  5
3CC
330
3CB
100
AcDbEntity
  8
8
100
AcDbVertex
100
AcDb2dVertex
 10
19931.806641
 20
-14741.644287
 30
0.0
 70
0
  0
VERTEX
  5
3CD
330
3CB
100
AcDbEntity
  8
8
100
AcDbVertex
100
AcDb2dVertex
 10
19931.806641
 20
-14796.106114
 30
0.0
 70
0
  0
VERTEX
  5
3CE
330
3CB
100
AcDbEntity
  8
8
100
AcDbVertex
100
AcDb2dVertex
 10
19931.806641
 20
-14847.938429
 30
0.0
 70
0
  0
VERTEX
  5
3CF
330
3CB
100
AcDbEntity
  8
8
100
AcDbVertex
100
AcDb2dVertex
 10
19931.806641
 20
-14899.765106
 30
0.0
 70
0
  0
VERTEX
  5
3D0
330
3CB
100
AcDbEntity
  8
8
100
AcDbVertex
100
AcDb2dVertex
 10
19931.806641
 20
-14950.986319
 30
0.0
 70
0
  0
VERTEX
  5
3D1
330
3CB
100
AcDbEntity
  8
8
100
AcDbVertex
100
AcDb2dVertex
 10
19931.806641
 20
-15002.15404
 30
0.0
 70
0
  0
VERTEX
  5
3D2
330
3CB
100
AcDbEntity
  8
8
100
AcDbVertex
100
AcDb2dVertex
 10
19931.806641
 20
-15052.721675
 30
0.0
 70
0
  0
VERTEX
  5
3D3
330
3CB
100
AcDbEntity
  8
8
100
AcDbVertex
100
AcDb2dVertex
 10
19931.806641
 20
-15057.094727
 30
0.0
 70
0
  0
SEQEND
  5
3D4
330
3CB
100
AcDbEntity
  8
8
  0
POINT
  5
3D5
330
358
100
AcDbEntity
  8
2
100
AcDbPoint
 10
19931.806641
 20
-14741.644287
 30
0.0
  0
TEXT
  5
3D6
330
358
100
AcDbEntity
  8
2
100
AcDbText
 10
19931.806641
 20
-14741.644287
 30
0.0
 40
0.0
  1
# 182
100
AcDbText
  0
POINT
  5
3D7
330
358
100
AcDbEntity
  8
2
100
AcDbPoint
 10
19931.806641
 20
-15057.094727
 30
0.0
  0
TEXT
  5
3D8
330
358
100
AcDbEntity
  8
2
100
AcDbText
 10
19931.806641
 20
-15057.094727
 30
0.0
 40
0.0
  1
# 183
100
AcDbText
  0
POINT
  5
3D9
330
358
100
AcDbEntity
  8
3
100
AcDbPoint
 10
19931.806641
 20
-14796.106114
 30
0.0
  0
POINT
  5
3DA
330
358
100
AcDbEntity
  8
3
100
AcDbPoint
 10
19931.806641
 20
-14847.938429
 30
0.0
  0
POINT
  5
3DB
330
358
100
AcDbEntity
  8
3
100
AcDbPoint
 10
19931.806641
 20
-14899.765106
 30
0.0
  0
POINT
  5
3DC
330
358
100
AcDbEntity
  8
3
100
AcDbPoint
 10
19931.806641
 20
-14950.986319
 30
0.0
  0
POINT
  5
3DD
330
358
100
AcDbEntity
  8
3
100
AcDbPoint
 10
19931.806641
 20
-15002.15404
 30
0.0
  0
POINT
  5
3DE
330
358
100
AcDbEntity
  8
3
100
AcDbPoint
 10
19931.806641
 20
-15052.721675
 30
0.0
  0
POLYLINE
  5
3DF
330
358
100
AcDbEntity
  8
8
100
AcDb2dPolyline
 66
1
 10
0.0
 20
0.0
 30
0.0
 70
0
  0
VERTEX
  5
3E0
330
3DF
100
AcDbEntity
  8
8
100
AcDbVertex
100
AcDb2dVertex
 10
19957.305908
 20
-14741.644287
 30
0.0
 70
0
  0
VERTEX
  5
3E1
330
3DF
100
AcDbEntity
  8
8
100
AcDbVertex
100
AcDb2dVertex
 10
19957.305908
 20
-14794.822031
 30
0.0
 70
0
  0
VERTEX
  5
3E2
330
3DF
100
AcDbEntity
  8
8
100
AcDbVertex
100
AcDb2dVertex
 10
19957.305908
 20
-14844.895912
 30
0.0
 70
0
  0
VERTEX
  5
3E3
330
3DF
100
AcDbEntity
  8
8
100
AcDbVertex
100
AcDb2dVertex
 10
19957.305908
 20
-14895.068291
 30
0.0
 70
0
  0
VERTEX
  5
3E4
330
3DF
100
AcDbEntity
  8
8
100
AcDbVertex
100
AcDb2dVertex
 10
19957.305908
 20
-14945.85742
 30
0.0
 70
0
  0
VERTEX
  5
3E5
330
3DF
100
AcDbEntity
  8
8
100
AcDbVertex
100
AcDb2dVertex
 10
19957.305908
 20
-14995.92481
 30
0.0
 70
0
  0
VERTEX
  5
3E6
330
3DF
100
AcDbEntity
  8
8
100
AcDbVertex
100
AcDb2dVertex
 10
19957.305908
 20
-15045.508348
 30
0.0
 70
0
  0
VERTEX
  5
3E7
330
3DF
100
AcDbEntity
  8
8
100
AcDbVertex
100
AcDb2dVertex
 10
19957.305908
 20
-15057.094727
 30
0.0
 70
0
  0
SEQEND
  5
3E8
330
3DF
100
AcDbEntity
  8
8
  0
POINT
  5
3E9
330
358
100
AcDbEntity
  8
2
100
AcDbPoint
 10
19957.305908
 20
-14741.644287
 30
0.0
  0
TEXT
  5
3EA
330
358
100
AcDbEntity
  8
2
100
AcDbText
 10
19957.305908
 20
-14741.644287
 30
0.0
 40
0.0
  1
# 184
100
AcDbText
  0
POINT
  5
3EB
330
358
100
AcDbEntity
  8
2
100
AcDbPoint
 10
19957.305908
 20
-15057.094727
 30
0.0
  0
TEXT
  5
3EC
330
358
100
AcDbEntity
  8
2
100
AcDbText
 10
19957.305908
 20
-15057.094727
 30
0.0
 40
0.0
  1
# 185
100
AcDbText
  0
POINT
  5
3ED
330
358
100
AcDbEntity
  8
3
100
AcDbPoint
 10
19957.305908
 20
-14794.822031
 30
0.0
  0
POINT
  5
3EE
330
358
100
AcDbEntity
  8
3
100
AcDbPoint
 10
19957.305908
 20
-14844.895912
 30
0.0
  0
POINT
  5
3EF
330
358
100
AcDbEntity
  8
3
100
AcDbPoint
 10
19957.305908
 20
-14895.068291
 30
0.0
  0
POINT
  5
3F0
330
358
100
AcDbEntity
  8
3
100
AcDbPoint
 10
19957.305908
 20
-14945.85742
 30
0.0
  0
POINT
  5
3F1
330
358
100
AcDbEntity
  8
3
100
AcDbPoint
 10
19957.305908
 20
-14995.92481
 30
0.0
  0
POINT
  5
3F2
330
358
100
AcDbEntity
  8
3
100
AcDbPoint
 10
19957.305908
 20
-15045.508348
 30
0.0
  0
POINT
  5
3F3
330
358
100
AcDbEntity
  8
13
100
AcDbPoint
 10
19918.304443
 20
-14751.428223
 30
0.0
  0
TEXT
  5
3F4
330
358
100
AcDbEntity
  8
13
100
AcDbText
 10
19918.304443
 20
-14751.428223
 30
0.0
 40
0.0
  1
# 186
100
AcDbText
  0
POINT
  5
3F5
330
358
100
AcDbEntity
  8
13
100
AcDbPoint
 10
19918.304443
 20
-14751.428223
 30
0.0
  0
TEXT
  5
3F6
330
358
100
AcDbEntity
  8
13
100
AcDbText
 10
19918.304443
 20
-14751.428223
 30
0.0
 40
0.0
  1
# 187
100
AcDbText
  0
POINT
  5
3F7
330
358
100
AcDbEntity
  8
13
100
AcDbPoint
 10
19918.304443
 20
-14831.422119
 30
0.0
  0
TEXT
  5
3F8
330
358
100
AcDbEntity
  8
13
100
AcDbText
 10
19918.304443
 20
-14831.422119
 30
0.0
 40
0.0
  1
# 188
100
AcDbText
  0
POINT
  5
3F9
330
358
100
AcDbEntity
  8
13
100
AcDbPoint
 10
19918.304443
 20
-14831.422119
 30
0.0
  0
TEXT
  5
3FA
330
358
100
AcDbEntity
  8
13
100
AcDbText
 10
19918.304443
 20
-14831.422119
 30
0.0
 40
0.0
  1
# 189
100
AcDbText
  0
POINT
  5
3FB
330
358
100
AcDbEntity
  8
13
100
AcDbPoint
 10
19918.304443
 20
-14751.428223
 30
0.0
  0
TEXT
  5
3FC
330
358
100
AcDbEntity
  8
13
100
AcDbText
 10
19918.304443
 20
-14751.428223
 30
0.0
 40
0.0
  1
# 190
100
AcDbText
  0
POINT
  5
3FD
330
358
100
AcDbEntity
  8
13
100
AcDbPoint
 10
19918.304443
 20
-14751.428223
 30
0.0
  0
TEXT
  5
3FE
330
358
100
AcDbEntity
  8
13
100
AcDbText
 10
19918.304443
 20
-14751.428223
 30
0.0
 40
0.0
  1
# 191
100
AcDbText
  0
POINT
  5
3FF
330
358
100
AcDbEntity
  8
13
100
AcDbPoint
 10
19918.304443
 20
-14831.422119
 30
0.0
  0
TEXT
  5
400
330
358
100
AcDbEntity
  8
13
100
AcDbText
 10
19918.304443
 20
-14831.422119
 30
0.0
 40
0.0
  1
# 192
100
AcDbText
  0
POINT
  5
401
330
358
100
AcDbEntity
  8
13
100
AcDbPoint
 10
19918.304443
 20
-14831.422119
 30
0.0
  0
TEXT
  5
402
330
358
100
AcDbEntity
  8
13
100
AcDbText
 10
19918.304443
 20
-14831.422119
 30
0.0
 40
0.0
  1
# 193
100
AcDbText
  0
POINT
  5
403
330
358
100
AcDbEntity
  8
13
100
AcDbPoint
 10
19918.304443
 20
-14911.419678
 30
0.0
  0
TEXT
  5
404
330
358
100
AcDbEntity
  8
13
100
AcDbText
 10
19918.304443
 20
-14911.419678
 30
0.0
 40
0.0
  1
# 194
100
AcDbText
  0
POINT
  5
405
330
358
100
AcDbEntity
  8
13
100
AcDbPoint
 10
19918.304443
 20
-14911.419678
 30
0.0
  0
TEXT
  5
406
330
358
100
AcDbEntity
  8
13
100
AcDbText
 10
19918.304443
 20
-14911.419678
 30
0.0
 40
0.0
  1
# 195
100
AcDbText
  0
POINT
  5
407
330
358
100
AcDbEntity
  8
13
100
AcDbPoint
 10
19918.304443
 20
-14911.419678
 30
0.0
  0
TEXT
  5
408
330
358
100
AcDbEntity
  8
13
100
AcDbText
 10
19918.304443
 20
-14911.419678
 30
0.0
 40
0.0
  1
# 196
100
AcDbText
  0
POINT
  5
409
330
358
100
AcDbEntity
  8
13
100
AcDbPoint
 10
19918.304443
 20
-14911.419678
 30
0.0
  0
TEXT
  5
40A
330
358
100
AcDbEntity
  8
13
100
AcDbText
 10
19918.304443
 20
-14911.419678
 30
0.0
 40
0.0
  1
# 197
100
AcDbText
  0
POINT
  5
40B
330
358
100
AcDbEntity
  8
13
100
AcDbPoint
 10
19945.305176
 20
-14751.428223
 30
0.0
  0
TEXT
  5
40C
330
358
100
AcDbEntity
  8
13
100
AcDbText
 10
19945.305176
 20
-14751.428223
 30
0.0
 40
0.0
  1
# 198
100
AcDbText
  0
POINT
  5
40D
330
358
100
AcDbEntity
  8
13
100
AcDbPoint
 10
19945.305176
 20
-14751.428223
 30
0.0
  0
TEXT
  5
40E
330
358
100
AcDbEntity
  8
13
100
AcDbText
 10
19945.305176
 20
-14751.428223
 30
0.0
 40
0.0
  1
# 199
100
AcDbText
  0
POINT
  5
40F
330
358
100
AcDbEntity
  8
13
100
AcDbPoint
 10
19945.305176
 20
-14831.422119
 30
0.0
  0
TEXT
  5
410
330
358
100
AcDbEntity
  8
13
100
AcDbText
 10
19945.305176
 20
-14831.422119
 30
0.0
 40
0.0
  1
# 200
100
AcDbText
  0
POINT
  5
411
330
358
100
AcDbEntity
  8
13
100
AcDbPoint
 10
19945.305176
 20
-14831.422119
 30
0.0
  0
TEXT
  5
412
330
358
100
AcDbEntity
  8
13
100
AcDbText
 10
19945.305176
 20
-14831.422119
 30
0.0
 40
0.0
  1
# 201
100
AcDbText
  0
POINT
  5
413
330
358
100
AcDbEntity
  8
13
100
AcDbPoint
 10
19945.305176
 20
-14751.428223
 30
0.0
  0
TEXT
  5
414
330
358
100
AcDbEntity
  8
13
100
AcDbText
 10
19945.305176
 20
-14751.428223
 30
0.0
 40
0.0
  1
# 202
100
AcDbText
  0
POINT
  5
415
330
358
100
AcDbEntity
  8
13
100
AcDbPoint
 10
19945.305176
 20
-14751.428223
 30
0.0
  0
TEXT
  5
416
330
358
100
AcDbEntity
  8
13
100
AcDbText
 10
19945.305176
 20
-14751.428223
 30
0.0
 40
0.0
  1
# 203
100
AcDbText
  0
POINT
  5
417
330
358
100
AcDbEntity
  8
13
100
AcDbPoint
 10
19945.305176
 20
-14831.422119
 30
0.0
  0
TEXT
  5
418
330
358
100
AcDbEntity
  8
13
100
AcDbText
 10
19945.305176
 20
-14831.422119
 30
0.0
 40
0.0
  1
# 204
100
AcDbText
  0
POINT
  5
419
330
358
100
AcDbEntity
  8
13
100
AcDbPoint
 10
19945.305176
 20
-14831.422119
 30
0.0
  0
TEXT
  5
41A
330
358
100
AcDbEntity
  8
13
100
AcDbText
 10
19945.305176
 20
-14831.422119
 30
0.0
 40
0.0
  1
# 205
100
AcDbText
  0
POINT
  5
41B
330
358
100
AcDbEntity
  8
13
100
AcDbPoint
 10
19945.305176
 20
-14911.419678
 30
0.0
  0
TEXT
  5
41C
330
358
100
AcDbEntity
  8
13
100
AcDbText
 10
19945.305176
 20
-14911.419678
 30
0.0
 40
0.0
  1
# 206
100
AcDbText
  0
POINT
  5
41D
330
358
100
AcDbEntity
  8
13
100
AcDbPoint
 10
19945.305176
 20
-14911.419678
 30
0.0
  0
TEXT
  5
41E
330
358
100
AcDbEntity
  8
13
100
AcDbText
 10
19945.305176
 20
-14911.419678
 30
0.0
 40
0.0
  1
# 207
100
AcDbText
  0
POINT
  5
41F
330
358
100
AcDbEntity
  8
13
100
AcDbPoint
 10
19945.305176
 20
-14911.419678
 30
0.0
  0
TEXT
  5
420
330
358
100
AcDbEntity
  8
13
100
AcDbText
 10
19945.305176
 20
-14911.419678
 30
0.0
 40
0.0
  1
# 208
100
AcDbText
  0
POINT
  5
421
330
358
100
AcDbEntity
  8
13
100
AcDbPoint
 10
19945.305176
 20
-14911.419678
 30
0.0
  0
TEXT
  5
422
330
358
100
AcDbEntity
  8
13
100
AcDbText
 10
19945.305176
 20
-14911.419678
 30
0.0
 40
0.0
  1
# 209
100
AcDbText
  0
POINT
  5
423
330
358
100
AcDbEntity
  8
13
100
AcDbPoint
 10
19918.304443
 20
-14991.419678
 30
0.0
  0
TEXT
  5
424
330
358
100
AcDbEntity
  8
13
100
AcDbText
 10
19918.304443
 20
-14991.419678
 30
0.0
 40
0.0
  1
# 210
100
AcDbText
  0
POINT
  5
425
330
358
100
AcDbEntity
  8
13
100
AcDbPoint
 10
19918.304443
 20
-14991.419678
 30
0.0
  0
TEXT
  5
426
330
358
100
AcDbEntity
  8
13
100
AcDbText
 10
19918.304443
 20
-14991.419678
 30
0.0
 40
0.0
  1
# 211
100
AcDbText
  0
POINT
  5
427
330
358
100
AcDbEntity
  8
13
100
AcDbPoint
 10
19918.304443
 20
-14991.419678
 30
0.0
  0
TEXT
  5
428
330
358
100
AcDbEntity
  8
13
100
AcDbText
 10
19918.304443
 20
-14991.419678
 30
0.0
 40
0.0
  1
# 212
100
AcDbText
  0
POINT
  5
429
330
358
100
AcDbEntity
  8
13
100
AcDbPoint
 10
19918.304443
 20
-14991.419678
 30
0.0
  0
TEXT
  5
42A
330
358
100
AcDbEntity
  8
13
100
AcDbText
 10
19918.304443
 20
-14991.419678
 30
0.0
 40
0.0
  1
# 213
100
AcDbText
  0
POINT
  5
42B
330
358
100
AcDbEntity
  8
13
100
AcDbPoint
 10
19945.305176
 20
-14991.419678
 30
0.0
  0
TEXT
  5
42C
330
358
100
AcDbEntity
  8
13
100
AcDbText
 10
19945.305176
 20
-14991.419678
 30
0.0
 40
0.0
  1
# 214
100
AcDbText
  0
POINT
  5
42D
330
358
100
AcDbEntity
  8
13
100
AcDbPoint
 10
19945.305176
 20
-14991.419678
 30
0.0
  0
TEXT
  5
42E
330
358
100
AcDbEntity
  8
13
100
AcDbText
 10
19945.305176
 20
-14991.419678
 30
0.0
 40
0.0
  1
# 215
100
AcDbText
  0
POINT
  5
42F
330
358
100
AcDbEntity
  8
13
100
AcDbPoint
 10
19945.305176
 20
-14991.419678
 30
0.0
  0
TEXT
  5
430
330
358
100
AcDbEntity
  8
13
100
AcDbText
 10
19945.305176
 20
-14991.419678
 30
0.0
 40
0.0
  1
# 216
100
AcDbText
  0
POINT
  5
431
330
358
100
AcDbEntity
  8
13
100
AcDbPoint
 10
19945.305176
 20
-14991.419678
 30
0.0
  0
TEXT
  5
432
330
358
100
AcDbEntity
  8
13
100
AcDbText
 10
19945.305176
 20
-14991.419678
 30
0.0
 40
0.0
  1
# 217
100
AcDbText
  0
LINE
  5
433
330
358
100
AcDbEntity
  8
7
100
AcDbLine
 10
19896.685791
 20
-14778.098145
 30
0.0
 11
19896.685791
 21
-15020.306396
 31
0.0
  0
TEXT
  5
434
330
358
100
AcDbEntity
  8
1
100
AcDbText
 10
19904.807129
 20
-14899.369507
 30
0.0
 40
10.0
  1
Piece Name: 0AD2.布衬_门筒右合并件_0AD230.M
100
AcDbText
  0
TEXT
  5
435
330
358
100
AcDbEntity
  8
1
100
AcDbText
 10
19904.807129
 20
-14884.369507
 30
0.0
 40
10.0
  1
Size: M
100
AcDbText
  0
TEXT
  5
436
330
358
100
AcDbEntity
  8
1
100
AcDbText
 10
19904.807129
 20
-14869.369507
 30
0.0
 40
10.0
  1
Annotation: 
100
AcDbText
  0
TEXT
  5
437
330
358
100
AcDbEntity
  8
1
100
AcDbText
 10
19904.807129
 20
-14854.369507
 30
0.0
 40
10.0
  1
Quantity: 1
100
AcDbText
  0
TEXT
  5
438
330
358
100
AcDbEntity
  8
1
100
AcDbText
 10
19904.807129
 20
-14839.369507
 30
0.0
 40
10.0
  1
Material: 布衬
100
AcDbText
  0
TEXT
  5
439
330
358
100
AcDbEntity
  8
1
100
AcDbText
 10
19904.807129
 20
-14839.369507
 30
0.0
 40
10.0
  1
Category: 5
100
AcDbText
  0
ENDBLK
  5
35A
330
358
100
AcDbEntity
  8
0
100
AcDbBlockEnd
  0
BLOCK
  5
43B
330
43A
100
AcDbEntity
  8
0
100
AcDbBlockBegin
  2
0AD2.面料_前片右合并件_镜像改名.M_m0
 70
0
 10
0.0
 20
0.0
 30
0.0
  3
0AD2.面料_前片右合并件_镜像改名.M_m0
  1

  0
POINT
  5
43D
330
43A
100
AcDbEntity
  8
2
100
AcDbPoint
 10
-19244.671631
 20
-15036.450195
 30
0.0
  0
POINT
  5
43E
330
43A
100
AcDbEntity
  8
2
100
AcDbPoint
 10
-19261.856689
 20
-14738.303223
 30
0.0
  0
POINT
  5
43F
330
43A
100
AcDbEntity
  8
2
100
AcDbPoint
 10
-19385.81665
 20
-14738.303223
 30
0.0
  0
POINT
  5
440
330
43A
100
AcDbEntity
  8
2
100
AcDbPoint
 10
-19509.776611
 20
-14738.303223
 30
0.0
  0
POINT
  5
441
330
43A
100
AcDbEntity
  8
2
100
AcDbPoint
 10
-19509.776611
 20
-15053.753662
 30
0.0
  0
POINT
  5
442
330
43A
100
AcDbEntity
  8
3
100
AcDbPoint
 10
-19246.88512
 20
-14997.790545
 30
0.0
  0
POINT
  5
443
330
43A
100
AcDbEntity
  8
3
100
AcDbPoint
 10
-19249.784109
 20
-14947.195755
 30
0.0
  0
POINT
  5
444
330
43A
100
AcDbEntity
  8
3
100
AcDbPoint
 10
-19252.755473
 20
-14895.486204
 30
0.0
  0
POINT
  5
445
330
43A
100
AcDbEntity
  8
3
100
AcDbPoint
 10
-19255.709686
 20
-14844.267876
 30
0.0
  0
POINT
  5
446
330
43A
100
AcDbEntity
  8
3
100
AcDbPoint
 10
-19258.691054
 20
-14792.785403
 30
0.0
  0
POINT
  5
447
330
43A
100
AcDbEntity
  8
3
100
AcDbPoint
 10
-19323.83667
 20
-14738.303223
 30
0.0
  0
POINT
  5
448
330
43A
100
AcDbEntity
  8
3
100
AcDbPoint
 10
-19323.83667
 20
-14738.303223
 30
0.0
  0
POINT
  5
449
330
43A
100
AcDbEntity
  8
3
100
AcDbPoint
 10
-19374.376986
 20
-14738.303223
 30
0.0
  0
POINT
  5
44A
330
43A
100
AcDbEntity
  8
3
100
AcDbPoint
 10
-19447.796631
 20
-14738.303223
 30
0.0
  0
POINT
  5
44B
330
43A
100
AcDbEntity
  8
3
100
AcDbPoint
 10
-19447.796631
 20
-14738.303223
 30
0.0
  0
POINT
  5
44C
330
43A
100
AcDbEntity
  8
3
100
AcDbPoint
 10
-19498.336947
 20
-14738.303223
 30
0.0
  0
POINT
  5
44D
330
43A
100
AcDbEntity
  8
3
100
AcDbPoint
 10
-19509.776611
 20
-14791.520009
 30
0.0
  0
POINT
  5
44E
330
43A
100
AcDbEntity
  8
3
100
AcDbPoint
 10
-19509.776611
 20
-14843.450733
 30
0.0
  0
POINT
  5
44F
330
43A
100
AcDbEntity
  8
3
100
AcDbPoint
 10
-19509.776611
 20
-14893.543222
 30
0.0
  0
POINT
  5
450
330
43A
100
AcDbEntity
  8
3
100
AcDbPoint
 10
-19509.776611
 20
-14944.244859
 30
0.0
  0
POINT
  5
451
330
43A
100
AcDbEntity
  8
3
100
AcDbPoint
 10
-19509.776611
 20
-14994.326702
 30
0.0
  0
POINT
  5
452
330
43A
100
AcDbEntity
  8
3
100
AcDbPoint
 10
-19509.776611
 20
-15043.572897
 30
0.0
  0
POINT
  5
453
330
43A
100
AcDbEntity
  8
3
100
AcDbPoint
 10
-19506.981141
 20
-15053.754206
 30
0.0
  0
POINT
  5
454
330
43A
100
AcDbEntity
  8
3
100
AcDbPoint
 10
-19472.577964
 20
-15053.385479
 30
0.0
  0
POINT
  5
455
330
43A
100
AcDbEntity
  8
3
100
AcDbPoint
 10
-19430.156239
 20
-15051.948852
 30
0.0
  0
POINT
  5
456
330
43A
100
AcDbEntity
  8
3
100
AcDbPoint
 10
-19385.782126
 20
-15049.551105
 30
0.0
  0
POINT
  5
457
330
43A
100
AcDbEntity
  8
3
100
AcDbPoint
 10
-19339.480008
 20
-15046.150906
 30
0.0
  0
POINT
  5
458
330
43A
100
AcDbEntity
  8
3
100
AcDbPoint
 10
-19293.374092
 20
-15041.932967
 30
0.0
  0
POINT
  5
459
330
43A
100
AcDbEntity
  8
4
100
AcDbPoint
 10
-19323.83667
 20
-14738.303223
 30
0.0
  0
POINT
  5
45A
330
43A
100
AcDbEntity
  8
4
100
AcDbPoint
 10
-19447.796631
 20
-14738.303223
 30
0.0
  0
POINT
  5
45B
330
43A
100
AcDbEntity
  8
2
100
AcDbPoint
 10
-19245.81665
 20
-15016.455078
 30
0.0
  0
POINT
  5
45C
330
43A
100
AcDbEntity
  8
2
100
AcDbPoint
 10
-19509.776611
 20
-15033.753662
 30
0.0
  0
POINT
  5
45D
330
43A
100
AcDbEntity
  8
3
100
AcDbPoint
 10
-19295.797053
 20
-15022.075332
 30
0.0
  0
POINT
  5
45E
330
43A
100
AcDbEntity
  8
3
100
AcDbPoint
 10
-19341.806336
 20
-15026.274165
 30
0.0
  0
POINT
  5
45F
330
43A
100
AcDbEntity
  8
3
100
AcDbPoint
 10
-19388.123015
 20
-15029.659234
 30
0.0
  0
POINT
  5
460
330
43A
100
AcDbEntity
  8
3
100
AcDbPoint
 10
-19430.372503
 20
-15031.938829
 30
0.0
  0
POINT
  5
461
330
43A
100
AcDbEntity
  8
3
100
AcDbPoint
 10
-19470.75793
 20
-15033.336508
 30
0.0
  0
POINT
  5
462
330
43A
100
AcDbEntity
  8
3
100
AcDbPoint
 10
-19504.992631
 20
-15033.751765
 30
0.0
  0
LINE
  5
463
330
43A
100
AcDbEntity
  8
7
100
AcDbLine
 10
-19391.140137
 20
-14788.07251
 30
0.0
 11
-19391.140137
 21
-15018.798828
 31
0.0
  0
POLYLINE
  5
464
330
43A
100
AcDbEntity
  8
1
100
AcDb2dPolyline
 66
1
 10
0.0
 20
0.0
 30
0.0
 70
1
  0
VERTEX
  5
465
330
464
100
AcDbEntity
  8
1
100
AcDbVertex
100
AcDb2dVertex
 10
-19244.671631
 20
-15036.450195
 30
0.0
 70
0
  0
VERTEX
  5
466
330
464
100
AcDbEntity
  8
1
100
AcDbVertex
100
AcDb2dVertex
 10
-19246.88512
 20
-14997.790545
 30
0.0
 70
0
  0
VERTEX
  5
467
330
464
100
AcDbEntity
  8
1
100
AcDbVertex
100
AcDb2dVertex
 10
-19249.784109
 20
-14947.195755
 30
0.0
 70
0
  0
VERTEX
  5
468
330
464
100
AcDbEntity
  8
1
100
AcDbVertex
100
AcDb2dVertex
 10
-19252.755473
 20
-14895.486204
 30
0.0
 70
0
  0
VERTEX
  5
469
330
464
100
AcDbEntity
  8
1
100
AcDbVertex
100
AcDb2dVertex
 10
-19255.709686
 20
-14844.267876
 30
0.0
 70
0
  0
VERTEX
  5
46A
330
464
100
AcDbEntity
  8
1
100
AcDbVertex
100
AcDb2dVertex
 10
-19258.691054
 20
-14792.785403
 30
0.0
 70
0
  0
VERTEX
  5
46B
330
464
100
AcDbEntity
  8
1
100
AcDbVertex
100
AcDb2dVertex
 10
-19261.856689
 20
-14738.303223
 30
0.0
 70
0
  0
VERTEX
  5
46C
330
464
100
AcDbEntity
  8
1
100
AcDbVertex
100
AcDb2dVertex
 10
-19323.83667
 20
-14738.303223
 30
0.0
 70
0
  0
VERTEX
  5
46D
330
464
100
AcDbEntity
  8
1
100
AcDbVertex
100
AcDb2dVertex
 10
-19323.83667
 20
-14738.303223
 30
0.0
 70
0
  0
VERTEX
  5
46E
330
464
100
AcDbEntity
  8
1
100
AcDbVertex
100
AcDb2dVertex
 10
-19374.376986
 20
-14738.303223
 30
0.0
 70
0
  0
VERTEX
  5
46F
330
464
100
AcDbEntity
  8
1
100
AcDbVertex
100
AcDb2dVertex
 10
-19385.81665
 20
-14738.303223
 30
0.0
 70
0
  0
VERTEX
  5
470
330
464
100
AcDbEntity
  8
1
100
AcDbVertex
100
AcDb2dVertex
 10
-19447.796631
 20
-14738.303223
 30
0.0
 70
0
  0
VERTEX
  5
471
330
464
100
AcDbEntity
  8
1
100
AcDbVertex
100
AcDb2dVertex
 10
-19447.796631
 20
-14738.303223
 30
0.0
 70
0
  0
VERTEX
  5
472
330
464
100
AcDbEntity
  8
1
100
AcDbVertex
100
AcDb2dVertex
 10
-19498.336947
 20
-14738.303223
 30
0.0
 70
0
  0
VERTEX
  5
473
330
464
100
AcDbEntity
  8
1
100
AcDbVertex
100
AcDb2dVertex
 10
-19509.776611
 20
-14738.303223
 30
0.0
 70
0
  0
VERTEX
  5
474
330
464
100
AcDbEntity
  8
1
100
AcDbVertex
100
AcDb2dVertex
 10
-19509.776611
 20
-14791.520009
 30
0.0
 70
0
  0
VERTEX
  5
475
330
464
100
AcDbEntity
  8
1
100
AcDbVertex
100
AcDb2dVertex
 10
-19509.776611
 20
-14843.450733
 30
0.0
 70
0
  0
VERTEX
  5
476
330
464
100
AcDbEntity
  8
1
100
AcDbVertex
100
AcDb2dVertex
 10
-19509.776611
 20
-14893.543222
 30
0.0
 70
0
  0
VERTEX
  5
477
330
464
100
AcDbEntity
  8
1
100
AcDbVertex
100
AcDb2dVertex
 10
-19509.776611
 20
-14944.244859
 30
0.0
 70
0
  0
VERTEX
  5
478
330
464
100
AcDbEntity
  8
1
100
AcDbVertex
100
AcDb2dVertex
 10
-19509.776611
 20
-14994.326702
 30
0.0
 70
0
  0
VERTEX
  5
479
330
464
100
AcDbEntity
  8
1
100
AcDbVertex
100
AcDb2dVertex
 10
-19509.776611
 20
-15043.572897
 30
0.0
 70
0
  0
VERTEX
  5
47A
330
464
100
AcDbEntity
  8
1
100
AcDbVertex
100
AcDb2dVertex
 10
-19509.776611
 20
-15053.753662
 30
0.0
 70
0
  0
VERTEX
  5
47B
330
464
100
AcDbEntity
  8
1
100
AcDbVertex
100
AcDb2dVertex
 10
-19506.981141
 20
-15053.754206
 30
0.0
 70
0
  0
VERTEX
  5
47C
330
464
100
AcDbEntity
  8
1
100
AcDbVertex
100
AcDb2dVertex
 10
-19472.577964
 20
-15053.385479
 30
0.0
 70
0
  0
VERTEX
  5
47D
330
464
100
AcDbEntity
  8
1
100
AcDbVertex
100
AcDb2dVertex
 10
-19430.156239
 20
-15051.948852
 30
0.0
 70
0
  0
VERTEX
  5
47E
330
464
100
AcDbEntity
  8
1
100
AcDbVertex
100
AcDb2dVertex
 10
-19385.782126
 20
-15049.551105
 30
0.0
 70
0
  0
VERTEX
  5
47F
330
464
100
AcDbEntity
  8
1
100
AcDbVertex
100
AcDb2dVertex
 10
-19339.480008
 20
-15046.150906
 30
0.0
 70
0
  0
VERTEX
  5
480
330
464
100
AcDbEntity
  8
1
100
AcDbVertex
100
AcDb2dVertex
 10
-19293.374092
 20
-15041.932967
 30
0.0
 70
0
  0
VERTEX
  5
481
330
464
100
AcDbEntity
  8
1
100
AcDbVertex
100
AcDb2dVertex
 10
-19244.671631
 20
-15036.450195
 30
0.0
 70
0
  0
SEQEND
  5
482
330
464
100
AcDbEntity
  8
1
  0
POLYLINE
  5
483
330
43A
100
AcDbEntity
  8
8
100
AcDb2dPolyline
 66
1
 10
0.0
 20
0.0
 30
0.0
 70
0
  0
VERTEX
  5
484
330
483
100
AcDbEntity
  8
8
100
AcDbVertex
100
AcDb2dVertex
 10
-19245.81665
 20
-15016.455078
 30
0.0
 70
0
  0
VERTEX
  5
485
330
483
100
AcDbEntity
  8
8
100
AcDbVertex
100
AcDb2dVertex
 10
-19295.797053
 20
-15022.075332
 30
0.0
 70
0
  0
VERTEX
  5
486
330
483
100
AcDbEntity
  8
8
100
AcDbVertex
100
AcDb2dVertex
 10
-19341.806336
 20
-15026.274165
 30
0.0
 70
0
  0
VERTEX
  5
487
330
483
100
AcDbEntity
  8
8
100
AcDbVertex
100
AcDb2dVertex
 10
-19388.123015
 20
-15029.659234
 30
0.0
 70
0
  0
VERTEX
  5
488
330
483
100
AcDbEntity
  8
8
100
AcDbVertex
100
AcDb2dVertex
 10
-19430.372503
 20
-15031.938829
 30
0.0
 70
0
  0
VERTEX
  5
489
330
483
100
AcDbEntity
  8
8
100
AcDbVertex
100
AcDb2dVertex
 10
-19470.75793
 20
-15033.336508
 30
0.0
 70
0
  0
VERTEX
  5
48A
330
483
100
AcDbEntity
  8
8
100
AcDbVertex
100
AcDb2dVertex
 10
-19504.992631
 20
-15033.751765
 30
0.0
 70
0
  0
VERTEX
  5
48B
330
483
100
AcDbEntity
  8
8
100
AcDbVertex
100
AcDb2dVertex
 10
-19509.776611
 20
-15033.753662
 30
0.0
 70
0
  0
SEQEND
  5
48C
330
483
100
AcDbEntity
  8
8
  0
TEXT
  5
48D
330
43A
100
AcDbEntity
  8
2
100
AcDbText
 10
-19244.671631
 20
-15036.450195
 30
0.0
 40
2.5
  1
# 17
 11
-19244.671631
 21
-15036.450195
 31
0.0
100
AcDbText
  0
TEXT
  5
48E
330
43A
100
AcDbEntity
  8
2
100
AcDbText
 10
-19261.856689
 20
-14738.303223
 30
0.0
 40
2.5
  1
# 18
 11
-19261.856689
 21
-14738.303223
 31
0.0
100
AcDbText
  0
TEXT
  5
48F
330
43A
100
AcDbEntity
  8
2
100
AcDbText
 10
-19385.81665
 20
-14738.303223
 30
0.0
 40
2.5
  1
# 19
 11
-19385.81665
 21
-14738.303223
 31
0.0
100
AcDbText
  0
TEXT
  5
490
330
43A
100
AcDbEntity
  8
2
100
AcDbText
 10
-19509.776611
 20
-14738.303223
 30
0.0
 40
2.5
  1
# 20
 11
-19509.776611
 21
-14738.303223
 31
0.0
100
AcDbText
  0
TEXT
  5
491
330
43A
100
AcDbEntity
  8
2
100
AcDbText
 10
-19509.776611
 20
-15053.753662
 30
0.0
 40
2.5
  1
# 21
 11
-19509.776611
 21
-15053.753662
 31
0.0
100
AcDbText
  0
TEXT
  5
492
330
43A
100
AcDbEntity
  8
4
100
AcDbText
 10
-19323.83667
 20
-14738.303223
 30
0.0
 40
2.5
  1
# 22
 11
-19323.83667
 21
-14738.303223
 31
0.0
100
AcDbText
  0
TEXT
  5
493
330
43A
100
AcDbEntity
  8
4
100
AcDbText
 10
-19447.796631
 20
-14738.303223
 30
0.0
 40
2.5
  1
# 23
 11
-19447.796631
 21
-14738.303223
 31
0.0
100
AcDbText
  0
TEXT
  5
494
330
43A
100
AcDbEntity
  8
2
100
AcDbText
 10
-19245.81665
 20
-15016.455078
 30
0.0
 40
2.5
  1
# 24
 11
-19245.81665
 21
-15016.455078
 31
0.0
100
AcDbText
  0
TEXT
  5
495
330
43A
100
AcDbEntity
  8
2
100
AcDbText
 10
-19509.776611
 20
-15033.753662
 30
0.0
 40
2.5
  1
# 25
 11
-19509.776611
 21
-15033.753662
 31
0.0
100
AcDbText
  0
TEXT
  5
496
330
43A
100
AcDbEntity
  8
1
100
AcDbText
 10
-19352.486572
 20
-15008.62915
 30
0.0
 40
10.0
  1
还口2cm
 11
-19352.486572
 21
-15008.62915
 31
0.0
100
AcDbText
  0
TEXT
  5
497
330
43A
100
AcDbEntity
  8
1
100
AcDbText
 10
-19375.160522
 20
-14907.049561
 30
0.0
 40
10.0
  1
Piece Name: 0AD2.面料_前片左合并件_0AD233.M
 11
-19375.160522
 21
-14907.049561
 31
0.0
100
AcDbText
  0
TEXT
  5
498
330
43A
100
AcDbEntity
  8
1
100
AcDbText
 10
-19375.160522
 20
-14892.049561
 30
0.0
 40
10.0
  1
Size: M
 11
-19375.160522
 21
-14892.049561
 31
0.0
100
AcDbText
  0
TEXT
  5
499
330
43A
100
AcDbEntity
  8
1
100
AcDbText
 10
-19375.160522
 20
-14877.049561
 30
0.0
 40
10.0
  1
Annotation: 
 11
-19375.160522
 21
-14877.049561
 31
0.0
100
AcDbText
  0
TEXT
  5
49A
330
43A
100
AcDbEntity
  8
1
100
AcDbText
 10
-19375.160522
 20
-14862.049561
 30
0.0
 40
10.0
  1
Quantity: 1
 11
-19375.160522
 21
-14862.049561
 31
0.0
100
AcDbText
  0
TEXT
  5
49B
330
43A
100
AcDbEntity
  8
1
100
AcDbText
 10
-19375.160522
 20
-14847.049561
 30
0.0
 40
10.0
  1
Material: 面料
 11
-19375.160522
 21
-14847.049561
 31
0.0
100
AcDbText
  0
TEXT
  5
49C
330
43A
100
AcDbEntity
  8
1
100
AcDbText
 10
-19375.160522
 20
-14847.049561
 30
0.0
 40
10.0
  1
Category: 1
 11
-19375.160522
 21
-14847.049561
 31
0.0
100
AcDbText
  0
ENDBLK
  5
43C
330
43A
100
AcDbEntity
  8
0
100
AcDbBlockEnd
  0
ENDSEC
  0
SECTION
  2
ENTITIES
  0
INSERT
  5
2F
330
17
100
AcDbEntity
  8
1
100
AcDbBlockReference
  2
0AD2.面料_后片下合并件.M
 10
18886.499043
 20
-14849.366052
 30
0.0
  0
INSERT
  5
31
330
17
100
AcDbEntity
  8
1
100
AcDbBlockReference
  2
0AD2.面料_前片右合并件_镜像改名.M
 10
19382.360113
 20
-14861.281226
 30
0.0
  0
INSERT
  5
33
330
17
100
AcDbEntity
  8
1
100
AcDbBlockReference
  2
0AD2.面料_门筒右合并件.M
 10
19704.807129
 20
-14899.369556
 30
0.0
  0
INSERT
  5
35
330
17
100
AcDbEntity
  8
1
100
AcDbBlockReference
  2
0AD2.面料_门筒左合并件.M
 10
20168.112793
 20
-14897.252829
 30
0.0
  0
INSERT
  5
37
330
17
100
AcDbEntity
  8
1
100
AcDbBlockReference
  2
0AD2.布衬_门筒左合并件.M
 10
20068.112793
 20
-14897.252829
 30
0.0
  0
INSERT
  5
39
330
17
100
AcDbEntity
  8
1
100
AcDbBlockReference
  2
0AD2.布衬_门筒右合并件.M
 10
19904.807129
 20
-14899.369556
 30
0.0
  0
TEXT
  5
3B
330
17
100
AcDbEntity
  8
1
100
AcDbText
 10
19380.9198
 20
-15075.795898
 30
0.0
 40
10.0
  1
STYLE NAME: 0AD2
100
AcDbText
  0
TEXT
  5
3C
330
17
100
AcDbEntity
  8
1
100
AcDbText
 10
19380.9198
 20
-15090.795898
 30
0.0
 40
10.0
  1
CREATION DATE: 2024/4/27/18/3
100
AcDbText
  0
TEXT
  5
3D
330
17
100
AcDbEntity
  8
1
100
AcDbText
 10
19380.9198
 20
-15105.795898
 30
0.0
 40
10.0
  1
AUTHOR: SZYW
100
AcDbText
  0
TEXT
  5
3E
330
17
100
AcDbEntity
  8
1
100
AcDbText
 10
19380.9198
 20
-15120.795898
 30
0.0
 40
10.0
  1
SAMPLE SIZE: M
100
AcDbText
  0
TEXT
  5
3F
330
17
100
AcDbEntity
  8
1
100
AcDbText
 10
19380.9198
 20
-15135.795898
 30
0.0
 40
10.0
  1
GRADE RULE TABLE: 0AD2
100
AcDbText
  0
TEXT
  5
40
330
17
100
AcDbEntity
  8
1
100
AcDbText
 10
19380.9198
 20
-15150.795898
 30
0.0
 40
10.0
  1
UNITS: METRIC
100
AcDbText
  0
INSERT
  5
41
330
17
100
AcDbEntity
  8
1
100
AcDbBlockReference
  2
0AD2.面料_前片右合并件_镜像改名.M_m0
 10
0.0
 20
0.0
 30
0.0
  0
ENDSEC
  0
SECTION
  2
OBJECTS
  0
DICTIONARY
  5
A
330
0
100
AcDbDictionary
280
0
281
1
  3
ACAD_COLOR
350
B
  3
ACAD_GROUP
350
C
  3
ACAD_LAYOUT
350
D
  3
ACAD_MATERIAL
350
E
  3
ACAD_MLEADERSTYLE
350
F
  3
ACAD_MLINESTYLE
350
10
  3
ACAD_PLOTSETTINGS
350
11
  3
ACAD_PLOTSTYLENAME
350
12
  3
ACAD_SCALELIST
350
14
  3
ACAD_TABLESTYLE
350
15
  3
ACAD_VISUALSTYLE
350
16
  3
EZDXF_META
350
2D
  0
DICTIONARY
  5
B
330
A
100
AcDbDictionary
280
0
281
1
  0
DICTIONARY
  5
C
330
A
100
AcDbDictionary
280
0
281
1
  0
DICTIONARY
  5
D
330
A
100
AcDbDictionary
280
0
281
1
  3
Model
350
1A
  3
Layout1
350
1E
  0
DICTIONARY
  5
E
330
A
100
AcDbDictionary
280
0
281
1
  3
ByBlock
350
1F
  3
ByLayer
350
20
  3
Global
350
21
  0
DICTIONARY
  5
F
330
A
100
AcDbDictionary
280
0
281
1
  3
Standard
350
2C
  0
DICTIONARY
  5
10
330
A
100
AcDbDictionary
280
0
281
1
  3
Standard
350
22
  0
DICTIONARY
  5
11
330
A
100
AcDbDictionary
280
0
281
1
  0
ACDBDICTIONARYWDFLT
  5
12
330
A
100
AcDbDictionary
280
0
281
1
  3
Normal
350
13
100
AcDbDictionaryWithDefault
340
13
  0
ACDBPLACEHOLDER
  5
13
330
12
  0
DICTIONARY
  5
14
330
A
100
AcDbDictionary
280
0
281
1
  0
DICTIONARY
  5
15
330
A
100
AcDbDictionary
280
0
281
1
  0
DICTIONARY
  5
16
330
A
100
AcDbDictionary
280
0
281
1
  0
LAYOUT
  5
1A
330
D
100
AcDbPlotSettings
  1

  2
Adobe PDF
  4
A3
  6

 40
7.5
 41
20.0
 42
7.5
 43
20.0
 44
420.0
 45
297.0
 46
0.0
 47
0.0
 48
0.0
 49
0.0
140
0.0
141
0.0
142
1.0
143
1.0
 70
1024
 72
1
 73
0
 74
5
  7

 75
16
 76
0
 77
2
 78
300
147
1.0
148
0.0
149
0.0
100
AcDbLayout
  1
Model
 70
1
 71
0
 10
0.0
 20
0.0
 11
420.0
 21
297.0
 12
0.0
 22
0.0
 32
0.0
 14
1e+20
 24
1e+20
 34
1e+20
 15
-1e+20
 25
-1e+20
 35
-1e+20
146
0.0
 13
0.0
 23
0.0
 33
0.0
 16
1.0
 26
0.0
 36
0.0
 17
0.0
 27
1.0
 37
0.0
 76
1
330
17
  0
LAYOUT
  5
1E
330
D
100
AcDbPlotSettings
  1

  2
Adobe PDF
  4
A3
  6

 40
7.5
 41
20.0
 42
7.5
 43
20.0
 44
420.0
 45
297.0
 46
0.0
 47
0.0
 48
0.0
 49
0.0
140
0.0
141
0.0
142
1.0
143
1.0
 70
0
 72
1
 73
0
 74
5
  7

 75
16
 76
0
 77
2
 78
300
147
1.0
148
0.0
149
0.0
100
AcDbLayout
  1
Layout1
 70
1
 71
1
 10
0.0
 20
0.0
 11
420.0
 21
297.0
 12
0.0
 22
0.0
 32
0.0
 14
1e+20
 24
1e+20
 34
1e+20
 15
-1e+20
 25
-1e+20
 35
-1e+20
146
0.0
 13
0.0
 23
0.0
 33
0.0
 16
1.0
 26
0.0
 36
0.0
 17
0.0
 27
1.0
 37
0.0
 76
1
330
1B
  0
MATERIAL
  5
1F
102
{ACAD_REACTORS
330
E
102
}
330
E
100
AcDbMaterial
  1
ByBlock
  2

 70
0
 40
1.0
 71
1
 41
1.0
 91
-1023410177
 42
1.0
 72
1
  3

 73
1
 74
1
 75
1
 44
0.5
 73
0
 45
1.0
 46
1.0
 77
1
  4

 78
1
 79
1
170
1
 48
1.0
171
1
  6

172
1
173
1
174
1
140
1.0
141
1.0
175
1
  7

176
1
177
1
178
1
143
1.0
179
1
  8

270
1
271
1
272
1
145
1.0
146
1.0
273
1
  9

274
1
275
1
276
1
 42
1.0
 72
1
  3

 73
1
 74
1
 75
1
 94
63
  0
MATERIAL
  5
20
102
{ACAD_REACTORS
330
E
102
}
330
E
100
AcDbMaterial
  1
ByLayer
  2

 70
0
 40
1.0
 71
1
 41
1.0
 91
-1023410177
 42
1.0
 72
1
  3

 73
1
 74
1
 75
1
 44
0.5
 73
0
 45
1.0
 46
1.0
 77
1
  4

 78
1
 79
1
170
1
 48
1.0
171
1
  6

172
1
173
1
174
1
140
1.0
141
1.0
175
1
  7

176
1
177
1
178
1
143
1.0
179
1
  8

270
1
271
1
272
1
145
1.0
146
1.0
273
1
  9

274
1
275
1
276
1
 42
1.0
 72
1
  3

 73
1
 74
1
 75
1
 94
63
  0
MATERIAL
  5
21
102
{ACAD_REACTORS
330
E
102
}
330
E
100
AcDbMaterial
  1
Global
  2

 70
0
 40
1.0
 71
1
 41
1.0
 91
-1023410177
 42
1.0
 72
1
  3

 73
1
 74
1
 75
1
 44
0.5
 73
0
 45
1.0
 46
1.0
 77
1
  4

 78
1
 79
1
170
1
 48
1.0
171
1
  6

172
1
173
1
174
1
140
1.0
141
1.0
175
1
  7

176
1
177
1
178
1
143
1.0
179
1
  8

270
1
271
1
272
1
145
1.0
146
1.0
273
1
  9

274
1
275
1
276
1
 42
1.0
 72
1
  3

 73
1
 74
1
 75
1
 94
63
  0
MLINESTYLE
  5
22
102
{ACAD_REACTORS
330
10
102
}
330
10
100
AcDbMlineStyle
  2
Standard
 70
0
  3

 62
256
 51
90.0
 52
90.0
 71
2
 49
0.5
 62
256
  6
BYLAYER
 49
-0.5
 62
256
  6
BYLAYER
  0
MLEADERSTYLE
  5
2C
102
{ACAD_REACTORS
330
F
102
}
330
F
100
AcDbMLeaderStyle
179
2
170
2
171
1
172
0
 90
2
 40
0.0
 41
0.0
173
1
 91
-1056964608
 92
-2
290
1
 42
2.0
291
1
 43
8.0
  3
Standard
 44
4.0
300

342
29
174
1
175
1
176
0
178
1
 93
-1056964608
 45
4.0
292
0
297
0
 46
4.0
 94
-1056964608
 47
1.0
 49
1.0
140
1.0
294
1
141
0.0
177
0
142
1.0
295
0
296
0
143
3.75
271
0
272
9
273
9
  0
DICTIONARY
  5
2D
330
A
100
AcDbDictionary
281
1
  3
CREATED_BY_EZDXF
350
2E
  3
WRITTEN_BY_EZDXF
350
49F
  0
DICTIONARYVAR
  5
2E
330
2D
100
DictionaryVariables
280
0
  1
1.1.3 @ 2024-04-27T10:56:53.808903+00:00
  0
DICTIONARYVAR
  5
49F
330
2D
100
DictionaryVariables
280
0
  1
1.1.3 @ 2024-04-27T10:56:53.823901+00:00
  0
ENDSEC
  0
EOF
